%TF.GenerationSoftware,KiCad,Pcbnew,8.0.5*%
%TF.CreationDate,2025-06-16T13:59:14+07:00*%
%TF.ProjectId,PCB_EKF,5043425f-454b-4462-9e6b-696361645f70,rev?*%
%TF.SameCoordinates,Original*%
%TF.FileFunction,Copper,L2,Bot*%
%TF.FilePolarity,Positive*%
%FSLAX46Y46*%
G04 Gerber Fmt 4.6, Leading zero omitted, Abs format (unit mm)*
G04 Created by KiCad (PCBNEW 8.0.5) date 2025-06-16 13:59:14*
%MOMM*%
%LPD*%
G01*
G04 APERTURE LIST*
%TA.AperFunction,ComponentPad*%
%ADD10R,2.600000X2.600000*%
%TD*%
%TA.AperFunction,ComponentPad*%
%ADD11C,2.600000*%
%TD*%
%TA.AperFunction,ComponentPad*%
%ADD12C,3.000000*%
%TD*%
%TA.AperFunction,ComponentPad*%
%ADD13C,2.500000*%
%TD*%
%TA.AperFunction,ComponentPad*%
%ADD14R,1.700000X1.700000*%
%TD*%
%TA.AperFunction,ComponentPad*%
%ADD15O,1.700000X1.700000*%
%TD*%
%TA.AperFunction,ComponentPad*%
%ADD16R,1.500000X1.500000*%
%TD*%
%TA.AperFunction,ComponentPad*%
%ADD17C,3.700000*%
%TD*%
%TA.AperFunction,ComponentPad*%
%ADD18R,6.000000X4.000000*%
%TD*%
%TA.AperFunction,ComponentPad*%
%ADD19O,6.000000X4.000000*%
%TD*%
%TA.AperFunction,ComponentPad*%
%ADD20R,2.800000X2.800000*%
%TD*%
%TA.AperFunction,ComponentPad*%
%ADD21R,1.600000X1.600000*%
%TD*%
%TA.AperFunction,ComponentPad*%
%ADD22O,1.600000X1.600000*%
%TD*%
%TA.AperFunction,ComponentPad*%
%ADD23C,1.700000*%
%TD*%
%TA.AperFunction,ViaPad*%
%ADD24C,1.200000*%
%TD*%
%TA.AperFunction,Conductor*%
%ADD25C,0.400000*%
%TD*%
%TA.AperFunction,Conductor*%
%ADD26C,0.800000*%
%TD*%
G04 APERTURE END LIST*
D10*
%TO.P,J1,1,Pin_1*%
%TO.N,Load*%
X75652000Y-34747000D03*
D11*
%TO.P,J1,2,Pin_2*%
%TO.N,GND*%
X70652000Y-34747000D03*
%TD*%
D12*
%TO.P,K1,1*%
%TO.N,Shunt-*%
X75692000Y-93808000D03*
D13*
%TO.P,K1,2*%
%TO.N,Net-(D1-A)*%
X81742000Y-91858000D03*
D12*
%TO.P,K1,3*%
%TO.N,Load*%
X81742000Y-79658000D03*
%TO.P,K1,4*%
%TO.N,unconnected-(K1-Pad4)*%
X69692000Y-79608000D03*
D13*
%TO.P,K1,5*%
%TO.N,5V*%
X69742000Y-91858000D03*
%TD*%
D14*
%TO.P,JP2,1,A*%
%TO.N,CTRL_Load*%
X109474000Y-55880000D03*
D15*
%TO.P,JP2,2,C*%
%TO.N,3V3*%
X109474000Y-58420000D03*
%TO.P,JP2,3,B*%
%TO.N,CTRL_Charge*%
X109474000Y-60960000D03*
%TD*%
D16*
%TO.P,TP2,1,1*%
%TO.N,GND*%
X90170000Y-45212000D03*
%TD*%
D14*
%TO.P,U1,1,IN+*%
%TO.N,Net-(BT1-+)*%
X69596000Y-52578000D03*
D17*
X84582000Y-58928000D03*
X94869000Y-59055000D03*
D15*
%TO.P,U1,2,IN-*%
%TO.N,Shunt-*%
X69596000Y-55118000D03*
D17*
X84582000Y-63754000D03*
X94869000Y-63881000D03*
D15*
%TO.P,U1,3,VBUS*%
%TO.N,Vbatt*%
X69596000Y-57658000D03*
%TO.P,U1,4,Alert*%
%TO.N,Alert*%
X69596000Y-60198000D03*
%TO.P,U1,5,SCL*%
%TO.N,SCL*%
X69596000Y-62738000D03*
%TO.P,U1,6,SDA*%
%TO.N,SDA*%
X69596000Y-65278000D03*
%TO.P,U1,7,GND*%
%TO.N,GND*%
X69596000Y-67818000D03*
%TO.P,U1,8,VCC*%
%TO.N,3V3*%
X69596000Y-70358000D03*
%TD*%
D18*
%TO.P,BT1,1,+*%
%TO.N,Net-(BT1-+)*%
X54864000Y-34358000D03*
D19*
%TO.P,BT1,2,-*%
%TO.N,GND*%
X54864000Y-106358000D03*
%TD*%
D16*
%TO.P,TP1,1,1*%
%TO.N,Net-(BT1-+)*%
X86106000Y-45212000D03*
%TD*%
D20*
%TO.P,U4,1,5V+*%
%TO.N,5V*%
X136110500Y-46228500D03*
%TO.P,U4,2,GND*%
%TO.N,GND*%
X136110500Y-32028500D03*
%TO.P,U4,3,Out+*%
%TO.N,unconnected-(U4-Out+-Pad3)*%
X113210500Y-46228500D03*
%TO.P,U4,4,Out-*%
%TO.N,unconnected-(U4-Out--Pad4)*%
X113210500Y-31728500D03*
%TO.P,U4,5,B+*%
%TO.N,Charge*%
X113210500Y-42728500D03*
%TO.P,U4,6,B-*%
%TO.N,GND*%
X113210500Y-35128500D03*
%TD*%
D21*
%TO.P,SW1,1,A*%
%TO.N,Vbatt*%
X77681500Y-45974000D03*
D22*
%TO.P,SW1,2,B*%
%TO.N,Net-(BT1-+)*%
X70061500Y-45974000D03*
%TD*%
D14*
%TO.P,U3,1,PB12*%
%TO.N,unconnected-(U3-PB12-Pad1)*%
X116078000Y-60714000D03*
D23*
%TO.P,U3,2,PB13*%
%TO.N,CTRL_Load*%
X116078000Y-63254000D03*
%TO.P,U3,3,PB14*%
%TO.N,CTRL_Charge*%
X116078000Y-65794000D03*
%TO.P,U3,6,PA9*%
%TO.N,Tx*%
X116078000Y-73414000D03*
%TO.P,U3,7,PA10*%
%TO.N,Rx*%
X116078000Y-75954000D03*
%TO.P,U3,8,PA11*%
%TO.N,unconnected-(U3-PA11-Pad8)*%
X116078000Y-78494000D03*
%TO.P,U3,9,PA12*%
%TO.N,unconnected-(U3-PA12-Pad9)*%
X116078000Y-81034000D03*
%TO.P,U3,10,PA15*%
%TO.N,unconnected-(U3-PA15-Pad10)*%
X116078000Y-83574000D03*
%TO.P,U3,11,PB3*%
%TO.N,indikator_1*%
X116078000Y-86114000D03*
%TO.P,U3,12,PB4*%
%TO.N,indikator_2*%
X116078000Y-88654000D03*
%TO.P,U3,13,PB5*%
%TO.N,indikator_3*%
X116078000Y-91194000D03*
%TO.P,U3,14,PB6*%
%TO.N,SCL*%
X116078000Y-93734000D03*
%TO.P,U3,15,PB7*%
%TO.N,SDA*%
X116078000Y-96274000D03*
%TO.P,U3,16,3V3*%
%TO.N,3V3*%
X116078000Y-98814000D03*
%TO.P,U3,17,GND*%
%TO.N,unconnected-(U3-GND-Pad17)*%
X116078000Y-101354000D03*
%TO.P,U3,18,GND*%
%TO.N,GND*%
X133858000Y-101354000D03*
%TO.P,U3,19,PB8*%
%TO.N,unconnected-(U3-PB8-Pad19)*%
X133858000Y-98814000D03*
%TO.P,U3,20,PB9*%
%TO.N,unconnected-(U3-PB9-Pad20)*%
X133858000Y-96274000D03*
%TO.P,U3,21,PC13*%
%TO.N,unconnected-(U3-PC13-Pad21)*%
X133858000Y-93734000D03*
%TO.P,U3,22,RST*%
%TO.N,unconnected-(U3-RST-Pad22)*%
X133858000Y-91194000D03*
%TO.P,U3,23,PA0*%
%TO.N,unconnected-(U3-PA0-Pad23)*%
X133858000Y-88654000D03*
%TO.P,U3,24,PA1*%
%TO.N,unconnected-(U3-PA1-Pad24)*%
X133858000Y-86114000D03*
%TO.P,U3,25,PA2*%
%TO.N,unconnected-(U3-PA2-Pad25)*%
X133858000Y-83574000D03*
%TO.P,U3,26,PA3*%
%TO.N,unconnected-(U3-PA3-Pad26)*%
X133858000Y-81034000D03*
%TO.P,U3,27,PA4*%
%TO.N,unconnected-(U3-PA4-Pad27)*%
X133858000Y-78494000D03*
%TO.P,U3,28,PA5*%
%TO.N,unconnected-(U3-PA5-Pad28)*%
X133858000Y-75954000D03*
%TO.P,U3,29,PA6*%
%TO.N,unconnected-(U3-PA6-Pad29)*%
X133858000Y-73414000D03*
%TO.P,U3,30,PA7*%
%TO.N,unconnected-(U3-PA7-Pad30)*%
X133858000Y-70874000D03*
%TO.P,U3,31,PB0*%
%TO.N,Alert*%
X133858000Y-68334000D03*
%TO.P,U3,32,PB1*%
%TO.N,unconnected-(U3-PB1-Pad32)*%
X133858000Y-65794000D03*
%TO.P,U3,33,PB10*%
%TO.N,unconnected-(U3-PB10-Pad33)*%
X133858000Y-63254000D03*
%TO.P,U3,34,PB11*%
%TO.N,unconnected-(U3-PB11-Pad34)*%
X133858000Y-60714000D03*
%TO.P,U3,35,3V3*%
%TO.N,unconnected-(U3-3V3-Pad35)*%
X128778000Y-54364000D03*
%TO.P,U3,36,SWDIO*%
%TO.N,unconnected-(U3-SWDIO-Pad36)*%
X126238000Y-54364000D03*
%TO.P,U3,37,SWCLK*%
%TO.N,unconnected-(U3-SWCLK-Pad37)*%
X123698000Y-54364000D03*
%TO.P,U3,38,GND*%
%TO.N,GND*%
X121158000Y-54364000D03*
%TD*%
D10*
%TO.P,J2,1,Pin_1*%
%TO.N,GND*%
X88392000Y-34798000D03*
D11*
%TO.P,J2,2,Pin_2*%
%TO.N,5V*%
X83392000Y-34798000D03*
%TD*%
D14*
%TO.P,J4,1,Pin_1*%
%TO.N,Tx*%
X109728000Y-74168000D03*
D15*
%TO.P,J4,2,Pin_2*%
%TO.N,Rx*%
X109728000Y-76708000D03*
%TO.P,J4,3,Pin_3*%
%TO.N,GND*%
X109728000Y-79248000D03*
%TD*%
D12*
%TO.P,K3,1*%
%TO.N,Shunt-*%
X93472000Y-93844000D03*
D13*
%TO.P,K3,2*%
%TO.N,Net-(D3-K)*%
X99522000Y-91894000D03*
D12*
%TO.P,K3,3*%
%TO.N,Charge*%
X99522000Y-79694000D03*
%TO.P,K3,4*%
%TO.N,unconnected-(K3-Pad4)*%
X87472000Y-79644000D03*
D13*
%TO.P,K3,5*%
%TO.N,5V*%
X87522000Y-91894000D03*
%TD*%
D24*
%TO.N,3V3*%
X115697000Y-54991000D03*
%TO.N,CTRL_Load*%
X80522500Y-105275500D03*
X105410000Y-84836000D03*
%TO.N,Charge*%
X102743000Y-71501000D03*
%TD*%
D25*
%TO.N,CTRL_Load*%
X93860500Y-105275500D02*
X80522500Y-105275500D01*
X105410000Y-93726000D02*
X93860500Y-105275500D01*
X105410000Y-84836000D02*
X105410000Y-93726000D01*
D26*
%TO.N,Shunt-*%
X92066000Y-95250000D02*
X93472000Y-93844000D01*
X75692000Y-93808000D02*
X77134000Y-95250000D01*
X84582000Y-63754000D02*
X94742000Y-63754000D01*
X69596000Y-55118000D02*
X75946000Y-55118000D01*
X75946000Y-55118000D02*
X84582000Y-63754000D01*
X94742000Y-63754000D02*
X94869000Y-63881000D01*
X77134000Y-95250000D02*
X92066000Y-95250000D01*
D25*
%TO.N,3V3*%
X112268000Y-58420000D02*
X115697000Y-54991000D01*
X109474000Y-58420000D02*
X112268000Y-58420000D01*
D26*
%TO.N,5V*%
X86806000Y-91178000D02*
X86806000Y-91776000D01*
X86948000Y-31242000D02*
X83392000Y-34798000D01*
X69742000Y-91858000D02*
X72954000Y-88646000D01*
X84274000Y-88646000D02*
X86806000Y-91178000D01*
X131064500Y-46228500D02*
X123698000Y-38862000D01*
X136110500Y-46228500D02*
X131064500Y-46228500D01*
X123698000Y-38862000D02*
X110998000Y-38862000D01*
X72954000Y-88646000D02*
X84274000Y-88646000D01*
X103378000Y-31242000D02*
X86948000Y-31242000D01*
X110998000Y-38862000D02*
X103378000Y-31242000D01*
D25*
%TO.N,SCL*%
X116078000Y-93734000D02*
X115832000Y-93734000D01*
X115832000Y-93734000D02*
X114300000Y-92202000D01*
X73914000Y-62738000D02*
X69596000Y-62738000D01*
X114300000Y-92202000D02*
X114300000Y-88392000D01*
X100584000Y-74676000D02*
X85852000Y-74676000D01*
X114300000Y-88392000D02*
X100584000Y-74676000D01*
X85852000Y-74676000D02*
X73914000Y-62738000D01*
%TO.N,Alert*%
X93202000Y-72882000D02*
X105934000Y-72882000D01*
X86779243Y-66459243D02*
X93202000Y-72882000D01*
X110482000Y-68334000D02*
X133858000Y-68334000D01*
X74843767Y-60198000D02*
X81193767Y-66548000D01*
X105934000Y-72882000D02*
X110482000Y-68334000D01*
X81193767Y-66548000D02*
X83887513Y-66548000D01*
X84665949Y-66459243D02*
X86779243Y-66459243D01*
X83903108Y-66542856D02*
X84281603Y-66474378D01*
X83887513Y-66548000D02*
X83903108Y-66542856D01*
X69596000Y-60198000D02*
X74843767Y-60198000D01*
X84281603Y-66474378D02*
X84665949Y-66459243D01*
%TO.N,SDA*%
X112996148Y-93192148D02*
X113030000Y-93158296D01*
X99543006Y-75921006D02*
X84049006Y-75921006D01*
X113030000Y-89408000D02*
X99543006Y-75921006D01*
X84049006Y-75921006D02*
X73406000Y-65278000D01*
X113030000Y-93158296D02*
X113030000Y-89408000D01*
X73406000Y-65278000D02*
X69596000Y-65278000D01*
X116078000Y-96274000D02*
X112996148Y-93192148D01*
D26*
%TO.N,Net-(BT1-+)*%
X76708000Y-52578000D02*
X77216000Y-52578000D01*
X69596000Y-52578000D02*
X75692000Y-52578000D01*
X54864000Y-34358000D02*
X66480000Y-45974000D01*
X54864000Y-34358000D02*
X54864000Y-34544000D01*
X84582000Y-58928000D02*
X94742000Y-58928000D01*
X70061500Y-47540500D02*
X70061500Y-45974000D01*
X77216000Y-52578000D02*
X78232000Y-52578000D01*
X75692000Y-52578000D02*
X76708000Y-52578000D01*
X94742000Y-58928000D02*
X94869000Y-59055000D01*
X78232000Y-52578000D02*
X84582000Y-58928000D01*
X66480000Y-45974000D02*
X70061500Y-45974000D01*
X69596000Y-52578000D02*
X69596000Y-48006000D01*
X75692000Y-52578000D02*
X76157500Y-52578000D01*
X69596000Y-48006000D02*
X70061500Y-47540500D01*
%TO.N,Charge*%
X102743000Y-71501000D02*
X102743000Y-71247000D01*
X111703500Y-42728500D02*
X113210500Y-42728500D01*
X106172000Y-67818000D02*
X106172000Y-48260000D01*
X106172000Y-48260000D02*
X111703500Y-42728500D01*
X102743000Y-71247000D02*
X106172000Y-67818000D01*
D25*
%TO.N,Tx*%
X113284000Y-74168000D02*
X114038000Y-73414000D01*
X109728000Y-74168000D02*
X113284000Y-74168000D01*
X114038000Y-73414000D02*
X116078000Y-73414000D01*
%TO.N,Rx*%
X109728000Y-76708000D02*
X113030000Y-76708000D01*
X113030000Y-76708000D02*
X113784000Y-75954000D01*
X113784000Y-75954000D02*
X116078000Y-75954000D01*
%TD*%
%TA.AperFunction,Conductor*%
%TO.N,GND*%
G36*
X138634539Y-28206185D02*
G01*
X138680294Y-28258989D01*
X138691500Y-28310500D01*
X138691500Y-111643500D01*
X138671815Y-111710539D01*
X138619011Y-111756294D01*
X138567500Y-111767500D01*
X42026500Y-111767500D01*
X41959461Y-111747815D01*
X41913706Y-111695011D01*
X41902500Y-111643500D01*
X41902500Y-106107999D01*
X51376348Y-106107999D01*
X51376349Y-106108000D01*
X52884898Y-106108000D01*
X52864000Y-106239947D01*
X52864000Y-106476053D01*
X52884898Y-106608000D01*
X51376349Y-106608000D01*
X51395437Y-106777412D01*
X51395439Y-106777424D01*
X51457921Y-107051178D01*
X51457922Y-107051180D01*
X51550662Y-107316217D01*
X51672492Y-107569200D01*
X51821884Y-107806956D01*
X51996957Y-108026490D01*
X52195509Y-108225042D01*
X52415043Y-108400115D01*
X52652799Y-108549507D01*
X52905782Y-108671337D01*
X53170819Y-108764077D01*
X53170821Y-108764078D01*
X53444575Y-108826560D01*
X53444587Y-108826562D01*
X53723598Y-108857999D01*
X53723600Y-108858000D01*
X54614000Y-108858000D01*
X54614000Y-107858000D01*
X55114000Y-107858000D01*
X55114000Y-108858000D01*
X56004400Y-108858000D01*
X56004401Y-108857999D01*
X56283412Y-108826562D01*
X56283424Y-108826560D01*
X56557178Y-108764078D01*
X56557180Y-108764077D01*
X56822217Y-108671337D01*
X57075200Y-108549507D01*
X57312956Y-108400115D01*
X57532490Y-108225042D01*
X57731042Y-108026490D01*
X57906115Y-107806956D01*
X58055507Y-107569200D01*
X58177337Y-107316217D01*
X58270077Y-107051180D01*
X58270078Y-107051178D01*
X58332560Y-106777424D01*
X58332562Y-106777412D01*
X58351651Y-106608000D01*
X56843102Y-106608000D01*
X56864000Y-106476053D01*
X56864000Y-106239947D01*
X56843102Y-106108000D01*
X58351651Y-106108000D01*
X58351651Y-106107999D01*
X58332562Y-105938587D01*
X58332560Y-105938575D01*
X58270078Y-105664821D01*
X58270077Y-105664819D01*
X58177337Y-105399782D01*
X58117486Y-105275499D01*
X79417285Y-105275499D01*
X79417285Y-105275500D01*
X79436102Y-105478582D01*
X79491917Y-105674747D01*
X79491922Y-105674760D01*
X79582827Y-105857321D01*
X79705737Y-106020081D01*
X79856458Y-106157480D01*
X79856460Y-106157482D01*
X79955641Y-106218892D01*
X80029863Y-106264848D01*
X80220044Y-106338524D01*
X80420524Y-106376000D01*
X80420526Y-106376000D01*
X80624474Y-106376000D01*
X80624476Y-106376000D01*
X80824956Y-106338524D01*
X81015137Y-106264848D01*
X81188541Y-106157481D01*
X81339264Y-106020079D01*
X81339265Y-106020078D01*
X81342563Y-106016461D01*
X81402274Y-105980180D01*
X81434199Y-105976000D01*
X93929496Y-105976000D01*
X94020540Y-105957889D01*
X94064828Y-105949080D01*
X94128569Y-105922677D01*
X94192307Y-105896277D01*
X94192308Y-105896276D01*
X94192311Y-105896275D01*
X94307043Y-105819614D01*
X105954114Y-94172543D01*
X106030775Y-94057811D01*
X106083580Y-93930328D01*
X106110500Y-93794993D01*
X106110500Y-93657006D01*
X106110500Y-85741318D01*
X106130185Y-85674279D01*
X106150957Y-85649685D01*
X106226764Y-85580579D01*
X106349673Y-85417821D01*
X106440582Y-85235250D01*
X106496397Y-85039083D01*
X106515215Y-84836000D01*
X106508093Y-84759145D01*
X106496397Y-84632917D01*
X106490586Y-84612493D01*
X106440582Y-84436750D01*
X106349673Y-84254179D01*
X106226764Y-84091421D01*
X106226762Y-84091418D01*
X106076041Y-83954019D01*
X106076039Y-83954017D01*
X105902642Y-83846655D01*
X105902635Y-83846651D01*
X105806486Y-83809403D01*
X105712456Y-83772976D01*
X105511976Y-83735500D01*
X105308024Y-83735500D01*
X105107544Y-83772976D01*
X105107541Y-83772976D01*
X105107541Y-83772977D01*
X104917364Y-83846651D01*
X104917357Y-83846655D01*
X104743960Y-83954017D01*
X104743958Y-83954019D01*
X104593237Y-84091418D01*
X104470327Y-84254178D01*
X104379422Y-84436739D01*
X104379417Y-84436752D01*
X104323602Y-84632917D01*
X104304785Y-84835999D01*
X104304785Y-84836000D01*
X104323602Y-85039082D01*
X104379417Y-85235247D01*
X104379422Y-85235260D01*
X104470327Y-85417821D01*
X104593236Y-85580579D01*
X104669039Y-85649682D01*
X104705319Y-85709391D01*
X104709500Y-85741318D01*
X104709500Y-93384481D01*
X104689815Y-93451520D01*
X104673181Y-93472162D01*
X93606662Y-104538681D01*
X93545339Y-104572166D01*
X93518981Y-104575000D01*
X81434199Y-104575000D01*
X81367160Y-104555315D01*
X81342563Y-104534539D01*
X81339265Y-104530921D01*
X81188541Y-104393519D01*
X81188539Y-104393517D01*
X81015142Y-104286155D01*
X81015135Y-104286151D01*
X80920046Y-104249314D01*
X80824956Y-104212476D01*
X80624476Y-104175000D01*
X80420524Y-104175000D01*
X80220044Y-104212476D01*
X80220041Y-104212476D01*
X80220041Y-104212477D01*
X80029864Y-104286151D01*
X80029857Y-104286155D01*
X79856460Y-104393517D01*
X79856458Y-104393519D01*
X79705737Y-104530918D01*
X79582827Y-104693678D01*
X79491922Y-104876239D01*
X79491917Y-104876252D01*
X79436102Y-105072417D01*
X79417285Y-105275499D01*
X58117486Y-105275499D01*
X58055507Y-105146799D01*
X57906115Y-104909043D01*
X57731042Y-104689509D01*
X57532490Y-104490957D01*
X57312956Y-104315884D01*
X57075200Y-104166492D01*
X56822217Y-104044662D01*
X56557180Y-103951922D01*
X56557178Y-103951921D01*
X56283424Y-103889439D01*
X56283412Y-103889437D01*
X56004401Y-103858000D01*
X55114000Y-103858000D01*
X55114000Y-104858000D01*
X54614000Y-104858000D01*
X54614000Y-103858000D01*
X53723598Y-103858000D01*
X53444587Y-103889437D01*
X53444575Y-103889439D01*
X53170821Y-103951921D01*
X53170819Y-103951922D01*
X52905782Y-104044662D01*
X52652799Y-104166492D01*
X52415043Y-104315884D01*
X52195509Y-104490957D01*
X51996957Y-104689509D01*
X51821884Y-104909043D01*
X51672492Y-105146799D01*
X51550662Y-105399782D01*
X51457922Y-105664819D01*
X51457921Y-105664821D01*
X51395439Y-105938575D01*
X51395437Y-105938587D01*
X51376348Y-106107999D01*
X41902500Y-106107999D01*
X41902500Y-98491711D01*
X53013500Y-98491711D01*
X53013500Y-98734288D01*
X53045161Y-98974785D01*
X53107947Y-99209104D01*
X53136346Y-99277664D01*
X53200776Y-99433212D01*
X53322064Y-99643289D01*
X53322066Y-99643292D01*
X53322067Y-99643293D01*
X53469733Y-99835736D01*
X53469739Y-99835743D01*
X53641256Y-100007260D01*
X53641263Y-100007266D01*
X53712340Y-100061805D01*
X53833711Y-100154936D01*
X54043788Y-100276224D01*
X54267900Y-100369054D01*
X54502211Y-100431838D01*
X54682586Y-100455584D01*
X54742711Y-100463500D01*
X54742712Y-100463500D01*
X54985289Y-100463500D01*
X55033388Y-100457167D01*
X55225789Y-100431838D01*
X55460100Y-100369054D01*
X55684212Y-100276224D01*
X55894289Y-100154936D01*
X56086738Y-100007265D01*
X56258265Y-99835738D01*
X56405936Y-99643289D01*
X56527224Y-99433212D01*
X56620054Y-99209100D01*
X56682838Y-98974789D01*
X56714500Y-98734288D01*
X56714500Y-98491712D01*
X56682838Y-98251211D01*
X56620054Y-98016900D01*
X56527224Y-97792788D01*
X56405936Y-97582711D01*
X56258265Y-97390262D01*
X56258260Y-97390256D01*
X56086743Y-97218739D01*
X56086736Y-97218733D01*
X55894293Y-97071067D01*
X55894292Y-97071066D01*
X55894289Y-97071064D01*
X55684212Y-96949776D01*
X55684205Y-96949773D01*
X55460104Y-96856947D01*
X55225785Y-96794161D01*
X54985289Y-96762500D01*
X54985288Y-96762500D01*
X54742712Y-96762500D01*
X54742711Y-96762500D01*
X54502214Y-96794161D01*
X54267895Y-96856947D01*
X54043794Y-96949773D01*
X54043785Y-96949777D01*
X53833706Y-97071067D01*
X53641263Y-97218733D01*
X53641256Y-97218739D01*
X53469739Y-97390256D01*
X53469733Y-97390263D01*
X53322067Y-97582706D01*
X53322064Y-97582710D01*
X53322064Y-97582711D01*
X53305817Y-97610851D01*
X53200777Y-97792785D01*
X53200773Y-97792794D01*
X53107947Y-98016895D01*
X53045161Y-98251214D01*
X53013500Y-98491711D01*
X41902500Y-98491711D01*
X41902500Y-93807998D01*
X73686390Y-93807998D01*
X73686390Y-93808001D01*
X73706804Y-94093433D01*
X73767628Y-94373037D01*
X73767630Y-94373043D01*
X73767631Y-94373046D01*
X73854293Y-94605395D01*
X73867635Y-94641166D01*
X74004770Y-94892309D01*
X74004775Y-94892317D01*
X74176254Y-95121387D01*
X74176270Y-95121405D01*
X74378594Y-95323729D01*
X74378612Y-95323745D01*
X74607682Y-95495224D01*
X74607690Y-95495229D01*
X74858833Y-95632364D01*
X74858832Y-95632364D01*
X74858836Y-95632365D01*
X74858839Y-95632367D01*
X75126954Y-95732369D01*
X75126960Y-95732370D01*
X75126962Y-95732371D01*
X75406566Y-95793195D01*
X75406568Y-95793195D01*
X75406572Y-95793196D01*
X75646209Y-95810335D01*
X75691999Y-95813610D01*
X75692000Y-95813610D01*
X75692001Y-95813610D01*
X75737665Y-95810344D01*
X75977428Y-95793196D01*
X75977433Y-95793195D01*
X76261374Y-95731428D01*
X76331066Y-95736412D01*
X76375413Y-95764913D01*
X76559958Y-95949459D01*
X76559961Y-95949462D01*
X76608906Y-95982166D01*
X76693361Y-96038597D01*
X76707453Y-96048013D01*
X76789393Y-96081953D01*
X76871334Y-96115895D01*
X77045303Y-96150499D01*
X77045307Y-96150500D01*
X77045308Y-96150500D01*
X92154693Y-96150500D01*
X92154694Y-96150499D01*
X92328666Y-96115895D01*
X92410606Y-96081953D01*
X92492547Y-96048013D01*
X92591095Y-95982165D01*
X92640036Y-95949464D01*
X92788587Y-95800911D01*
X92849908Y-95767427D01*
X92901818Y-95771139D01*
X92902626Y-95767428D01*
X93186566Y-95829195D01*
X93186568Y-95829195D01*
X93186572Y-95829196D01*
X93440220Y-95847337D01*
X93471999Y-95849610D01*
X93472000Y-95849610D01*
X93472001Y-95849610D01*
X93500595Y-95847564D01*
X93757428Y-95829196D01*
X93844090Y-95810344D01*
X94037037Y-95768371D01*
X94037037Y-95768370D01*
X94037046Y-95768369D01*
X94305161Y-95668367D01*
X94556315Y-95531226D01*
X94785395Y-95359739D01*
X94987739Y-95157395D01*
X95159226Y-94928315D01*
X95296367Y-94677161D01*
X95396369Y-94409046D01*
X95442352Y-94197664D01*
X95457195Y-94129433D01*
X95457195Y-94129431D01*
X95457196Y-94129428D01*
X95477610Y-93844000D01*
X95457196Y-93558572D01*
X95449666Y-93523959D01*
X95396371Y-93278962D01*
X95396370Y-93278960D01*
X95396369Y-93278954D01*
X95296367Y-93010839D01*
X95283799Y-92987823D01*
X95159229Y-92759690D01*
X95159224Y-92759682D01*
X94987745Y-92530612D01*
X94987729Y-92530594D01*
X94785405Y-92328270D01*
X94785387Y-92328254D01*
X94556317Y-92156775D01*
X94556309Y-92156770D01*
X94305166Y-92019635D01*
X94305167Y-92019635D01*
X94197915Y-91979632D01*
X94037046Y-91919631D01*
X94037043Y-91919630D01*
X94037037Y-91919628D01*
X93919204Y-91893995D01*
X97766592Y-91893995D01*
X97766592Y-91894004D01*
X97786196Y-92155620D01*
X97786197Y-92155625D01*
X97844576Y-92411402D01*
X97844578Y-92411411D01*
X97844580Y-92411416D01*
X97940432Y-92655643D01*
X98071614Y-92882857D01*
X98173676Y-93010839D01*
X98235198Y-93087985D01*
X98402225Y-93242962D01*
X98427521Y-93266433D01*
X98644296Y-93414228D01*
X98644301Y-93414230D01*
X98644302Y-93414231D01*
X98644303Y-93414232D01*
X98764597Y-93472162D01*
X98880673Y-93528061D01*
X98880674Y-93528061D01*
X98880677Y-93528063D01*
X99131385Y-93605396D01*
X99390818Y-93644500D01*
X99653182Y-93644500D01*
X99912615Y-93605396D01*
X100163323Y-93528063D01*
X100399704Y-93414228D01*
X100616479Y-93266433D01*
X100808805Y-93087981D01*
X100972386Y-92882857D01*
X101103568Y-92655643D01*
X101199420Y-92411416D01*
X101257802Y-92155630D01*
X101260414Y-92120774D01*
X101277408Y-91894004D01*
X101277408Y-91893995D01*
X101257803Y-91632379D01*
X101257802Y-91632374D01*
X101257802Y-91632370D01*
X101199420Y-91376584D01*
X101103568Y-91132357D01*
X100972386Y-90905143D01*
X100808805Y-90700019D01*
X100808804Y-90700018D01*
X100808801Y-90700014D01*
X100616479Y-90521567D01*
X100399704Y-90373772D01*
X100399700Y-90373770D01*
X100399697Y-90373768D01*
X100399696Y-90373767D01*
X100163325Y-90259938D01*
X100163327Y-90259938D01*
X99912623Y-90182606D01*
X99912619Y-90182605D01*
X99912615Y-90182604D01*
X99787823Y-90163794D01*
X99653187Y-90143500D01*
X99653182Y-90143500D01*
X99390818Y-90143500D01*
X99390812Y-90143500D01*
X99229247Y-90167853D01*
X99131385Y-90182604D01*
X99131382Y-90182605D01*
X99131376Y-90182606D01*
X98880673Y-90259938D01*
X98644303Y-90373767D01*
X98644302Y-90373768D01*
X98427520Y-90521567D01*
X98235198Y-90700014D01*
X98071614Y-90905143D01*
X97940432Y-91132356D01*
X97844582Y-91376578D01*
X97844576Y-91376597D01*
X97786197Y-91632374D01*
X97786196Y-91632379D01*
X97766592Y-91893995D01*
X93919204Y-91893995D01*
X93757433Y-91858804D01*
X93472001Y-91838390D01*
X93471999Y-91838390D01*
X93186566Y-91858804D01*
X92906962Y-91919628D01*
X92638833Y-92019635D01*
X92387690Y-92156770D01*
X92387682Y-92156775D01*
X92158612Y-92328254D01*
X92158594Y-92328270D01*
X91956270Y-92530594D01*
X91956254Y-92530612D01*
X91784775Y-92759682D01*
X91784770Y-92759690D01*
X91647635Y-93010833D01*
X91547628Y-93278962D01*
X91486804Y-93558566D01*
X91466390Y-93843998D01*
X91466390Y-93844001D01*
X91486804Y-94129431D01*
X91501969Y-94199141D01*
X91496985Y-94268833D01*
X91455114Y-94324767D01*
X91389650Y-94349184D01*
X91380803Y-94349500D01*
X77775366Y-94349500D01*
X77708327Y-94329815D01*
X77662572Y-94277011D01*
X77652628Y-94207853D01*
X77654200Y-94199142D01*
X77677195Y-94093433D01*
X77677195Y-94093432D01*
X77677196Y-94093428D01*
X77697610Y-93808000D01*
X77677196Y-93522572D01*
X77671980Y-93498596D01*
X77616371Y-93242962D01*
X77616370Y-93242960D01*
X77616369Y-93242954D01*
X77516367Y-92974839D01*
X77495073Y-92935843D01*
X77379229Y-92723690D01*
X77379224Y-92723682D01*
X77207745Y-92494612D01*
X77207729Y-92494594D01*
X77005405Y-92292270D01*
X77005387Y-92292254D01*
X76776317Y-92120775D01*
X76776309Y-92120770D01*
X76525166Y-91983635D01*
X76525167Y-91983635D01*
X76353557Y-91919628D01*
X76257046Y-91883631D01*
X76257043Y-91883630D01*
X76257037Y-91883628D01*
X76139204Y-91857995D01*
X79986592Y-91857995D01*
X79986592Y-91858004D01*
X80006196Y-92119620D01*
X80006197Y-92119625D01*
X80064576Y-92375402D01*
X80064578Y-92375411D01*
X80064580Y-92375416D01*
X80160432Y-92619643D01*
X80291614Y-92846857D01*
X80404028Y-92987820D01*
X80455198Y-93051985D01*
X80531901Y-93123154D01*
X80647521Y-93230433D01*
X80864296Y-93378228D01*
X80864301Y-93378230D01*
X80864302Y-93378231D01*
X80864303Y-93378232D01*
X80939057Y-93414231D01*
X81100673Y-93492061D01*
X81100674Y-93492061D01*
X81100677Y-93492063D01*
X81351385Y-93569396D01*
X81610818Y-93608500D01*
X81873182Y-93608500D01*
X82132615Y-93569396D01*
X82383323Y-93492063D01*
X82619704Y-93378228D01*
X82836479Y-93230433D01*
X82990006Y-93087981D01*
X83028801Y-93051985D01*
X83028801Y-93051983D01*
X83028805Y-93051981D01*
X83192386Y-92846857D01*
X83323568Y-92619643D01*
X83419420Y-92375416D01*
X83477802Y-92119630D01*
X83481866Y-92065401D01*
X83497408Y-91858004D01*
X83497408Y-91857995D01*
X83477803Y-91596379D01*
X83477802Y-91596374D01*
X83477802Y-91596372D01*
X83477802Y-91596370D01*
X83419420Y-91340584D01*
X83323568Y-91096357D01*
X83192386Y-90869143D01*
X83028805Y-90664019D01*
X83028804Y-90664018D01*
X83028801Y-90664014D01*
X82836479Y-90485567D01*
X82679153Y-90378304D01*
X82619704Y-90337772D01*
X82619700Y-90337770D01*
X82619697Y-90337768D01*
X82619696Y-90337767D01*
X82383325Y-90223938D01*
X82383327Y-90223938D01*
X82132623Y-90146606D01*
X82132619Y-90146605D01*
X82132615Y-90146604D01*
X82007823Y-90127794D01*
X81873187Y-90107500D01*
X81873182Y-90107500D01*
X81610818Y-90107500D01*
X81610812Y-90107500D01*
X81449247Y-90131853D01*
X81351385Y-90146604D01*
X81351382Y-90146605D01*
X81351376Y-90146606D01*
X81100673Y-90223938D01*
X80864303Y-90337767D01*
X80864302Y-90337768D01*
X80647520Y-90485567D01*
X80455198Y-90664014D01*
X80291614Y-90869143D01*
X80160432Y-91096356D01*
X80064582Y-91340578D01*
X80064576Y-91340597D01*
X80006197Y-91596374D01*
X80006196Y-91596379D01*
X79986592Y-91857995D01*
X76139204Y-91857995D01*
X75977433Y-91822804D01*
X75692001Y-91802390D01*
X75691999Y-91802390D01*
X75406566Y-91822804D01*
X75126962Y-91883628D01*
X74858833Y-91983635D01*
X74607690Y-92120770D01*
X74607682Y-92120775D01*
X74378612Y-92292254D01*
X74378594Y-92292270D01*
X74176270Y-92494594D01*
X74176254Y-92494612D01*
X74004775Y-92723682D01*
X74004770Y-92723690D01*
X73867635Y-92974833D01*
X73767628Y-93242962D01*
X73706804Y-93522566D01*
X73686390Y-93807998D01*
X41902500Y-93807998D01*
X41902500Y-91857995D01*
X67986592Y-91857995D01*
X67986592Y-91858004D01*
X68006196Y-92119620D01*
X68006197Y-92119625D01*
X68064576Y-92375402D01*
X68064578Y-92375411D01*
X68064580Y-92375416D01*
X68160432Y-92619643D01*
X68291614Y-92846857D01*
X68404028Y-92987820D01*
X68455198Y-93051985D01*
X68531901Y-93123154D01*
X68647521Y-93230433D01*
X68864296Y-93378228D01*
X68864301Y-93378230D01*
X68864302Y-93378231D01*
X68864303Y-93378232D01*
X68939057Y-93414231D01*
X69100673Y-93492061D01*
X69100674Y-93492061D01*
X69100677Y-93492063D01*
X69351385Y-93569396D01*
X69610818Y-93608500D01*
X69873182Y-93608500D01*
X70132615Y-93569396D01*
X70383323Y-93492063D01*
X70619704Y-93378228D01*
X70836479Y-93230433D01*
X70990006Y-93087981D01*
X71028801Y-93051985D01*
X71028801Y-93051983D01*
X71028805Y-93051981D01*
X71192386Y-92846857D01*
X71323568Y-92619643D01*
X71419420Y-92375416D01*
X71477802Y-92119630D01*
X71481866Y-92065401D01*
X71497408Y-91858004D01*
X71497408Y-91857995D01*
X71477802Y-91596372D01*
X71455761Y-91499801D01*
X71460034Y-91430062D01*
X71488969Y-91384529D01*
X73290681Y-89582819D01*
X73352004Y-89549334D01*
X73378362Y-89546500D01*
X83849638Y-89546500D01*
X83916677Y-89566185D01*
X83937319Y-89582819D01*
X85775028Y-91420527D01*
X85808513Y-91481850D01*
X85808238Y-91535800D01*
X85786197Y-91632369D01*
X85786197Y-91632371D01*
X85766592Y-91893995D01*
X85766592Y-91894004D01*
X85786196Y-92155620D01*
X85786197Y-92155625D01*
X85844576Y-92411402D01*
X85844578Y-92411411D01*
X85844580Y-92411416D01*
X85940432Y-92655643D01*
X86071614Y-92882857D01*
X86173676Y-93010839D01*
X86235198Y-93087985D01*
X86402225Y-93242962D01*
X86427521Y-93266433D01*
X86644296Y-93414228D01*
X86644301Y-93414230D01*
X86644302Y-93414231D01*
X86644303Y-93414232D01*
X86764597Y-93472162D01*
X86880673Y-93528061D01*
X86880674Y-93528061D01*
X86880677Y-93528063D01*
X87131385Y-93605396D01*
X87390818Y-93644500D01*
X87653182Y-93644500D01*
X87912615Y-93605396D01*
X88163323Y-93528063D01*
X88399704Y-93414228D01*
X88616479Y-93266433D01*
X88808805Y-93087981D01*
X88972386Y-92882857D01*
X89103568Y-92655643D01*
X89199420Y-92411416D01*
X89257802Y-92155630D01*
X89260414Y-92120774D01*
X89277408Y-91894004D01*
X89277408Y-91893995D01*
X89257803Y-91632379D01*
X89257802Y-91632374D01*
X89257802Y-91632370D01*
X89199420Y-91376584D01*
X89103568Y-91132357D01*
X88972386Y-90905143D01*
X88808805Y-90700019D01*
X88808804Y-90700018D01*
X88808801Y-90700014D01*
X88616479Y-90521567D01*
X88399704Y-90373772D01*
X88399700Y-90373770D01*
X88399697Y-90373768D01*
X88399696Y-90373767D01*
X88163325Y-90259938D01*
X88163327Y-90259938D01*
X87912623Y-90182606D01*
X87912619Y-90182605D01*
X87912615Y-90182604D01*
X87787823Y-90163794D01*
X87653187Y-90143500D01*
X87653182Y-90143500D01*
X87390818Y-90143500D01*
X87390810Y-90143500D01*
X87152193Y-90179466D01*
X87082969Y-90169993D01*
X87046031Y-90144532D01*
X84848035Y-87946535D01*
X84848030Y-87946531D01*
X84788961Y-87907064D01*
X84788960Y-87907063D01*
X84700544Y-87847985D01*
X84700542Y-87847984D01*
X84618607Y-87814046D01*
X84618606Y-87814046D01*
X84536666Y-87780105D01*
X84536658Y-87780103D01*
X84362696Y-87745500D01*
X84362692Y-87745500D01*
X84362691Y-87745500D01*
X73042692Y-87745500D01*
X72865308Y-87745500D01*
X72865303Y-87745500D01*
X72691341Y-87780103D01*
X72691329Y-87780106D01*
X72609392Y-87814045D01*
X72609393Y-87814046D01*
X72527455Y-87847985D01*
X72439040Y-87907063D01*
X72439039Y-87907064D01*
X72379961Y-87946537D01*
X70217965Y-90108533D01*
X70156642Y-90142018D01*
X70111802Y-90143466D01*
X70079848Y-90138650D01*
X69873187Y-90107500D01*
X69873182Y-90107500D01*
X69610818Y-90107500D01*
X69610812Y-90107500D01*
X69449247Y-90131853D01*
X69351385Y-90146604D01*
X69351382Y-90146605D01*
X69351376Y-90146606D01*
X69100673Y-90223938D01*
X68864303Y-90337767D01*
X68864302Y-90337768D01*
X68647520Y-90485567D01*
X68455198Y-90664014D01*
X68291614Y-90869143D01*
X68160432Y-91096356D01*
X68064582Y-91340578D01*
X68064576Y-91340597D01*
X68006197Y-91596374D01*
X68006196Y-91596379D01*
X67986592Y-91857995D01*
X41902500Y-91857995D01*
X41902500Y-79607998D01*
X67686390Y-79607998D01*
X67686390Y-79608001D01*
X67706804Y-79893433D01*
X67767628Y-80173037D01*
X67767630Y-80173043D01*
X67767631Y-80173046D01*
X67809800Y-80286105D01*
X67867635Y-80441166D01*
X68004770Y-80692309D01*
X68004775Y-80692317D01*
X68176254Y-80921387D01*
X68176270Y-80921405D01*
X68378594Y-81123729D01*
X68378612Y-81123745D01*
X68607682Y-81295224D01*
X68607690Y-81295229D01*
X68858833Y-81432364D01*
X68858832Y-81432364D01*
X68858836Y-81432365D01*
X68858839Y-81432367D01*
X69126954Y-81532369D01*
X69126960Y-81532370D01*
X69126962Y-81532371D01*
X69406566Y-81593195D01*
X69406568Y-81593195D01*
X69406572Y-81593196D01*
X69660220Y-81611337D01*
X69691999Y-81613610D01*
X69692000Y-81613610D01*
X69692001Y-81613610D01*
X69720595Y-81611564D01*
X69977428Y-81593196D01*
X70091557Y-81568369D01*
X70257037Y-81532371D01*
X70257037Y-81532370D01*
X70257046Y-81532369D01*
X70525161Y-81432367D01*
X70776315Y-81295226D01*
X71005395Y-81123739D01*
X71207739Y-80921395D01*
X71379226Y-80692315D01*
X71516367Y-80441161D01*
X71616369Y-80173046D01*
X71654991Y-79995505D01*
X71677195Y-79893433D01*
X71677195Y-79893432D01*
X71677196Y-79893428D01*
X71694034Y-79657998D01*
X79736390Y-79657998D01*
X79736390Y-79658001D01*
X79756804Y-79943433D01*
X79817628Y-80223037D01*
X79817630Y-80223043D01*
X79817631Y-80223046D01*
X79867284Y-80356171D01*
X79917635Y-80491166D01*
X80054770Y-80742309D01*
X80054775Y-80742317D01*
X80226254Y-80971387D01*
X80226270Y-80971405D01*
X80428594Y-81173729D01*
X80428612Y-81173745D01*
X80657682Y-81345224D01*
X80657690Y-81345229D01*
X80908833Y-81482364D01*
X80908832Y-81482364D01*
X80908836Y-81482365D01*
X80908839Y-81482367D01*
X81176954Y-81582369D01*
X81176960Y-81582370D01*
X81176962Y-81582371D01*
X81456566Y-81643195D01*
X81456568Y-81643195D01*
X81456572Y-81643196D01*
X81710220Y-81661337D01*
X81741999Y-81663610D01*
X81742000Y-81663610D01*
X81742001Y-81663610D01*
X81770595Y-81661564D01*
X82027428Y-81643196D01*
X82141557Y-81618369D01*
X82307037Y-81582371D01*
X82307037Y-81582370D01*
X82307046Y-81582369D01*
X82575161Y-81482367D01*
X82826315Y-81345226D01*
X83055395Y-81173739D01*
X83257739Y-80971395D01*
X83429226Y-80742315D01*
X83566367Y-80491161D01*
X83666369Y-80223046D01*
X83669415Y-80209046D01*
X83727195Y-79943433D01*
X83727195Y-79943432D01*
X83727196Y-79943428D01*
X83747610Y-79658000D01*
X83746609Y-79643998D01*
X85466390Y-79643998D01*
X85466390Y-79644001D01*
X85486804Y-79929433D01*
X85547628Y-80209037D01*
X85547630Y-80209043D01*
X85547631Y-80209046D01*
X85552853Y-80223046D01*
X85647635Y-80477166D01*
X85784770Y-80728309D01*
X85784775Y-80728317D01*
X85956254Y-80957387D01*
X85956270Y-80957405D01*
X86158594Y-81159729D01*
X86158612Y-81159745D01*
X86387682Y-81331224D01*
X86387690Y-81331229D01*
X86638833Y-81468364D01*
X86638832Y-81468364D01*
X86638836Y-81468365D01*
X86638839Y-81468367D01*
X86906954Y-81568369D01*
X86906960Y-81568370D01*
X86906962Y-81568371D01*
X87186566Y-81629195D01*
X87186568Y-81629195D01*
X87186572Y-81629196D01*
X87440220Y-81647337D01*
X87471999Y-81649610D01*
X87472000Y-81649610D01*
X87472001Y-81649610D01*
X87500595Y-81647564D01*
X87757428Y-81629196D01*
X87922923Y-81593195D01*
X88037037Y-81568371D01*
X88037037Y-81568370D01*
X88037046Y-81568369D01*
X88305161Y-81468367D01*
X88556315Y-81331226D01*
X88785395Y-81159739D01*
X88987739Y-80957395D01*
X89159226Y-80728315D01*
X89296367Y-80477161D01*
X89396369Y-80209046D01*
X89454149Y-79943433D01*
X89457195Y-79929433D01*
X89457195Y-79929432D01*
X89457196Y-79929428D01*
X89477610Y-79644000D01*
X89457196Y-79358572D01*
X89449363Y-79322566D01*
X89396371Y-79078962D01*
X89396370Y-79078960D01*
X89396369Y-79078954D01*
X89296367Y-78810839D01*
X89276709Y-78774839D01*
X89159229Y-78559690D01*
X89159224Y-78559682D01*
X88987745Y-78330612D01*
X88987729Y-78330594D01*
X88785405Y-78128270D01*
X88785387Y-78128254D01*
X88556317Y-77956775D01*
X88556309Y-77956770D01*
X88305166Y-77819635D01*
X88305167Y-77819635D01*
X88197915Y-77779632D01*
X88037046Y-77719631D01*
X88037043Y-77719630D01*
X88037037Y-77719628D01*
X87757433Y-77658804D01*
X87472001Y-77638390D01*
X87471999Y-77638390D01*
X87186566Y-77658804D01*
X86906962Y-77719628D01*
X86638833Y-77819635D01*
X86387690Y-77956770D01*
X86387682Y-77956775D01*
X86158612Y-78128254D01*
X86158594Y-78128270D01*
X85956270Y-78330594D01*
X85956254Y-78330612D01*
X85784775Y-78559682D01*
X85784770Y-78559690D01*
X85647635Y-78810833D01*
X85547628Y-79078962D01*
X85486804Y-79358566D01*
X85466390Y-79643998D01*
X83746609Y-79643998D01*
X83727196Y-79372572D01*
X83725636Y-79365402D01*
X83666371Y-79092962D01*
X83666370Y-79092960D01*
X83666369Y-79092954D01*
X83566367Y-78824839D01*
X83558722Y-78810839D01*
X83429229Y-78573690D01*
X83429224Y-78573682D01*
X83257745Y-78344612D01*
X83257729Y-78344594D01*
X83055405Y-78142270D01*
X83055387Y-78142254D01*
X82826317Y-77970775D01*
X82826309Y-77970770D01*
X82575166Y-77833635D01*
X82575167Y-77833635D01*
X82467915Y-77793632D01*
X82307046Y-77733631D01*
X82307043Y-77733630D01*
X82307037Y-77733628D01*
X82027433Y-77672804D01*
X81742001Y-77652390D01*
X81741999Y-77652390D01*
X81456566Y-77672804D01*
X81176962Y-77733628D01*
X80908833Y-77833635D01*
X80657690Y-77970770D01*
X80657682Y-77970775D01*
X80428612Y-78142254D01*
X80428594Y-78142270D01*
X80226270Y-78344594D01*
X80226254Y-78344612D01*
X80054775Y-78573682D01*
X80054770Y-78573690D01*
X79917635Y-78824833D01*
X79817628Y-79092962D01*
X79756804Y-79372566D01*
X79736390Y-79657998D01*
X71694034Y-79657998D01*
X71697610Y-79608000D01*
X71677196Y-79322572D01*
X71675293Y-79313826D01*
X71616371Y-79042962D01*
X71616370Y-79042960D01*
X71616369Y-79042954D01*
X71516367Y-78774839D01*
X71491562Y-78729413D01*
X71379229Y-78523690D01*
X71379224Y-78523682D01*
X71207745Y-78294612D01*
X71207729Y-78294594D01*
X71005405Y-78092270D01*
X71005387Y-78092254D01*
X70776317Y-77920775D01*
X70776309Y-77920770D01*
X70525166Y-77783635D01*
X70525167Y-77783635D01*
X70324537Y-77708804D01*
X70257046Y-77683631D01*
X70257043Y-77683630D01*
X70257037Y-77683628D01*
X69977433Y-77622804D01*
X69692001Y-77602390D01*
X69691999Y-77602390D01*
X69406566Y-77622804D01*
X69126962Y-77683628D01*
X68858833Y-77783635D01*
X68607690Y-77920770D01*
X68607682Y-77920775D01*
X68378612Y-78092254D01*
X68378594Y-78092270D01*
X68176270Y-78294594D01*
X68176254Y-78294612D01*
X68004775Y-78523682D01*
X68004770Y-78523690D01*
X67867635Y-78774833D01*
X67767628Y-79042962D01*
X67706804Y-79322566D01*
X67686390Y-79607998D01*
X41902500Y-79607998D01*
X41902500Y-42881711D01*
X53013500Y-42881711D01*
X53013500Y-43124288D01*
X53045161Y-43364785D01*
X53107947Y-43599104D01*
X53200773Y-43823205D01*
X53200776Y-43823212D01*
X53322064Y-44033289D01*
X53322066Y-44033292D01*
X53322067Y-44033293D01*
X53469733Y-44225736D01*
X53469739Y-44225743D01*
X53641256Y-44397260D01*
X53641263Y-44397266D01*
X53669685Y-44419075D01*
X53833711Y-44544936D01*
X54043788Y-44666224D01*
X54267900Y-44759054D01*
X54502211Y-44821838D01*
X54666229Y-44843431D01*
X54742711Y-44853500D01*
X54742712Y-44853500D01*
X54985289Y-44853500D01*
X55061763Y-44843432D01*
X55225789Y-44821838D01*
X55460100Y-44759054D01*
X55684212Y-44666224D01*
X55894289Y-44544936D01*
X56086738Y-44397265D01*
X56258265Y-44225738D01*
X56405936Y-44033289D01*
X56527224Y-43823212D01*
X56620054Y-43599100D01*
X56682838Y-43364789D01*
X56714500Y-43124288D01*
X56714500Y-42881712D01*
X56682838Y-42641211D01*
X56620054Y-42406900D01*
X56527224Y-42182788D01*
X56405936Y-41972711D01*
X56258265Y-41780262D01*
X56258260Y-41780256D01*
X56086743Y-41608739D01*
X56086736Y-41608733D01*
X55894293Y-41461067D01*
X55894292Y-41461066D01*
X55894289Y-41461064D01*
X55684212Y-41339776D01*
X55684205Y-41339773D01*
X55460104Y-41246947D01*
X55225785Y-41184161D01*
X54985289Y-41152500D01*
X54985288Y-41152500D01*
X54742712Y-41152500D01*
X54742711Y-41152500D01*
X54502214Y-41184161D01*
X54267895Y-41246947D01*
X54043794Y-41339773D01*
X54043785Y-41339777D01*
X53833706Y-41461067D01*
X53641263Y-41608733D01*
X53641256Y-41608739D01*
X53469739Y-41780256D01*
X53469733Y-41780263D01*
X53322067Y-41972706D01*
X53200777Y-42182785D01*
X53200773Y-42182794D01*
X53107947Y-42406895D01*
X53045161Y-42641214D01*
X53013500Y-42881711D01*
X41902500Y-42881711D01*
X41902500Y-38354000D01*
X50292000Y-38354000D01*
X57535138Y-38354000D01*
X57602177Y-38373685D01*
X57622819Y-38390319D01*
X65780536Y-46548035D01*
X65905965Y-46673464D01*
X66053453Y-46772013D01*
X66101452Y-46791895D01*
X66217334Y-46839895D01*
X66391303Y-46874499D01*
X66391307Y-46874500D01*
X66391308Y-46874500D01*
X66391309Y-46874500D01*
X69037000Y-46874500D01*
X69104039Y-46894185D01*
X69149794Y-46946989D01*
X69161000Y-46998500D01*
X69161000Y-47116138D01*
X69141315Y-47183177D01*
X69124681Y-47203819D01*
X68896535Y-47431964D01*
X68896533Y-47431966D01*
X68872650Y-47467713D01*
X68872648Y-47467716D01*
X68797985Y-47579456D01*
X68797984Y-47579457D01*
X68777385Y-47629190D01*
X68777385Y-47629191D01*
X68730106Y-47743331D01*
X68730103Y-47743341D01*
X68712179Y-47833454D01*
X68695500Y-47917304D01*
X68695500Y-51126560D01*
X68675815Y-51193599D01*
X68623011Y-51239354D01*
X68614833Y-51242742D01*
X68503671Y-51284202D01*
X68503664Y-51284206D01*
X68388455Y-51370452D01*
X68388452Y-51370455D01*
X68302206Y-51485664D01*
X68302202Y-51485671D01*
X68251908Y-51620517D01*
X68245501Y-51680116D01*
X68245500Y-51680135D01*
X68245500Y-53475870D01*
X68245501Y-53475876D01*
X68251908Y-53535483D01*
X68302202Y-53670328D01*
X68302206Y-53670335D01*
X68388452Y-53785544D01*
X68388455Y-53785547D01*
X68503664Y-53871793D01*
X68503671Y-53871797D01*
X68635081Y-53920810D01*
X68691015Y-53962681D01*
X68715432Y-54028145D01*
X68700580Y-54096418D01*
X68679430Y-54124673D01*
X68557503Y-54246600D01*
X68421965Y-54440169D01*
X68421964Y-54440171D01*
X68322098Y-54654335D01*
X68322094Y-54654344D01*
X68260938Y-54882586D01*
X68260936Y-54882596D01*
X68240341Y-55117999D01*
X68240341Y-55118000D01*
X68260936Y-55353403D01*
X68260938Y-55353413D01*
X68322094Y-55581655D01*
X68322096Y-55581659D01*
X68322097Y-55581663D01*
X68393870Y-55735581D01*
X68421965Y-55795830D01*
X68421967Y-55795834D01*
X68557501Y-55989395D01*
X68557506Y-55989402D01*
X68724597Y-56156493D01*
X68724603Y-56156498D01*
X68910158Y-56286425D01*
X68953783Y-56341002D01*
X68960977Y-56410500D01*
X68929454Y-56472855D01*
X68910158Y-56489575D01*
X68724597Y-56619505D01*
X68557505Y-56786597D01*
X68421965Y-56980169D01*
X68421964Y-56980171D01*
X68322098Y-57194335D01*
X68322094Y-57194344D01*
X68260938Y-57422586D01*
X68260936Y-57422596D01*
X68240341Y-57657999D01*
X68240341Y-57658000D01*
X68260936Y-57893403D01*
X68260938Y-57893413D01*
X68322094Y-58121655D01*
X68322096Y-58121659D01*
X68322097Y-58121663D01*
X68413804Y-58318328D01*
X68421965Y-58335830D01*
X68421967Y-58335834D01*
X68557501Y-58529395D01*
X68557506Y-58529402D01*
X68724597Y-58696493D01*
X68724603Y-58696498D01*
X68910158Y-58826425D01*
X68953783Y-58881002D01*
X68960977Y-58950500D01*
X68929454Y-59012855D01*
X68910158Y-59029575D01*
X68724597Y-59159505D01*
X68557505Y-59326597D01*
X68421965Y-59520169D01*
X68421964Y-59520171D01*
X68322098Y-59734335D01*
X68322094Y-59734344D01*
X68260938Y-59962586D01*
X68260936Y-59962596D01*
X68240341Y-60197999D01*
X68240341Y-60198000D01*
X68260936Y-60433403D01*
X68260938Y-60433413D01*
X68322094Y-60661655D01*
X68322096Y-60661659D01*
X68322097Y-60661663D01*
X68385107Y-60796787D01*
X68421965Y-60875830D01*
X68421967Y-60875834D01*
X68557501Y-61069395D01*
X68557506Y-61069402D01*
X68724597Y-61236493D01*
X68724603Y-61236498D01*
X68910158Y-61366425D01*
X68953783Y-61421002D01*
X68960977Y-61490500D01*
X68929454Y-61552855D01*
X68910158Y-61569575D01*
X68724597Y-61699505D01*
X68557505Y-61866597D01*
X68421965Y-62060169D01*
X68421964Y-62060171D01*
X68322098Y-62274335D01*
X68322094Y-62274344D01*
X68260938Y-62502586D01*
X68260936Y-62502596D01*
X68240341Y-62737999D01*
X68240341Y-62738000D01*
X68260936Y-62973403D01*
X68260938Y-62973413D01*
X68322094Y-63201655D01*
X68322096Y-63201659D01*
X68322097Y-63201663D01*
X68354592Y-63271348D01*
X68421965Y-63415830D01*
X68421967Y-63415834D01*
X68557501Y-63609395D01*
X68557506Y-63609402D01*
X68724597Y-63776493D01*
X68724603Y-63776498D01*
X68910158Y-63906425D01*
X68953783Y-63961002D01*
X68960977Y-64030500D01*
X68929454Y-64092855D01*
X68910158Y-64109575D01*
X68724597Y-64239505D01*
X68557505Y-64406597D01*
X68421965Y-64600169D01*
X68421964Y-64600171D01*
X68322098Y-64814335D01*
X68322094Y-64814344D01*
X68260938Y-65042586D01*
X68260936Y-65042596D01*
X68240341Y-65277999D01*
X68240341Y-65278000D01*
X68260936Y-65513403D01*
X68260938Y-65513413D01*
X68322094Y-65741655D01*
X68322096Y-65741659D01*
X68322097Y-65741663D01*
X68371450Y-65847500D01*
X68421965Y-65955830D01*
X68421967Y-65955834D01*
X68557501Y-66149395D01*
X68557506Y-66149402D01*
X68724597Y-66316493D01*
X68724603Y-66316498D01*
X68910594Y-66446730D01*
X68954219Y-66501307D01*
X68961413Y-66570805D01*
X68929890Y-66633160D01*
X68910595Y-66649880D01*
X68724922Y-66779890D01*
X68724920Y-66779891D01*
X68557891Y-66946920D01*
X68557886Y-66946926D01*
X68422400Y-67140420D01*
X68422399Y-67140422D01*
X68322570Y-67354507D01*
X68322567Y-67354513D01*
X68265364Y-67567999D01*
X68265364Y-67568000D01*
X69162988Y-67568000D01*
X69130075Y-67625007D01*
X69096000Y-67752174D01*
X69096000Y-67883826D01*
X69130075Y-68010993D01*
X69162988Y-68068000D01*
X68265364Y-68068000D01*
X68322567Y-68281486D01*
X68322570Y-68281492D01*
X68422399Y-68495578D01*
X68557894Y-68689082D01*
X68724917Y-68856105D01*
X68910595Y-68986119D01*
X68954219Y-69040696D01*
X68961412Y-69110195D01*
X68929890Y-69172549D01*
X68910595Y-69189269D01*
X68724594Y-69319508D01*
X68557505Y-69486597D01*
X68421965Y-69680169D01*
X68421964Y-69680171D01*
X68322098Y-69894335D01*
X68322094Y-69894344D01*
X68260938Y-70122586D01*
X68260936Y-70122596D01*
X68240341Y-70357999D01*
X68240341Y-70358000D01*
X68260936Y-70593403D01*
X68260938Y-70593413D01*
X68322094Y-70821655D01*
X68322096Y-70821659D01*
X68322097Y-70821663D01*
X68367569Y-70919178D01*
X68421965Y-71035830D01*
X68421967Y-71035834D01*
X68473488Y-71109413D01*
X68557505Y-71229401D01*
X68724599Y-71396495D01*
X68761814Y-71422553D01*
X68918165Y-71532032D01*
X68918167Y-71532033D01*
X68918170Y-71532035D01*
X69132337Y-71631903D01*
X69360592Y-71693063D01*
X69548918Y-71709539D01*
X69595999Y-71713659D01*
X69596000Y-71713659D01*
X69596001Y-71713659D01*
X69635234Y-71710226D01*
X69831408Y-71693063D01*
X70059663Y-71631903D01*
X70273830Y-71532035D01*
X70467401Y-71396495D01*
X70634495Y-71229401D01*
X70770035Y-71035830D01*
X70869903Y-70821663D01*
X70931063Y-70593408D01*
X70951659Y-70358000D01*
X70931063Y-70122592D01*
X70869903Y-69894337D01*
X70770035Y-69680171D01*
X70769171Y-69678936D01*
X70634494Y-69486597D01*
X70467402Y-69319506D01*
X70467401Y-69319505D01*
X70281405Y-69189269D01*
X70237781Y-69134692D01*
X70230588Y-69065193D01*
X70262110Y-69002839D01*
X70281405Y-68986119D01*
X70467082Y-68856105D01*
X70634105Y-68689082D01*
X70769600Y-68495578D01*
X70869429Y-68281492D01*
X70869432Y-68281486D01*
X70926636Y-68068000D01*
X70029012Y-68068000D01*
X70061925Y-68010993D01*
X70096000Y-67883826D01*
X70096000Y-67752174D01*
X70061925Y-67625007D01*
X70029012Y-67568000D01*
X70926636Y-67568000D01*
X70926635Y-67567999D01*
X70869432Y-67354513D01*
X70869429Y-67354507D01*
X70769600Y-67140422D01*
X70769599Y-67140420D01*
X70634113Y-66946926D01*
X70634108Y-66946920D01*
X70467078Y-66779890D01*
X70281405Y-66649879D01*
X70237780Y-66595302D01*
X70230588Y-66525804D01*
X70262110Y-66463449D01*
X70281406Y-66446730D01*
X70467401Y-66316495D01*
X70634495Y-66149401D01*
X70717136Y-66031376D01*
X70771713Y-65987752D01*
X70818711Y-65978500D01*
X73064481Y-65978500D01*
X73131520Y-65998185D01*
X73152162Y-66014819D01*
X78366739Y-71229395D01*
X83504892Y-76367548D01*
X83554999Y-76417655D01*
X83602465Y-76465121D01*
X83717188Y-76541777D01*
X83717192Y-76541779D01*
X83717195Y-76541781D01*
X83791872Y-76572713D01*
X83791873Y-76572713D01*
X83791875Y-76572715D01*
X83844672Y-76594584D01*
X83844677Y-76594586D01*
X83844686Y-76594587D01*
X83844687Y-76594588D01*
X83871551Y-76599931D01*
X83871557Y-76599932D01*
X83871597Y-76599940D01*
X83961943Y-76617911D01*
X83980012Y-76621506D01*
X83980013Y-76621506D01*
X99201487Y-76621506D01*
X99268526Y-76641191D01*
X99289168Y-76657825D01*
X100189635Y-77558292D01*
X100223120Y-77619615D01*
X100218136Y-77689307D01*
X100176264Y-77745240D01*
X100110800Y-77769657D01*
X100075596Y-77767139D01*
X99807433Y-77708804D01*
X99522001Y-77688390D01*
X99521999Y-77688390D01*
X99236566Y-77708804D01*
X98956962Y-77769628D01*
X98688833Y-77869635D01*
X98437690Y-78006770D01*
X98437682Y-78006775D01*
X98208612Y-78178254D01*
X98208594Y-78178270D01*
X98006270Y-78380594D01*
X98006254Y-78380612D01*
X97834775Y-78609682D01*
X97834770Y-78609690D01*
X97697635Y-78860833D01*
X97597628Y-79128962D01*
X97536804Y-79408566D01*
X97516390Y-79693998D01*
X97516390Y-79694001D01*
X97536804Y-79979433D01*
X97597628Y-80259037D01*
X97597630Y-80259043D01*
X97597631Y-80259046D01*
X97678984Y-80477161D01*
X97697635Y-80527166D01*
X97834770Y-80778309D01*
X97834775Y-80778317D01*
X98006254Y-81007387D01*
X98006270Y-81007405D01*
X98208594Y-81209729D01*
X98208612Y-81209745D01*
X98437682Y-81381224D01*
X98437690Y-81381229D01*
X98688833Y-81518364D01*
X98688832Y-81518364D01*
X98688836Y-81518365D01*
X98688839Y-81518367D01*
X98956954Y-81618369D01*
X98956960Y-81618370D01*
X98956962Y-81618371D01*
X99236566Y-81679195D01*
X99236568Y-81679195D01*
X99236572Y-81679196D01*
X99490220Y-81697337D01*
X99521999Y-81699610D01*
X99522000Y-81699610D01*
X99522001Y-81699610D01*
X99550595Y-81697564D01*
X99807428Y-81679196D01*
X99972923Y-81643195D01*
X100087037Y-81618371D01*
X100087037Y-81618370D01*
X100087046Y-81618369D01*
X100355161Y-81518367D01*
X100606315Y-81381226D01*
X100835395Y-81209739D01*
X101037739Y-81007395D01*
X101209226Y-80778315D01*
X101346367Y-80527161D01*
X101446369Y-80259046D01*
X101476816Y-80119082D01*
X101507195Y-79979433D01*
X101507195Y-79979432D01*
X101507196Y-79979428D01*
X101527610Y-79694000D01*
X101507196Y-79408572D01*
X101499365Y-79372572D01*
X101448860Y-79140403D01*
X101453844Y-79070711D01*
X101495716Y-79014778D01*
X101561180Y-78990361D01*
X101629453Y-79005213D01*
X101657707Y-79026364D01*
X112293181Y-89661838D01*
X112326666Y-89723161D01*
X112329500Y-89749519D01*
X112329500Y-92946572D01*
X112324163Y-92982561D01*
X112322567Y-92987823D01*
X112295648Y-93123151D01*
X112295648Y-93123154D01*
X112295648Y-93261142D01*
X112295648Y-93261144D01*
X112295647Y-93261144D01*
X112322566Y-93396470D01*
X112322569Y-93396480D01*
X112375370Y-93523955D01*
X112452035Y-93638693D01*
X112452036Y-93638694D01*
X114715348Y-95902005D01*
X114748833Y-95963328D01*
X114747442Y-96021778D01*
X114742939Y-96038584D01*
X114742936Y-96038597D01*
X114722341Y-96273999D01*
X114722341Y-96274000D01*
X114742936Y-96509403D01*
X114742938Y-96509413D01*
X114804094Y-96737655D01*
X114804096Y-96737659D01*
X114804097Y-96737663D01*
X114815679Y-96762500D01*
X114903965Y-96951830D01*
X114903967Y-96951834D01*
X115039501Y-97145395D01*
X115039506Y-97145402D01*
X115206597Y-97312493D01*
X115206603Y-97312498D01*
X115392158Y-97442425D01*
X115435783Y-97497002D01*
X115442977Y-97566500D01*
X115411454Y-97628855D01*
X115392158Y-97645575D01*
X115206597Y-97775505D01*
X115039505Y-97942597D01*
X114903965Y-98136169D01*
X114903964Y-98136171D01*
X114804098Y-98350335D01*
X114804094Y-98350344D01*
X114742938Y-98578586D01*
X114742936Y-98578596D01*
X114722341Y-98813999D01*
X114722341Y-98814000D01*
X114742936Y-99049403D01*
X114742938Y-99049413D01*
X114804094Y-99277655D01*
X114804096Y-99277659D01*
X114804097Y-99277663D01*
X114876628Y-99433205D01*
X114903965Y-99491830D01*
X114903967Y-99491834D01*
X115039501Y-99685395D01*
X115039506Y-99685402D01*
X115206597Y-99852493D01*
X115206603Y-99852498D01*
X115392158Y-99982425D01*
X115435783Y-100037002D01*
X115442977Y-100106500D01*
X115411454Y-100168855D01*
X115392158Y-100185575D01*
X115206597Y-100315505D01*
X115039505Y-100482597D01*
X114903965Y-100676169D01*
X114903964Y-100676171D01*
X114804098Y-100890335D01*
X114804094Y-100890344D01*
X114742938Y-101118586D01*
X114742936Y-101118596D01*
X114722341Y-101353999D01*
X114722341Y-101354000D01*
X114742936Y-101589403D01*
X114742938Y-101589413D01*
X114804094Y-101817655D01*
X114804096Y-101817659D01*
X114804097Y-101817663D01*
X114903847Y-102031578D01*
X114903965Y-102031830D01*
X114903967Y-102031834D01*
X114962462Y-102115373D01*
X115039505Y-102225401D01*
X115206599Y-102392495D01*
X115303384Y-102460265D01*
X115400165Y-102528032D01*
X115400167Y-102528033D01*
X115400170Y-102528035D01*
X115614337Y-102627903D01*
X115842592Y-102689063D01*
X116030918Y-102705539D01*
X116077999Y-102709659D01*
X116078000Y-102709659D01*
X116078001Y-102709659D01*
X116117234Y-102706226D01*
X116313408Y-102689063D01*
X116541663Y-102627903D01*
X116755830Y-102528035D01*
X116949401Y-102392495D01*
X117116495Y-102225401D01*
X117252035Y-102031830D01*
X117351903Y-101817663D01*
X117413063Y-101589408D01*
X117433659Y-101354000D01*
X117413063Y-101118592D01*
X117351903Y-100890337D01*
X117252035Y-100676171D01*
X117193537Y-100592626D01*
X117116494Y-100482597D01*
X116949402Y-100315506D01*
X116949396Y-100315501D01*
X116763842Y-100185575D01*
X116720217Y-100130998D01*
X116713023Y-100061500D01*
X116744546Y-99999145D01*
X116763842Y-99982425D01*
X116786026Y-99966891D01*
X116949401Y-99852495D01*
X117116495Y-99685401D01*
X117252035Y-99491830D01*
X117351903Y-99277663D01*
X117413063Y-99049408D01*
X117433659Y-98814000D01*
X117413063Y-98578592D01*
X117351903Y-98350337D01*
X117252035Y-98136171D01*
X117168518Y-98016895D01*
X117116494Y-97942597D01*
X116949402Y-97775506D01*
X116949396Y-97775501D01*
X116763842Y-97645575D01*
X116720217Y-97590998D01*
X116713023Y-97521500D01*
X116744546Y-97459145D01*
X116763842Y-97442425D01*
X116838347Y-97390256D01*
X116949401Y-97312495D01*
X117116495Y-97145401D01*
X117252035Y-96951830D01*
X117351903Y-96737663D01*
X117413063Y-96509408D01*
X117433659Y-96274000D01*
X117413063Y-96038592D01*
X117351903Y-95810337D01*
X117252035Y-95596171D01*
X117206563Y-95531229D01*
X117116494Y-95402597D01*
X116949402Y-95235506D01*
X116949396Y-95235501D01*
X116763842Y-95105575D01*
X116720217Y-95050998D01*
X116713023Y-94981500D01*
X116744546Y-94919145D01*
X116763842Y-94902425D01*
X116786026Y-94886891D01*
X116949401Y-94772495D01*
X117116495Y-94605401D01*
X117252035Y-94411830D01*
X117351903Y-94197663D01*
X117413063Y-93969408D01*
X117433659Y-93734000D01*
X117413063Y-93498592D01*
X117351903Y-93270337D01*
X117252035Y-93056171D01*
X117249102Y-93051981D01*
X117116494Y-92862597D01*
X116949402Y-92695506D01*
X116949396Y-92695501D01*
X116763842Y-92565575D01*
X116720217Y-92510998D01*
X116713023Y-92441500D01*
X116744546Y-92379145D01*
X116763842Y-92362425D01*
X116812643Y-92328254D01*
X116949401Y-92232495D01*
X117116495Y-92065401D01*
X117252035Y-91871830D01*
X117351903Y-91657663D01*
X117413063Y-91429408D01*
X117433659Y-91194000D01*
X117413063Y-90958592D01*
X117351903Y-90730337D01*
X117252035Y-90516171D01*
X117127120Y-90337772D01*
X117116494Y-90322597D01*
X116949402Y-90155506D01*
X116949396Y-90155501D01*
X116763842Y-90025575D01*
X116720217Y-89970998D01*
X116713023Y-89901500D01*
X116744546Y-89839145D01*
X116763842Y-89822425D01*
X116912353Y-89718436D01*
X116949401Y-89692495D01*
X117116495Y-89525401D01*
X117252035Y-89331830D01*
X117351903Y-89117663D01*
X117413063Y-88889408D01*
X117433659Y-88654000D01*
X117413063Y-88418592D01*
X117351903Y-88190337D01*
X117252035Y-87976171D01*
X117231286Y-87946537D01*
X117116494Y-87782597D01*
X116949402Y-87615506D01*
X116949396Y-87615501D01*
X116763842Y-87485575D01*
X116720217Y-87430998D01*
X116713023Y-87361500D01*
X116744546Y-87299145D01*
X116763842Y-87282425D01*
X116786026Y-87266891D01*
X116949401Y-87152495D01*
X117116495Y-86985401D01*
X117252035Y-86791830D01*
X117351903Y-86577663D01*
X117413063Y-86349408D01*
X117433659Y-86114000D01*
X117413063Y-85878592D01*
X117351903Y-85650337D01*
X117252035Y-85436171D01*
X117239187Y-85417821D01*
X117116494Y-85242597D01*
X116949402Y-85075506D01*
X116949396Y-85075501D01*
X116763842Y-84945575D01*
X116720217Y-84890998D01*
X116713023Y-84821500D01*
X116744546Y-84759145D01*
X116763842Y-84742425D01*
X116920235Y-84632917D01*
X116949401Y-84612495D01*
X117116495Y-84445401D01*
X117252035Y-84251830D01*
X117351903Y-84037663D01*
X117413063Y-83809408D01*
X117433659Y-83574000D01*
X117413063Y-83338592D01*
X117351903Y-83110337D01*
X117252035Y-82896171D01*
X117116495Y-82702599D01*
X117116494Y-82702597D01*
X116949402Y-82535506D01*
X116949396Y-82535501D01*
X116763842Y-82405575D01*
X116720217Y-82350998D01*
X116713023Y-82281500D01*
X116744546Y-82219145D01*
X116763842Y-82202425D01*
X116786026Y-82186891D01*
X116949401Y-82072495D01*
X117116495Y-81905401D01*
X117252035Y-81711830D01*
X117351903Y-81497663D01*
X117413063Y-81269408D01*
X117433659Y-81034000D01*
X117413063Y-80798592D01*
X117351903Y-80570337D01*
X117252035Y-80356171D01*
X117202975Y-80286105D01*
X117116494Y-80162597D01*
X116949402Y-79995506D01*
X116949396Y-79995501D01*
X116763842Y-79865575D01*
X116720217Y-79810998D01*
X116713023Y-79741500D01*
X116744546Y-79679145D01*
X116763842Y-79662425D01*
X116790154Y-79644001D01*
X116949401Y-79532495D01*
X117116495Y-79365401D01*
X117252035Y-79171830D01*
X117351903Y-78957663D01*
X117413063Y-78729408D01*
X117433659Y-78494000D01*
X117413063Y-78258592D01*
X117365178Y-78079879D01*
X117351905Y-78030344D01*
X117351904Y-78030343D01*
X117351903Y-78030337D01*
X117252035Y-77816171D01*
X117229254Y-77783635D01*
X117116494Y-77622597D01*
X116949402Y-77455506D01*
X116949396Y-77455501D01*
X116763842Y-77325575D01*
X116720217Y-77270998D01*
X116713023Y-77201500D01*
X116744546Y-77139145D01*
X116763842Y-77122425D01*
X116786026Y-77106891D01*
X116949401Y-76992495D01*
X117116495Y-76825401D01*
X117252035Y-76631830D01*
X117351903Y-76417663D01*
X117413063Y-76189408D01*
X117433659Y-75954000D01*
X117413063Y-75718592D01*
X117351903Y-75490337D01*
X117252035Y-75276171D01*
X117229683Y-75244248D01*
X117116494Y-75082597D01*
X116949402Y-74915506D01*
X116949396Y-74915501D01*
X116763842Y-74785575D01*
X116720217Y-74730998D01*
X116713023Y-74661500D01*
X116744546Y-74599145D01*
X116763842Y-74582425D01*
X116786026Y-74566891D01*
X116949401Y-74452495D01*
X117116495Y-74285401D01*
X117252035Y-74091830D01*
X117351903Y-73877663D01*
X117413063Y-73649408D01*
X117433659Y-73414000D01*
X117413063Y-73178592D01*
X117351903Y-72950337D01*
X117252035Y-72736171D01*
X117229683Y-72704248D01*
X117116494Y-72542597D01*
X116949402Y-72375506D01*
X116949395Y-72375501D01*
X116755834Y-72239967D01*
X116755830Y-72239965D01*
X116755828Y-72239964D01*
X116541663Y-72140097D01*
X116541659Y-72140096D01*
X116541655Y-72140094D01*
X116313413Y-72078938D01*
X116313403Y-72078936D01*
X116078001Y-72058341D01*
X116077999Y-72058341D01*
X115842596Y-72078936D01*
X115842586Y-72078938D01*
X115614344Y-72140094D01*
X115614335Y-72140098D01*
X115400171Y-72239964D01*
X115400169Y-72239965D01*
X115206597Y-72375505D01*
X115039506Y-72542596D01*
X114956864Y-72660623D01*
X114902287Y-72704248D01*
X114855289Y-72713500D01*
X113969004Y-72713500D01*
X113833677Y-72740418D01*
X113833667Y-72740421D01*
X113706192Y-72793222D01*
X113591454Y-72869887D01*
X113591453Y-72869888D01*
X113030162Y-73431181D01*
X112968839Y-73464666D01*
X112942481Y-73467500D01*
X111202499Y-73467500D01*
X111135460Y-73447815D01*
X111089705Y-73395011D01*
X111078499Y-73343500D01*
X111078499Y-73270129D01*
X111078498Y-73270123D01*
X111078497Y-73270116D01*
X111072091Y-73210517D01*
X111060185Y-73178596D01*
X111021797Y-73075671D01*
X111021793Y-73075664D01*
X110935547Y-72960455D01*
X110935544Y-72960452D01*
X110820335Y-72874206D01*
X110820328Y-72874202D01*
X110685482Y-72823908D01*
X110685483Y-72823908D01*
X110625883Y-72817501D01*
X110625881Y-72817500D01*
X110625873Y-72817500D01*
X110625864Y-72817500D01*
X108830129Y-72817500D01*
X108830123Y-72817501D01*
X108770516Y-72823908D01*
X108635671Y-72874202D01*
X108635664Y-72874206D01*
X108520455Y-72960452D01*
X108520452Y-72960455D01*
X108434206Y-73075664D01*
X108434202Y-73075671D01*
X108383908Y-73210517D01*
X108377501Y-73270116D01*
X108377501Y-73270123D01*
X108377500Y-73270135D01*
X108377500Y-75065870D01*
X108377501Y-75065876D01*
X108383908Y-75125483D01*
X108434202Y-75260328D01*
X108434206Y-75260335D01*
X108520452Y-75375544D01*
X108520455Y-75375547D01*
X108635664Y-75461793D01*
X108635671Y-75461797D01*
X108767081Y-75510810D01*
X108823015Y-75552681D01*
X108847432Y-75618145D01*
X108832580Y-75686418D01*
X108811430Y-75714673D01*
X108689503Y-75836600D01*
X108553965Y-76030169D01*
X108553964Y-76030171D01*
X108454098Y-76244335D01*
X108454094Y-76244344D01*
X108392938Y-76472586D01*
X108392936Y-76472596D01*
X108372341Y-76707999D01*
X108372341Y-76708000D01*
X108392936Y-76943403D01*
X108392938Y-76943413D01*
X108454094Y-77171655D01*
X108454096Y-77171659D01*
X108454097Y-77171663D01*
X108491611Y-77252112D01*
X108553965Y-77385830D01*
X108553967Y-77385834D01*
X108689501Y-77579395D01*
X108689506Y-77579402D01*
X108856597Y-77746493D01*
X108856603Y-77746498D01*
X109042594Y-77876730D01*
X109086219Y-77931307D01*
X109093413Y-78000805D01*
X109061890Y-78063160D01*
X109042595Y-78079880D01*
X108856922Y-78209890D01*
X108856920Y-78209891D01*
X108689891Y-78376920D01*
X108689886Y-78376926D01*
X108554400Y-78570420D01*
X108554399Y-78570422D01*
X108454570Y-78784507D01*
X108454567Y-78784513D01*
X108397364Y-78997999D01*
X108397364Y-78998000D01*
X109294988Y-78998000D01*
X109262075Y-79055007D01*
X109228000Y-79182174D01*
X109228000Y-79313826D01*
X109262075Y-79440993D01*
X109294988Y-79498000D01*
X108397364Y-79498000D01*
X108454567Y-79711486D01*
X108454570Y-79711492D01*
X108554399Y-79925578D01*
X108689894Y-80119082D01*
X108856917Y-80286105D01*
X109050421Y-80421600D01*
X109264507Y-80521429D01*
X109264516Y-80521433D01*
X109478000Y-80578634D01*
X109478000Y-79681012D01*
X109535007Y-79713925D01*
X109662174Y-79748000D01*
X109793826Y-79748000D01*
X109920993Y-79713925D01*
X109978000Y-79681012D01*
X109978000Y-80578633D01*
X110191483Y-80521433D01*
X110191492Y-80521429D01*
X110405578Y-80421600D01*
X110599082Y-80286105D01*
X110766105Y-80119082D01*
X110901600Y-79925578D01*
X111001429Y-79711492D01*
X111001432Y-79711486D01*
X111058636Y-79498000D01*
X110161012Y-79498000D01*
X110193925Y-79440993D01*
X110228000Y-79313826D01*
X110228000Y-79182174D01*
X110193925Y-79055007D01*
X110161012Y-78998000D01*
X111058636Y-78998000D01*
X111058635Y-78997999D01*
X111001432Y-78784513D01*
X111001429Y-78784507D01*
X110901600Y-78570422D01*
X110901599Y-78570420D01*
X110766113Y-78376926D01*
X110766108Y-78376920D01*
X110599078Y-78209890D01*
X110413405Y-78079879D01*
X110369780Y-78025302D01*
X110362588Y-77955804D01*
X110394110Y-77893449D01*
X110413406Y-77876730D01*
X110499896Y-77816169D01*
X110599401Y-77746495D01*
X110766495Y-77579401D01*
X110849136Y-77461376D01*
X110903713Y-77417752D01*
X110950711Y-77408500D01*
X113098996Y-77408500D01*
X113212962Y-77385830D01*
X113234328Y-77381580D01*
X113298069Y-77355177D01*
X113361807Y-77328777D01*
X113361808Y-77328776D01*
X113361811Y-77328775D01*
X113476543Y-77252114D01*
X114037838Y-76690819D01*
X114099161Y-76657334D01*
X114125519Y-76654500D01*
X114855289Y-76654500D01*
X114922328Y-76674185D01*
X114956863Y-76707376D01*
X114957300Y-76708000D01*
X115039505Y-76825402D01*
X115206597Y-76992493D01*
X115206603Y-76992498D01*
X115392158Y-77122425D01*
X115435783Y-77177002D01*
X115442977Y-77246500D01*
X115411454Y-77308855D01*
X115392158Y-77325575D01*
X115206597Y-77455505D01*
X115039505Y-77622597D01*
X114903965Y-77816169D01*
X114903964Y-77816171D01*
X114804098Y-78030335D01*
X114804094Y-78030344D01*
X114742938Y-78258586D01*
X114742936Y-78258596D01*
X114722341Y-78493999D01*
X114722341Y-78494000D01*
X114742936Y-78729403D01*
X114742938Y-78729413D01*
X114804094Y-78957655D01*
X114804096Y-78957659D01*
X114804097Y-78957663D01*
X114867188Y-79092962D01*
X114903965Y-79171830D01*
X114903967Y-79171834D01*
X115039501Y-79365395D01*
X115039506Y-79365402D01*
X115206597Y-79532493D01*
X115206603Y-79532498D01*
X115392158Y-79662425D01*
X115435783Y-79717002D01*
X115442977Y-79786500D01*
X115411454Y-79848855D01*
X115392158Y-79865575D01*
X115206597Y-79995505D01*
X115039505Y-80162597D01*
X114903965Y-80356169D01*
X114903964Y-80356171D01*
X114804098Y-80570335D01*
X114804094Y-80570344D01*
X114742938Y-80798586D01*
X114742936Y-80798596D01*
X114722341Y-81033999D01*
X114722341Y-81034000D01*
X114742936Y-81269403D01*
X114742938Y-81269413D01*
X114804094Y-81497655D01*
X114804096Y-81497659D01*
X114804097Y-81497663D01*
X114898267Y-81699610D01*
X114903965Y-81711830D01*
X114903967Y-81711834D01*
X115039501Y-81905395D01*
X115039506Y-81905402D01*
X115206597Y-82072493D01*
X115206603Y-82072498D01*
X115392158Y-82202425D01*
X115435783Y-82257002D01*
X115442977Y-82326500D01*
X115411454Y-82388855D01*
X115392158Y-82405575D01*
X115206597Y-82535505D01*
X115039505Y-82702597D01*
X114903965Y-82896169D01*
X114903964Y-82896171D01*
X114804098Y-83110335D01*
X114804094Y-83110344D01*
X114742938Y-83338586D01*
X114742936Y-83338596D01*
X114722341Y-83573999D01*
X114722341Y-83574000D01*
X114742936Y-83809403D01*
X114742938Y-83809413D01*
X114804094Y-84037655D01*
X114804096Y-84037659D01*
X114804097Y-84037663D01*
X114829165Y-84091421D01*
X114903965Y-84251830D01*
X114903967Y-84251834D01*
X115012281Y-84406521D01*
X115033447Y-84436750D01*
X115039501Y-84445395D01*
X115039506Y-84445402D01*
X115206597Y-84612493D01*
X115206603Y-84612498D01*
X115392158Y-84742425D01*
X115435783Y-84797002D01*
X115442977Y-84866500D01*
X115411454Y-84928855D01*
X115392158Y-84945575D01*
X115206597Y-85075505D01*
X115039505Y-85242597D01*
X114903965Y-85436169D01*
X114903964Y-85436171D01*
X114804098Y-85650335D01*
X114804094Y-85650344D01*
X114742938Y-85878586D01*
X114742936Y-85878596D01*
X114722341Y-86113999D01*
X114722341Y-86114000D01*
X114742936Y-86349403D01*
X114742938Y-86349413D01*
X114804094Y-86577655D01*
X114804096Y-86577659D01*
X114804097Y-86577663D01*
X114903965Y-86791830D01*
X114903967Y-86791834D01*
X115039501Y-86985395D01*
X115039506Y-86985402D01*
X115206597Y-87152493D01*
X115206603Y-87152498D01*
X115392158Y-87282425D01*
X115435783Y-87337002D01*
X115442977Y-87406500D01*
X115411454Y-87468855D01*
X115392158Y-87485575D01*
X115206597Y-87615505D01*
X115039505Y-87782597D01*
X114976727Y-87872255D01*
X114922150Y-87915880D01*
X114852652Y-87923074D01*
X114790297Y-87891551D01*
X114787471Y-87888813D01*
X101030545Y-74131887D01*
X100915807Y-74055222D01*
X100788332Y-74002421D01*
X100788322Y-74002418D01*
X100652996Y-73975500D01*
X100652994Y-73975500D01*
X100652993Y-73975500D01*
X86193519Y-73975500D01*
X86126480Y-73955815D01*
X86105838Y-73939181D01*
X84114967Y-71948310D01*
X84081482Y-71886987D01*
X84086466Y-71817295D01*
X84128338Y-71761362D01*
X84193802Y-71736945D01*
X84218190Y-71737607D01*
X84421664Y-71763312D01*
X84421670Y-71763312D01*
X84421674Y-71763313D01*
X84421676Y-71763313D01*
X84742324Y-71763313D01*
X84742326Y-71763313D01*
X84742331Y-71763312D01*
X84742335Y-71763312D01*
X84810176Y-71754741D01*
X85060450Y-71723124D01*
X85371029Y-71643381D01*
X85400015Y-71631905D01*
X85669154Y-71525345D01*
X85669157Y-71525344D01*
X85669158Y-71525343D01*
X85669164Y-71525341D01*
X85950154Y-71370866D01*
X86209567Y-71182391D01*
X86443313Y-70962889D01*
X86647704Y-70715822D01*
X86819519Y-70445086D01*
X86956046Y-70154951D01*
X87055133Y-69849993D01*
X87115217Y-69535020D01*
X87117268Y-69502425D01*
X87135351Y-69215005D01*
X87135351Y-69214994D01*
X87115218Y-68894990D01*
X87115217Y-68894983D01*
X87115217Y-68894980D01*
X87055133Y-68580007D01*
X86956046Y-68275049D01*
X86929247Y-68218099D01*
X86819521Y-67984918D01*
X86819520Y-67984917D01*
X86819519Y-67984914D01*
X86647704Y-67714178D01*
X86625003Y-67686737D01*
X86443311Y-67467108D01*
X86344304Y-67374135D01*
X86308910Y-67313894D01*
X86311702Y-67244080D01*
X86351796Y-67186859D01*
X86416461Y-67160398D01*
X86429188Y-67159743D01*
X86437724Y-67159743D01*
X86504763Y-67179428D01*
X86525405Y-67196062D01*
X92755453Y-73426111D01*
X92755454Y-73426112D01*
X92870192Y-73502777D01*
X92997667Y-73555578D01*
X92997672Y-73555580D01*
X92997676Y-73555580D01*
X92997677Y-73555581D01*
X93133003Y-73582500D01*
X93133006Y-73582500D01*
X106002996Y-73582500D01*
X106094040Y-73564389D01*
X106138328Y-73555580D01*
X106202069Y-73529177D01*
X106265807Y-73502777D01*
X106265808Y-73502776D01*
X106265811Y-73502775D01*
X106380543Y-73426114D01*
X110735838Y-69070819D01*
X110797161Y-69037334D01*
X110823519Y-69034500D01*
X132635289Y-69034500D01*
X132702328Y-69054185D01*
X132736864Y-69087377D01*
X132819505Y-69205402D01*
X132986597Y-69372493D01*
X132986603Y-69372498D01*
X133172158Y-69502425D01*
X133215783Y-69557002D01*
X133222977Y-69626500D01*
X133191454Y-69688855D01*
X133172158Y-69705575D01*
X132986597Y-69835505D01*
X132819505Y-70002597D01*
X132683965Y-70196169D01*
X132683964Y-70196171D01*
X132584098Y-70410335D01*
X132584094Y-70410344D01*
X132522938Y-70638586D01*
X132522936Y-70638596D01*
X132502341Y-70873999D01*
X132502341Y-70874000D01*
X132522936Y-71109403D01*
X132522938Y-71109413D01*
X132584094Y-71337655D01*
X132584096Y-71337659D01*
X132584097Y-71337663D01*
X132671613Y-71525341D01*
X132683965Y-71551830D01*
X132683967Y-71551834D01*
X132790573Y-71704082D01*
X132803906Y-71723124D01*
X132819501Y-71745395D01*
X132819506Y-71745402D01*
X132986597Y-71912493D01*
X132986603Y-71912498D01*
X133172158Y-72042425D01*
X133215783Y-72097002D01*
X133222977Y-72166500D01*
X133191454Y-72228855D01*
X133172158Y-72245575D01*
X132986597Y-72375505D01*
X132819505Y-72542597D01*
X132683965Y-72736169D01*
X132683964Y-72736171D01*
X132584098Y-72950335D01*
X132584094Y-72950344D01*
X132522938Y-73178586D01*
X132522936Y-73178596D01*
X132502341Y-73413999D01*
X132502341Y-73414000D01*
X132522936Y-73649403D01*
X132522938Y-73649413D01*
X132584094Y-73877655D01*
X132584096Y-73877659D01*
X132584097Y-73877663D01*
X132642273Y-74002421D01*
X132683965Y-74091830D01*
X132683967Y-74091834D01*
X132819501Y-74285395D01*
X132819506Y-74285402D01*
X132986597Y-74452493D01*
X132986603Y-74452498D01*
X133172158Y-74582425D01*
X133215783Y-74637002D01*
X133222977Y-74706500D01*
X133191454Y-74768855D01*
X133172158Y-74785575D01*
X132986597Y-74915505D01*
X132819505Y-75082597D01*
X132683965Y-75276169D01*
X132683964Y-75276171D01*
X132584098Y-75490335D01*
X132584094Y-75490344D01*
X132522938Y-75718586D01*
X132522936Y-75718596D01*
X132502341Y-75953999D01*
X132502341Y-75954000D01*
X132522936Y-76189403D01*
X132522938Y-76189413D01*
X132584094Y-76417655D01*
X132584096Y-76417659D01*
X132584097Y-76417663D01*
X132656397Y-76572711D01*
X132683965Y-76631830D01*
X132683967Y-76631834D01*
X132819501Y-76825395D01*
X132819506Y-76825402D01*
X132986597Y-76992493D01*
X132986603Y-76992498D01*
X133172158Y-77122425D01*
X133215783Y-77177002D01*
X133222977Y-77246500D01*
X133191454Y-77308855D01*
X133172158Y-77325575D01*
X132986597Y-77455505D01*
X132819505Y-77622597D01*
X132683965Y-77816169D01*
X132683964Y-77816171D01*
X132584098Y-78030335D01*
X132584094Y-78030344D01*
X132522938Y-78258586D01*
X132522936Y-78258596D01*
X132502341Y-78493999D01*
X132502341Y-78494000D01*
X132522936Y-78729403D01*
X132522938Y-78729413D01*
X132584094Y-78957655D01*
X132584096Y-78957659D01*
X132584097Y-78957663D01*
X132647188Y-79092962D01*
X132683965Y-79171830D01*
X132683967Y-79171834D01*
X132819501Y-79365395D01*
X132819506Y-79365402D01*
X132986597Y-79532493D01*
X132986603Y-79532498D01*
X133172158Y-79662425D01*
X133215783Y-79717002D01*
X133222977Y-79786500D01*
X133191454Y-79848855D01*
X133172158Y-79865575D01*
X132986597Y-79995505D01*
X132819505Y-80162597D01*
X132683965Y-80356169D01*
X132683964Y-80356171D01*
X132584098Y-80570335D01*
X132584094Y-80570344D01*
X132522938Y-80798586D01*
X132522936Y-80798596D01*
X132502341Y-81033999D01*
X132502341Y-81034000D01*
X132522936Y-81269403D01*
X132522938Y-81269413D01*
X132584094Y-81497655D01*
X132584096Y-81497659D01*
X132584097Y-81497663D01*
X132678267Y-81699610D01*
X132683965Y-81711830D01*
X132683967Y-81711834D01*
X132819501Y-81905395D01*
X132819506Y-81905402D01*
X132986597Y-82072493D01*
X132986603Y-82072498D01*
X133172158Y-82202425D01*
X133215783Y-82257002D01*
X133222977Y-82326500D01*
X133191454Y-82388855D01*
X133172158Y-82405575D01*
X132986597Y-82535505D01*
X132819505Y-82702597D01*
X132683965Y-82896169D01*
X132683964Y-82896171D01*
X132584098Y-83110335D01*
X132584094Y-83110344D01*
X132522938Y-83338586D01*
X132522936Y-83338596D01*
X132502341Y-83573999D01*
X132502341Y-83574000D01*
X132522936Y-83809403D01*
X132522938Y-83809413D01*
X132584094Y-84037655D01*
X132584096Y-84037659D01*
X132584097Y-84037663D01*
X132609165Y-84091421D01*
X132683965Y-84251830D01*
X132683967Y-84251834D01*
X132792281Y-84406521D01*
X132813447Y-84436750D01*
X132819501Y-84445395D01*
X132819506Y-84445402D01*
X132986597Y-84612493D01*
X132986603Y-84612498D01*
X133172158Y-84742425D01*
X133215783Y-84797002D01*
X133222977Y-84866500D01*
X133191454Y-84928855D01*
X133172158Y-84945575D01*
X132986597Y-85075505D01*
X132819505Y-85242597D01*
X132683965Y-85436169D01*
X132683964Y-85436171D01*
X132584098Y-85650335D01*
X132584094Y-85650344D01*
X132522938Y-85878586D01*
X132522936Y-85878596D01*
X132502341Y-86113999D01*
X132502341Y-86114000D01*
X132522936Y-86349403D01*
X132522938Y-86349413D01*
X132584094Y-86577655D01*
X132584096Y-86577659D01*
X132584097Y-86577663D01*
X132683965Y-86791830D01*
X132683967Y-86791834D01*
X132819501Y-86985395D01*
X132819506Y-86985402D01*
X132986597Y-87152493D01*
X132986603Y-87152498D01*
X133172158Y-87282425D01*
X133215783Y-87337002D01*
X133222977Y-87406500D01*
X133191454Y-87468855D01*
X133172158Y-87485575D01*
X132986597Y-87615505D01*
X132819505Y-87782597D01*
X132683965Y-87976169D01*
X132683964Y-87976171D01*
X132584098Y-88190335D01*
X132584094Y-88190344D01*
X132522938Y-88418586D01*
X132522936Y-88418596D01*
X132502341Y-88653999D01*
X132502341Y-88654000D01*
X132522936Y-88889403D01*
X132522938Y-88889413D01*
X132584094Y-89117655D01*
X132584096Y-89117659D01*
X132584097Y-89117663D01*
X132683965Y-89331830D01*
X132683967Y-89331834D01*
X132819501Y-89525395D01*
X132819506Y-89525402D01*
X132986597Y-89692493D01*
X132986603Y-89692498D01*
X133172158Y-89822425D01*
X133215783Y-89877002D01*
X133222977Y-89946500D01*
X133191454Y-90008855D01*
X133172158Y-90025575D01*
X132986597Y-90155505D01*
X132819505Y-90322597D01*
X132683965Y-90516169D01*
X132683964Y-90516171D01*
X132584098Y-90730335D01*
X132584094Y-90730344D01*
X132522938Y-90958586D01*
X132522936Y-90958596D01*
X132502341Y-91193999D01*
X132502341Y-91194000D01*
X132522936Y-91429403D01*
X132522938Y-91429413D01*
X132584094Y-91657655D01*
X132584096Y-91657659D01*
X132584097Y-91657663D01*
X132651585Y-91802390D01*
X132683965Y-91871830D01*
X132683967Y-91871834D01*
X132819501Y-92065395D01*
X132819506Y-92065402D01*
X132986597Y-92232493D01*
X132986603Y-92232498D01*
X133172158Y-92362425D01*
X133215783Y-92417002D01*
X133222977Y-92486500D01*
X133191454Y-92548855D01*
X133172158Y-92565575D01*
X132986597Y-92695505D01*
X132819505Y-92862597D01*
X132683965Y-93056169D01*
X132683964Y-93056171D01*
X132602705Y-93230432D01*
X132585918Y-93266433D01*
X132584098Y-93270335D01*
X132584094Y-93270344D01*
X132522938Y-93498586D01*
X132522936Y-93498596D01*
X132502341Y-93733999D01*
X132502341Y-93734000D01*
X132522936Y-93969403D01*
X132522938Y-93969413D01*
X132584094Y-94197655D01*
X132584096Y-94197659D01*
X132584097Y-94197663D01*
X132665880Y-94373046D01*
X132683965Y-94411830D01*
X132683967Y-94411834D01*
X132819501Y-94605395D01*
X132819506Y-94605402D01*
X132986597Y-94772493D01*
X132986603Y-94772498D01*
X133172158Y-94902425D01*
X133215783Y-94957002D01*
X133222977Y-95026500D01*
X133191454Y-95088855D01*
X133172158Y-95105575D01*
X132986597Y-95235505D01*
X132819505Y-95402597D01*
X132683965Y-95596169D01*
X132683964Y-95596171D01*
X132584098Y-95810335D01*
X132584094Y-95810344D01*
X132522938Y-96038586D01*
X132522936Y-96038596D01*
X132502341Y-96273999D01*
X132502341Y-96274000D01*
X132522936Y-96509403D01*
X132522938Y-96509413D01*
X132584094Y-96737655D01*
X132584096Y-96737659D01*
X132584097Y-96737663D01*
X132595679Y-96762500D01*
X132683965Y-96951830D01*
X132683967Y-96951834D01*
X132819501Y-97145395D01*
X132819506Y-97145402D01*
X132986597Y-97312493D01*
X132986603Y-97312498D01*
X133172158Y-97442425D01*
X133215783Y-97497002D01*
X133222977Y-97566500D01*
X133191454Y-97628855D01*
X133172158Y-97645575D01*
X132986597Y-97775505D01*
X132819505Y-97942597D01*
X132683965Y-98136169D01*
X132683964Y-98136171D01*
X132584098Y-98350335D01*
X132584094Y-98350344D01*
X132522938Y-98578586D01*
X132522936Y-98578596D01*
X132502341Y-98813999D01*
X132502341Y-98814000D01*
X132522936Y-99049403D01*
X132522938Y-99049413D01*
X132584094Y-99277655D01*
X132584096Y-99277659D01*
X132584097Y-99277663D01*
X132656628Y-99433205D01*
X132683965Y-99491830D01*
X132683967Y-99491834D01*
X132790018Y-99643289D01*
X132819505Y-99685401D01*
X132986599Y-99852495D01*
X133172158Y-99982425D01*
X133172594Y-99982730D01*
X133216218Y-100037307D01*
X133223411Y-100106806D01*
X133191889Y-100169160D01*
X133172593Y-100185880D01*
X133096626Y-100239072D01*
X133096625Y-100239072D01*
X133728590Y-100871037D01*
X133665007Y-100888075D01*
X133550993Y-100953901D01*
X133457901Y-101046993D01*
X133392075Y-101161007D01*
X133375037Y-101224590D01*
X132743072Y-100592625D01*
X132684401Y-100676419D01*
X132584570Y-100890507D01*
X132584566Y-100890516D01*
X132523432Y-101118673D01*
X132523430Y-101118684D01*
X132502843Y-101353998D01*
X132502843Y-101354001D01*
X132523430Y-101589315D01*
X132523432Y-101589326D01*
X132584566Y-101817483D01*
X132584570Y-101817492D01*
X132684400Y-102031579D01*
X132684402Y-102031583D01*
X132743072Y-102115373D01*
X132743073Y-102115373D01*
X133375037Y-101483409D01*
X133392075Y-101546993D01*
X133457901Y-101661007D01*
X133550993Y-101754099D01*
X133665007Y-101819925D01*
X133728590Y-101836962D01*
X133096625Y-102468925D01*
X133180421Y-102527599D01*
X133394507Y-102627429D01*
X133394516Y-102627433D01*
X133622673Y-102688567D01*
X133622684Y-102688569D01*
X133857998Y-102709157D01*
X133858002Y-102709157D01*
X134093315Y-102688569D01*
X134093326Y-102688567D01*
X134321483Y-102627433D01*
X134321492Y-102627429D01*
X134535578Y-102527600D01*
X134535582Y-102527598D01*
X134619373Y-102468926D01*
X134619373Y-102468925D01*
X133987409Y-101836962D01*
X134050993Y-101819925D01*
X134165007Y-101754099D01*
X134258099Y-101661007D01*
X134323925Y-101546993D01*
X134340962Y-101483410D01*
X134972925Y-102115373D01*
X134972926Y-102115373D01*
X135031598Y-102031582D01*
X135031600Y-102031578D01*
X135131429Y-101817492D01*
X135131433Y-101817483D01*
X135192567Y-101589326D01*
X135192569Y-101589315D01*
X135213157Y-101354001D01*
X135213157Y-101353998D01*
X135192569Y-101118684D01*
X135192567Y-101118673D01*
X135131433Y-100890516D01*
X135131429Y-100890507D01*
X135031600Y-100676423D01*
X135031599Y-100676421D01*
X134972925Y-100592626D01*
X134972925Y-100592625D01*
X134340962Y-101224589D01*
X134323925Y-101161007D01*
X134258099Y-101046993D01*
X134165007Y-100953901D01*
X134050993Y-100888075D01*
X133987410Y-100871037D01*
X134619373Y-100239073D01*
X134619373Y-100239072D01*
X134543405Y-100185880D01*
X134499780Y-100131304D01*
X134492586Y-100061805D01*
X134524108Y-99999451D01*
X134543399Y-99982734D01*
X134729401Y-99852495D01*
X134896495Y-99685401D01*
X135032035Y-99491830D01*
X135131903Y-99277663D01*
X135193063Y-99049408D01*
X135213659Y-98814000D01*
X135193063Y-98578592D01*
X135131903Y-98350337D01*
X135032035Y-98136171D01*
X134948518Y-98016895D01*
X134896494Y-97942597D01*
X134729402Y-97775506D01*
X134729396Y-97775501D01*
X134543842Y-97645575D01*
X134500217Y-97590998D01*
X134493023Y-97521500D01*
X134524546Y-97459145D01*
X134543842Y-97442425D01*
X134618347Y-97390256D01*
X134729401Y-97312495D01*
X134896495Y-97145401D01*
X135032035Y-96951830D01*
X135131903Y-96737663D01*
X135193063Y-96509408D01*
X135213659Y-96274000D01*
X135193063Y-96038592D01*
X135131903Y-95810337D01*
X135032035Y-95596171D01*
X134986563Y-95531229D01*
X134896494Y-95402597D01*
X134729402Y-95235506D01*
X134729396Y-95235501D01*
X134543842Y-95105575D01*
X134500217Y-95050998D01*
X134493023Y-94981500D01*
X134524546Y-94919145D01*
X134543842Y-94902425D01*
X134566026Y-94886891D01*
X134729401Y-94772495D01*
X134896495Y-94605401D01*
X135032035Y-94411830D01*
X135131903Y-94197663D01*
X135193063Y-93969408D01*
X135213659Y-93734000D01*
X135193063Y-93498592D01*
X135131903Y-93270337D01*
X135032035Y-93056171D01*
X135029102Y-93051981D01*
X134896494Y-92862597D01*
X134729402Y-92695506D01*
X134729396Y-92695501D01*
X134543842Y-92565575D01*
X134500217Y-92510998D01*
X134493023Y-92441500D01*
X134524546Y-92379145D01*
X134543842Y-92362425D01*
X134592643Y-92328254D01*
X134729401Y-92232495D01*
X134896495Y-92065401D01*
X135032035Y-91871830D01*
X135131903Y-91657663D01*
X135193063Y-91429408D01*
X135213659Y-91194000D01*
X135193063Y-90958592D01*
X135131903Y-90730337D01*
X135032035Y-90516171D01*
X134907120Y-90337772D01*
X134896494Y-90322597D01*
X134729402Y-90155506D01*
X134729396Y-90155501D01*
X134543842Y-90025575D01*
X134500217Y-89970998D01*
X134493023Y-89901500D01*
X134524546Y-89839145D01*
X134543842Y-89822425D01*
X134692353Y-89718436D01*
X134729401Y-89692495D01*
X134896495Y-89525401D01*
X135032035Y-89331830D01*
X135131903Y-89117663D01*
X135193063Y-88889408D01*
X135213659Y-88654000D01*
X135193063Y-88418592D01*
X135131903Y-88190337D01*
X135032035Y-87976171D01*
X135011286Y-87946537D01*
X134896494Y-87782597D01*
X134729402Y-87615506D01*
X134729396Y-87615501D01*
X134543842Y-87485575D01*
X134500217Y-87430998D01*
X134493023Y-87361500D01*
X134524546Y-87299145D01*
X134543842Y-87282425D01*
X134566026Y-87266891D01*
X134729401Y-87152495D01*
X134896495Y-86985401D01*
X135032035Y-86791830D01*
X135131903Y-86577663D01*
X135193063Y-86349408D01*
X135213659Y-86114000D01*
X135193063Y-85878592D01*
X135131903Y-85650337D01*
X135032035Y-85436171D01*
X135019187Y-85417821D01*
X134896494Y-85242597D01*
X134729402Y-85075506D01*
X134729396Y-85075501D01*
X134543842Y-84945575D01*
X134500217Y-84890998D01*
X134493023Y-84821500D01*
X134524546Y-84759145D01*
X134543842Y-84742425D01*
X134700235Y-84632917D01*
X134729401Y-84612495D01*
X134896495Y-84445401D01*
X135032035Y-84251830D01*
X135131903Y-84037663D01*
X135193063Y-83809408D01*
X135213659Y-83574000D01*
X135193063Y-83338592D01*
X135131903Y-83110337D01*
X135032035Y-82896171D01*
X134896495Y-82702599D01*
X134896494Y-82702597D01*
X134729402Y-82535506D01*
X134729396Y-82535501D01*
X134543842Y-82405575D01*
X134500217Y-82350998D01*
X134493023Y-82281500D01*
X134524546Y-82219145D01*
X134543842Y-82202425D01*
X134566026Y-82186891D01*
X134729401Y-82072495D01*
X134896495Y-81905401D01*
X135032035Y-81711830D01*
X135131903Y-81497663D01*
X135193063Y-81269408D01*
X135213659Y-81034000D01*
X135193063Y-80798592D01*
X135131903Y-80570337D01*
X135032035Y-80356171D01*
X134982975Y-80286105D01*
X134896494Y-80162597D01*
X134729402Y-79995506D01*
X134729396Y-79995501D01*
X134543842Y-79865575D01*
X134500217Y-79810998D01*
X134493023Y-79741500D01*
X134524546Y-79679145D01*
X134543842Y-79662425D01*
X134570154Y-79644001D01*
X134729401Y-79532495D01*
X134896495Y-79365401D01*
X135032035Y-79171830D01*
X135131903Y-78957663D01*
X135193063Y-78729408D01*
X135213659Y-78494000D01*
X135193063Y-78258592D01*
X135145178Y-78079879D01*
X135131905Y-78030344D01*
X135131904Y-78030343D01*
X135131903Y-78030337D01*
X135032035Y-77816171D01*
X135009254Y-77783635D01*
X134896494Y-77622597D01*
X134729402Y-77455506D01*
X134729396Y-77455501D01*
X134543842Y-77325575D01*
X134500217Y-77270998D01*
X134493023Y-77201500D01*
X134524546Y-77139145D01*
X134543842Y-77122425D01*
X134566026Y-77106891D01*
X134729401Y-76992495D01*
X134896495Y-76825401D01*
X135032035Y-76631830D01*
X135131903Y-76417663D01*
X135193063Y-76189408D01*
X135213659Y-75954000D01*
X135193063Y-75718592D01*
X135131903Y-75490337D01*
X135032035Y-75276171D01*
X135009683Y-75244248D01*
X134896494Y-75082597D01*
X134729402Y-74915506D01*
X134729396Y-74915501D01*
X134543842Y-74785575D01*
X134500217Y-74730998D01*
X134493023Y-74661500D01*
X134524546Y-74599145D01*
X134543842Y-74582425D01*
X134566026Y-74566891D01*
X134729401Y-74452495D01*
X134896495Y-74285401D01*
X135032035Y-74091830D01*
X135131903Y-73877663D01*
X135193063Y-73649408D01*
X135213659Y-73414000D01*
X135193063Y-73178592D01*
X135131903Y-72950337D01*
X135032035Y-72736171D01*
X135009683Y-72704248D01*
X134896494Y-72542597D01*
X134729402Y-72375506D01*
X134729396Y-72375501D01*
X134543842Y-72245575D01*
X134500217Y-72190998D01*
X134493023Y-72121500D01*
X134524546Y-72059145D01*
X134543842Y-72042425D01*
X134601248Y-72002229D01*
X134729401Y-71912495D01*
X134896495Y-71745401D01*
X135032035Y-71551830D01*
X135131903Y-71337663D01*
X135193063Y-71109408D01*
X135213659Y-70874000D01*
X135193063Y-70638592D01*
X135131903Y-70410337D01*
X135032035Y-70196171D01*
X135003174Y-70154952D01*
X134896494Y-70002597D01*
X134729402Y-69835506D01*
X134729396Y-69835501D01*
X134543842Y-69705575D01*
X134500217Y-69650998D01*
X134493023Y-69581500D01*
X134524546Y-69519145D01*
X134543842Y-69502425D01*
X134608640Y-69457053D01*
X134729401Y-69372495D01*
X134896495Y-69205401D01*
X135032035Y-69011830D01*
X135131903Y-68797663D01*
X135193063Y-68569408D01*
X135213659Y-68334000D01*
X135193063Y-68098592D01*
X135131903Y-67870337D01*
X135032035Y-67656171D01*
X135031262Y-67655066D01*
X134896494Y-67462597D01*
X134729402Y-67295506D01*
X134729396Y-67295501D01*
X134543842Y-67165575D01*
X134500217Y-67110998D01*
X134493023Y-67041500D01*
X134524546Y-66979145D01*
X134543842Y-66962425D01*
X134566026Y-66946891D01*
X134729401Y-66832495D01*
X134896495Y-66665401D01*
X135032035Y-66471830D01*
X135131903Y-66257663D01*
X135193063Y-66029408D01*
X135213659Y-65794000D01*
X135193063Y-65558592D01*
X135131903Y-65330337D01*
X135032035Y-65116171D01*
X134991846Y-65058774D01*
X134896494Y-64922597D01*
X134729402Y-64755506D01*
X134729396Y-64755501D01*
X134543842Y-64625575D01*
X134500217Y-64570998D01*
X134493023Y-64501500D01*
X134524546Y-64439145D01*
X134543842Y-64422425D01*
X134627780Y-64363651D01*
X134729401Y-64292495D01*
X134896495Y-64125401D01*
X135032035Y-63931830D01*
X135131903Y-63717663D01*
X135193063Y-63489408D01*
X135213659Y-63254000D01*
X135193063Y-63018592D01*
X135131903Y-62790337D01*
X135032035Y-62576171D01*
X134980518Y-62502596D01*
X134896494Y-62382597D01*
X134729402Y-62215506D01*
X134729396Y-62215501D01*
X134543842Y-62085575D01*
X134500217Y-62030998D01*
X134493023Y-61961500D01*
X134524546Y-61899145D01*
X134543842Y-61882425D01*
X134616710Y-61831402D01*
X134729401Y-61752495D01*
X134896495Y-61585401D01*
X135032035Y-61391830D01*
X135131903Y-61177663D01*
X135193063Y-60949408D01*
X135213659Y-60714000D01*
X135193063Y-60478592D01*
X135131903Y-60250337D01*
X135032035Y-60036171D01*
X134980518Y-59962596D01*
X134896494Y-59842597D01*
X134729402Y-59675506D01*
X134729395Y-59675501D01*
X134717968Y-59667500D01*
X134652518Y-59621671D01*
X134535834Y-59539967D01*
X134535830Y-59539965D01*
X134535828Y-59539964D01*
X134321663Y-59440097D01*
X134321659Y-59440096D01*
X134321655Y-59440094D01*
X134093413Y-59378938D01*
X134093403Y-59378936D01*
X133858001Y-59358341D01*
X133857999Y-59358341D01*
X133622596Y-59378936D01*
X133622586Y-59378938D01*
X133394344Y-59440094D01*
X133394335Y-59440098D01*
X133180171Y-59539964D01*
X133180169Y-59539965D01*
X132986597Y-59675505D01*
X132819505Y-59842597D01*
X132683965Y-60036169D01*
X132683964Y-60036171D01*
X132584098Y-60250335D01*
X132584094Y-60250344D01*
X132522938Y-60478586D01*
X132522936Y-60478596D01*
X132502341Y-60713999D01*
X132502341Y-60714000D01*
X132522936Y-60949403D01*
X132522938Y-60949413D01*
X132584094Y-61177655D01*
X132584096Y-61177659D01*
X132584097Y-61177663D01*
X132674734Y-61372035D01*
X132683965Y-61391830D01*
X132683967Y-61391834D01*
X132819501Y-61585395D01*
X132819506Y-61585402D01*
X132986597Y-61752493D01*
X132986603Y-61752498D01*
X133172158Y-61882425D01*
X133215783Y-61937002D01*
X133222977Y-62006500D01*
X133191454Y-62068855D01*
X133172158Y-62085575D01*
X132986597Y-62215505D01*
X132819505Y-62382597D01*
X132683965Y-62576169D01*
X132683964Y-62576171D01*
X132584098Y-62790335D01*
X132584094Y-62790344D01*
X132522938Y-63018586D01*
X132522936Y-63018596D01*
X132502341Y-63253999D01*
X132502341Y-63254000D01*
X132522936Y-63489403D01*
X132522938Y-63489413D01*
X132584094Y-63717655D01*
X132584096Y-63717659D01*
X132584097Y-63717663D01*
X132660263Y-63881000D01*
X132683965Y-63931830D01*
X132683967Y-63931834D01*
X132819501Y-64125395D01*
X132819506Y-64125402D01*
X132986597Y-64292493D01*
X132986603Y-64292498D01*
X133172158Y-64422425D01*
X133215783Y-64477002D01*
X133222977Y-64546500D01*
X133191454Y-64608855D01*
X133172158Y-64625575D01*
X132986597Y-64755505D01*
X132819505Y-64922597D01*
X132683965Y-65116169D01*
X132683964Y-65116171D01*
X132584098Y-65330335D01*
X132584094Y-65330344D01*
X132522938Y-65558586D01*
X132522936Y-65558596D01*
X132502341Y-65793999D01*
X132502341Y-65794000D01*
X132522936Y-66029403D01*
X132522938Y-66029413D01*
X132584094Y-66257655D01*
X132584096Y-66257659D01*
X132584097Y-66257663D01*
X132672261Y-66446730D01*
X132683965Y-66471830D01*
X132683967Y-66471834D01*
X132819501Y-66665395D01*
X132819506Y-66665402D01*
X132986597Y-66832493D01*
X132986603Y-66832498D01*
X133172158Y-66962425D01*
X133215783Y-67017002D01*
X133222977Y-67086500D01*
X133191454Y-67148855D01*
X133172158Y-67165575D01*
X132986597Y-67295505D01*
X132819506Y-67462596D01*
X132736864Y-67580623D01*
X132682287Y-67624248D01*
X132635289Y-67633500D01*
X110413003Y-67633500D01*
X110304590Y-67655065D01*
X110304589Y-67655065D01*
X110277671Y-67660420D01*
X110150190Y-67713224D01*
X110035454Y-67789887D01*
X110035453Y-67789888D01*
X105680162Y-72145181D01*
X105618839Y-72178666D01*
X105592481Y-72181500D01*
X103833804Y-72181500D01*
X103766765Y-72161815D01*
X103721010Y-72109011D01*
X103711066Y-72039853D01*
X103722804Y-72002229D01*
X103773575Y-71900265D01*
X103773576Y-71900260D01*
X103773582Y-71900250D01*
X103829397Y-71704083D01*
X103848215Y-71501000D01*
X103846316Y-71480514D01*
X103859729Y-71411948D01*
X103882103Y-71381395D01*
X106871463Y-68392036D01*
X106871464Y-68392035D01*
X106970013Y-68244547D01*
X107037894Y-68080666D01*
X107040414Y-68068000D01*
X107072499Y-67906695D01*
X107072500Y-67906693D01*
X107072500Y-63253999D01*
X114722341Y-63253999D01*
X114722341Y-63254000D01*
X114742936Y-63489403D01*
X114742938Y-63489413D01*
X114804094Y-63717655D01*
X114804096Y-63717659D01*
X114804097Y-63717663D01*
X114880263Y-63881000D01*
X114903965Y-63931830D01*
X114903967Y-63931834D01*
X115039501Y-64125395D01*
X115039506Y-64125402D01*
X115206597Y-64292493D01*
X115206603Y-64292498D01*
X115392158Y-64422425D01*
X115435783Y-64477002D01*
X115442977Y-64546500D01*
X115411454Y-64608855D01*
X115392158Y-64625575D01*
X115206597Y-64755505D01*
X115039505Y-64922597D01*
X114903965Y-65116169D01*
X114903964Y-65116171D01*
X114804098Y-65330335D01*
X114804094Y-65330344D01*
X114742938Y-65558586D01*
X114742936Y-65558596D01*
X114722341Y-65793999D01*
X114722341Y-65794000D01*
X114742936Y-66029403D01*
X114742938Y-66029413D01*
X114804094Y-66257655D01*
X114804096Y-66257659D01*
X114804097Y-66257663D01*
X114892261Y-66446730D01*
X114903965Y-66471830D01*
X114903967Y-66471834D01*
X115012281Y-66626521D01*
X115039505Y-66665401D01*
X115206599Y-66832495D01*
X115303384Y-66900265D01*
X115400165Y-66968032D01*
X115400167Y-66968033D01*
X115400170Y-66968035D01*
X115614337Y-67067903D01*
X115842592Y-67129063D01*
X116030918Y-67145539D01*
X116077999Y-67149659D01*
X116078000Y-67149659D01*
X116078001Y-67149659D01*
X116117234Y-67146226D01*
X116313408Y-67129063D01*
X116541663Y-67067903D01*
X116755830Y-66968035D01*
X116949401Y-66832495D01*
X117116495Y-66665401D01*
X117252035Y-66471830D01*
X117351903Y-66257663D01*
X117413063Y-66029408D01*
X117433659Y-65794000D01*
X117413063Y-65558592D01*
X117351903Y-65330337D01*
X117252035Y-65116171D01*
X117211846Y-65058774D01*
X117116494Y-64922597D01*
X116949402Y-64755506D01*
X116949396Y-64755501D01*
X116763842Y-64625575D01*
X116720217Y-64570998D01*
X116713023Y-64501500D01*
X116744546Y-64439145D01*
X116763842Y-64422425D01*
X116847780Y-64363651D01*
X116949401Y-64292495D01*
X117116495Y-64125401D01*
X117252035Y-63931830D01*
X117351903Y-63717663D01*
X117413063Y-63489408D01*
X117433659Y-63254000D01*
X117413063Y-63018592D01*
X117351903Y-62790337D01*
X117252035Y-62576171D01*
X117200517Y-62502596D01*
X117116496Y-62382600D01*
X117116493Y-62382597D01*
X116994567Y-62260671D01*
X116961084Y-62199351D01*
X116966068Y-62129659D01*
X117007939Y-62073725D01*
X117038915Y-62056810D01*
X117170331Y-62007796D01*
X117285546Y-61921546D01*
X117371796Y-61806331D01*
X117422091Y-61671483D01*
X117428500Y-61611873D01*
X117428499Y-59816128D01*
X117422091Y-59756517D01*
X117413818Y-59734337D01*
X117371797Y-59621671D01*
X117371793Y-59621664D01*
X117285547Y-59506455D01*
X117285544Y-59506452D01*
X117170335Y-59420206D01*
X117170328Y-59420202D01*
X117035482Y-59369908D01*
X117035483Y-59369908D01*
X116975883Y-59363501D01*
X116975881Y-59363500D01*
X116975873Y-59363500D01*
X116975864Y-59363500D01*
X115180129Y-59363500D01*
X115180123Y-59363501D01*
X115120516Y-59369908D01*
X114985671Y-59420202D01*
X114985664Y-59420206D01*
X114870455Y-59506452D01*
X114870452Y-59506455D01*
X114784206Y-59621664D01*
X114784202Y-59621671D01*
X114733908Y-59756517D01*
X114727501Y-59816116D01*
X114727501Y-59816123D01*
X114727500Y-59816135D01*
X114727500Y-61611870D01*
X114727501Y-61611876D01*
X114733908Y-61671483D01*
X114784202Y-61806328D01*
X114784206Y-61806335D01*
X114870452Y-61921544D01*
X114870455Y-61921547D01*
X114985664Y-62007793D01*
X114985671Y-62007797D01*
X115117081Y-62056810D01*
X115173015Y-62098681D01*
X115197432Y-62164145D01*
X115182580Y-62232418D01*
X115161430Y-62260673D01*
X115039503Y-62382600D01*
X114903965Y-62576169D01*
X114903964Y-62576171D01*
X114804098Y-62790335D01*
X114804094Y-62790344D01*
X114742938Y-63018586D01*
X114742936Y-63018596D01*
X114722341Y-63253999D01*
X107072500Y-63253999D01*
X107072500Y-58419999D01*
X108118341Y-58419999D01*
X108118341Y-58420000D01*
X108138936Y-58655403D01*
X108138938Y-58655413D01*
X108200094Y-58883655D01*
X108200096Y-58883659D01*
X108200097Y-58883663D01*
X108265521Y-59023965D01*
X108299965Y-59097830D01*
X108299967Y-59097834D01*
X108435501Y-59291395D01*
X108435506Y-59291402D01*
X108602597Y-59458493D01*
X108602603Y-59458498D01*
X108788158Y-59588425D01*
X108831783Y-59643002D01*
X108838977Y-59712500D01*
X108807454Y-59774855D01*
X108788158Y-59791575D01*
X108602597Y-59921505D01*
X108435505Y-60088597D01*
X108299965Y-60282169D01*
X108299964Y-60282171D01*
X108200098Y-60496335D01*
X108200094Y-60496344D01*
X108138938Y-60724586D01*
X108138936Y-60724596D01*
X108118341Y-60959999D01*
X108118341Y-60960000D01*
X108138936Y-61195403D01*
X108138938Y-61195413D01*
X108200094Y-61423655D01*
X108200096Y-61423659D01*
X108200097Y-61423663D01*
X108265521Y-61563965D01*
X108299965Y-61637830D01*
X108299967Y-61637834D01*
X108380253Y-61752493D01*
X108435505Y-61831401D01*
X108602599Y-61998495D01*
X108622205Y-62012223D01*
X108796165Y-62134032D01*
X108796167Y-62134033D01*
X108796170Y-62134035D01*
X109010337Y-62233903D01*
X109238592Y-62295063D01*
X109426918Y-62311539D01*
X109473999Y-62315659D01*
X109474000Y-62315659D01*
X109474001Y-62315659D01*
X109513234Y-62312226D01*
X109709408Y-62295063D01*
X109937663Y-62233903D01*
X110151830Y-62134035D01*
X110345401Y-61998495D01*
X110512495Y-61831401D01*
X110648035Y-61637830D01*
X110747903Y-61423663D01*
X110809063Y-61195408D01*
X110829659Y-60960000D01*
X110809063Y-60724592D01*
X110747903Y-60496337D01*
X110648035Y-60282171D01*
X110637735Y-60267460D01*
X110512494Y-60088597D01*
X110345402Y-59921506D01*
X110345396Y-59921501D01*
X110159842Y-59791575D01*
X110116217Y-59736998D01*
X110109023Y-59667500D01*
X110140546Y-59605145D01*
X110159842Y-59588425D01*
X110232343Y-59537659D01*
X110345401Y-59458495D01*
X110512495Y-59291401D01*
X110595136Y-59173376D01*
X110649713Y-59129752D01*
X110696711Y-59120500D01*
X112336996Y-59120500D01*
X112450962Y-59097830D01*
X112472328Y-59093580D01*
X112565469Y-59055000D01*
X112599807Y-59040777D01*
X112599808Y-59040776D01*
X112599811Y-59040775D01*
X112714543Y-58964114D01*
X115550837Y-56127818D01*
X115612160Y-56094334D01*
X115638518Y-56091500D01*
X115798974Y-56091500D01*
X115798976Y-56091500D01*
X115999456Y-56054024D01*
X116189637Y-55980348D01*
X116363041Y-55872981D01*
X116513764Y-55735579D01*
X116636673Y-55572821D01*
X116727582Y-55390250D01*
X116783397Y-55194083D01*
X116802215Y-54991000D01*
X116801392Y-54982123D01*
X116783397Y-54787917D01*
X116763376Y-54717553D01*
X116727582Y-54591750D01*
X116724821Y-54586206D01*
X116646954Y-54429826D01*
X116636673Y-54409179D01*
X116602554Y-54363998D01*
X119802843Y-54363998D01*
X119802843Y-54364001D01*
X119823430Y-54599315D01*
X119823432Y-54599326D01*
X119884566Y-54827483D01*
X119884570Y-54827492D01*
X119984400Y-55041579D01*
X119984402Y-55041583D01*
X120043072Y-55125373D01*
X120043073Y-55125373D01*
X120675037Y-54493409D01*
X120692075Y-54556993D01*
X120757901Y-54671007D01*
X120850993Y-54764099D01*
X120965007Y-54829925D01*
X121028590Y-54846962D01*
X120396625Y-55478925D01*
X120480421Y-55537599D01*
X120694507Y-55637429D01*
X120694516Y-55637433D01*
X120922673Y-55698567D01*
X120922684Y-55698569D01*
X121157998Y-55719157D01*
X121158002Y-55719157D01*
X121393315Y-55698569D01*
X121393326Y-55698567D01*
X121621483Y-55637433D01*
X121621492Y-55637429D01*
X121835578Y-55537600D01*
X121835582Y-55537598D01*
X121919373Y-55478926D01*
X121919373Y-55478925D01*
X121287409Y-54846962D01*
X121350993Y-54829925D01*
X121465007Y-54764099D01*
X121558099Y-54671007D01*
X121623925Y-54556993D01*
X121640962Y-54493410D01*
X122272925Y-55125373D01*
X122326119Y-55049405D01*
X122380696Y-55005781D01*
X122450195Y-54998588D01*
X122512549Y-55030110D01*
X122529269Y-55049405D01*
X122659505Y-55235401D01*
X122826599Y-55402495D01*
X122899463Y-55453515D01*
X123020165Y-55538032D01*
X123020167Y-55538033D01*
X123020170Y-55538035D01*
X123234337Y-55637903D01*
X123462592Y-55699063D01*
X123645023Y-55715024D01*
X123697999Y-55719659D01*
X123698000Y-55719659D01*
X123698001Y-55719659D01*
X123750977Y-55715024D01*
X123933408Y-55699063D01*
X124161663Y-55637903D01*
X124375830Y-55538035D01*
X124569401Y-55402495D01*
X124736495Y-55235401D01*
X124866425Y-55049842D01*
X124921002Y-55006217D01*
X124990500Y-54999023D01*
X125052855Y-55030546D01*
X125069575Y-55049842D01*
X125199500Y-55235395D01*
X125199505Y-55235401D01*
X125366599Y-55402495D01*
X125439463Y-55453515D01*
X125560165Y-55538032D01*
X125560167Y-55538033D01*
X125560170Y-55538035D01*
X125774337Y-55637903D01*
X126002592Y-55699063D01*
X126185023Y-55715024D01*
X126237999Y-55719659D01*
X126238000Y-55719659D01*
X126238001Y-55719659D01*
X126290977Y-55715024D01*
X126473408Y-55699063D01*
X126701663Y-55637903D01*
X126915830Y-55538035D01*
X127109401Y-55402495D01*
X127276495Y-55235401D01*
X127406425Y-55049842D01*
X127461002Y-55006217D01*
X127530500Y-54999023D01*
X127592855Y-55030546D01*
X127609575Y-55049842D01*
X127739500Y-55235395D01*
X127739505Y-55235401D01*
X127906599Y-55402495D01*
X127979463Y-55453515D01*
X128100165Y-55538032D01*
X128100167Y-55538033D01*
X128100170Y-55538035D01*
X128314337Y-55637903D01*
X128542592Y-55699063D01*
X128725023Y-55715024D01*
X128777999Y-55719659D01*
X128778000Y-55719659D01*
X128778001Y-55719659D01*
X128830977Y-55715024D01*
X129013408Y-55699063D01*
X129241663Y-55637903D01*
X129455830Y-55538035D01*
X129649401Y-55402495D01*
X129816495Y-55235401D01*
X129952035Y-55041830D01*
X130051903Y-54827663D01*
X130113063Y-54599408D01*
X130133659Y-54364000D01*
X130132958Y-54355993D01*
X130123869Y-54252103D01*
X130113063Y-54128592D01*
X130051903Y-53900337D01*
X129952035Y-53686171D01*
X129946731Y-53678595D01*
X129816494Y-53492597D01*
X129649402Y-53325506D01*
X129649395Y-53325501D01*
X129455834Y-53189967D01*
X129455830Y-53189965D01*
X129455828Y-53189964D01*
X129241663Y-53090097D01*
X129241659Y-53090096D01*
X129241655Y-53090094D01*
X129013413Y-53028938D01*
X129013403Y-53028936D01*
X128778001Y-53008341D01*
X128777999Y-53008341D01*
X128542596Y-53028936D01*
X128542586Y-53028938D01*
X128314344Y-53090094D01*
X128314335Y-53090098D01*
X128100171Y-53189964D01*
X128100169Y-53189965D01*
X127906597Y-53325505D01*
X127739505Y-53492597D01*
X127609575Y-53678158D01*
X127554998Y-53721783D01*
X127485500Y-53728977D01*
X127423145Y-53697454D01*
X127406425Y-53678158D01*
X127276494Y-53492597D01*
X127109402Y-53325506D01*
X127109395Y-53325501D01*
X126915834Y-53189967D01*
X126915830Y-53189965D01*
X126915828Y-53189964D01*
X126701663Y-53090097D01*
X126701659Y-53090096D01*
X126701655Y-53090094D01*
X126473413Y-53028938D01*
X126473403Y-53028936D01*
X126238001Y-53008341D01*
X126237999Y-53008341D01*
X126002596Y-53028936D01*
X126002586Y-53028938D01*
X125774344Y-53090094D01*
X125774335Y-53090098D01*
X125560171Y-53189964D01*
X125560169Y-53189965D01*
X125366597Y-53325505D01*
X125199505Y-53492597D01*
X125069575Y-53678158D01*
X125014998Y-53721783D01*
X124945500Y-53728977D01*
X124883145Y-53697454D01*
X124866425Y-53678158D01*
X124736494Y-53492597D01*
X124569402Y-53325506D01*
X124569395Y-53325501D01*
X124375834Y-53189967D01*
X124375830Y-53189965D01*
X124375828Y-53189964D01*
X124161663Y-53090097D01*
X124161659Y-53090096D01*
X124161655Y-53090094D01*
X123933413Y-53028938D01*
X123933403Y-53028936D01*
X123698001Y-53008341D01*
X123697999Y-53008341D01*
X123462596Y-53028936D01*
X123462586Y-53028938D01*
X123234344Y-53090094D01*
X123234335Y-53090098D01*
X123020171Y-53189964D01*
X123020169Y-53189965D01*
X122826597Y-53325505D01*
X122659505Y-53492597D01*
X122529269Y-53678595D01*
X122474692Y-53722220D01*
X122405194Y-53729414D01*
X122342839Y-53697891D01*
X122326119Y-53678595D01*
X122272925Y-53602626D01*
X122272925Y-53602625D01*
X121640962Y-54234589D01*
X121623925Y-54171007D01*
X121558099Y-54056993D01*
X121465007Y-53963901D01*
X121350993Y-53898075D01*
X121287410Y-53881037D01*
X121919373Y-53249073D01*
X121919373Y-53249072D01*
X121835583Y-53190402D01*
X121835579Y-53190400D01*
X121621492Y-53090570D01*
X121621483Y-53090566D01*
X121393326Y-53029432D01*
X121393315Y-53029430D01*
X121158002Y-53008843D01*
X121157998Y-53008843D01*
X120922684Y-53029430D01*
X120922673Y-53029432D01*
X120694516Y-53090566D01*
X120694507Y-53090570D01*
X120480419Y-53190401D01*
X120396625Y-53249072D01*
X121028590Y-53881037D01*
X120965007Y-53898075D01*
X120850993Y-53963901D01*
X120757901Y-54056993D01*
X120692075Y-54171007D01*
X120675037Y-54234590D01*
X120043072Y-53602625D01*
X119984401Y-53686419D01*
X119884570Y-53900507D01*
X119884566Y-53900516D01*
X119823432Y-54128673D01*
X119823430Y-54128684D01*
X119802843Y-54363998D01*
X116602554Y-54363998D01*
X116552846Y-54298174D01*
X116513762Y-54246418D01*
X116363041Y-54109019D01*
X116363039Y-54109017D01*
X116189642Y-54001655D01*
X116189635Y-54001651D01*
X116089041Y-53962681D01*
X115999456Y-53927976D01*
X115798976Y-53890500D01*
X115595024Y-53890500D01*
X115394544Y-53927976D01*
X115394541Y-53927976D01*
X115394541Y-53927977D01*
X115204364Y-54001651D01*
X115204357Y-54001655D01*
X115030960Y-54109017D01*
X115030958Y-54109019D01*
X114880237Y-54246418D01*
X114757327Y-54409178D01*
X114666422Y-54591739D01*
X114666417Y-54591752D01*
X114610602Y-54787917D01*
X114591785Y-54990999D01*
X114591785Y-54991003D01*
X114596128Y-55037883D01*
X114582712Y-55106453D01*
X114560338Y-55137003D01*
X112014162Y-57683181D01*
X111952839Y-57716666D01*
X111926481Y-57719500D01*
X110696711Y-57719500D01*
X110629672Y-57699815D01*
X110595136Y-57666623D01*
X110589097Y-57657999D01*
X110512495Y-57548599D01*
X110390567Y-57426671D01*
X110357084Y-57365351D01*
X110362068Y-57295659D01*
X110403939Y-57239725D01*
X110434915Y-57222810D01*
X110566331Y-57173796D01*
X110681546Y-57087546D01*
X110767796Y-56972331D01*
X110818091Y-56837483D01*
X110824500Y-56777873D01*
X110824499Y-54982128D01*
X110818091Y-54922517D01*
X110803201Y-54882596D01*
X110767797Y-54787671D01*
X110767793Y-54787664D01*
X110681547Y-54672455D01*
X110681544Y-54672452D01*
X110566335Y-54586206D01*
X110566328Y-54586202D01*
X110431482Y-54535908D01*
X110431483Y-54535908D01*
X110371883Y-54529501D01*
X110371881Y-54529500D01*
X110371873Y-54529500D01*
X110371864Y-54529500D01*
X108576129Y-54529500D01*
X108576123Y-54529501D01*
X108516516Y-54535908D01*
X108381671Y-54586202D01*
X108381664Y-54586206D01*
X108266455Y-54672452D01*
X108266452Y-54672455D01*
X108180206Y-54787664D01*
X108180202Y-54787671D01*
X108129908Y-54922517D01*
X108126837Y-54951086D01*
X108123501Y-54982123D01*
X108123500Y-54982135D01*
X108123500Y-56777870D01*
X108123501Y-56777876D01*
X108129908Y-56837483D01*
X108180202Y-56972328D01*
X108180206Y-56972335D01*
X108266452Y-57087544D01*
X108266455Y-57087547D01*
X108381664Y-57173793D01*
X108381671Y-57173797D01*
X108513081Y-57222810D01*
X108569015Y-57264681D01*
X108593432Y-57330145D01*
X108578580Y-57398418D01*
X108557430Y-57426673D01*
X108435503Y-57548600D01*
X108299965Y-57742169D01*
X108299964Y-57742171D01*
X108200098Y-57956335D01*
X108200094Y-57956344D01*
X108138938Y-58184586D01*
X108138936Y-58184596D01*
X108118341Y-58419999D01*
X107072500Y-58419999D01*
X107072500Y-48684360D01*
X107092185Y-48617321D01*
X107108814Y-48596684D01*
X111110793Y-44594704D01*
X111172114Y-44561221D01*
X111241806Y-44566205D01*
X111297739Y-44608077D01*
X111322156Y-44673541D01*
X111316478Y-44713059D01*
X111318193Y-44713465D01*
X111316408Y-44721016D01*
X111312319Y-44759054D01*
X111310001Y-44780623D01*
X111310000Y-44780635D01*
X111310000Y-47676370D01*
X111310001Y-47676376D01*
X111316408Y-47735983D01*
X111366702Y-47870828D01*
X111366706Y-47870835D01*
X111452952Y-47986044D01*
X111452955Y-47986047D01*
X111568164Y-48072293D01*
X111568171Y-48072297D01*
X111703017Y-48122591D01*
X111703016Y-48122591D01*
X111709944Y-48123335D01*
X111762627Y-48129000D01*
X114658372Y-48128999D01*
X114717983Y-48122591D01*
X114852831Y-48072296D01*
X114968046Y-47986046D01*
X115054296Y-47870831D01*
X115104591Y-47735983D01*
X115111000Y-47676373D01*
X115110999Y-44780628D01*
X115104591Y-44721017D01*
X115104591Y-44721016D01*
X115054297Y-44586170D01*
X115047286Y-44576805D01*
X115029323Y-44552810D01*
X115004906Y-44487349D01*
X115019757Y-44419075D01*
X115029320Y-44404194D01*
X115054296Y-44370831D01*
X115104591Y-44235983D01*
X115111000Y-44176373D01*
X115110999Y-41280628D01*
X115104591Y-41221017D01*
X115054296Y-41086169D01*
X115054295Y-41086168D01*
X115054293Y-41086164D01*
X114968047Y-40970955D01*
X114968044Y-40970952D01*
X114852835Y-40884706D01*
X114852828Y-40884702D01*
X114717982Y-40834408D01*
X114717983Y-40834408D01*
X114658383Y-40828001D01*
X114658381Y-40828000D01*
X114658373Y-40828000D01*
X114658364Y-40828000D01*
X111762629Y-40828000D01*
X111762623Y-40828001D01*
X111703016Y-40834408D01*
X111568171Y-40884702D01*
X111568164Y-40884706D01*
X111452955Y-40970952D01*
X111452952Y-40970955D01*
X111366706Y-41086164D01*
X111366702Y-41086171D01*
X111316408Y-41221017D01*
X111310001Y-41280616D01*
X111310001Y-41280623D01*
X111310000Y-41280635D01*
X111310000Y-41842126D01*
X111290315Y-41909165D01*
X111254891Y-41945228D01*
X111129466Y-42029034D01*
X111129464Y-42029037D01*
X105472540Y-47685958D01*
X105472534Y-47685965D01*
X105439115Y-47735982D01*
X105439115Y-47735983D01*
X105406551Y-47784718D01*
X105373987Y-47833452D01*
X105358504Y-47870832D01*
X105306105Y-47997333D01*
X105306103Y-47997341D01*
X105271500Y-48171303D01*
X105271500Y-67393637D01*
X105251815Y-67460676D01*
X105235181Y-67481318D01*
X102141017Y-70575481D01*
X102118614Y-70593226D01*
X102076963Y-70619015D01*
X102076958Y-70619019D01*
X101926237Y-70756418D01*
X101803327Y-70919178D01*
X101712422Y-71101739D01*
X101712417Y-71101752D01*
X101656602Y-71297917D01*
X101637785Y-71500999D01*
X101637785Y-71501000D01*
X101656602Y-71704082D01*
X101712417Y-71900247D01*
X101712424Y-71900265D01*
X101763196Y-72002229D01*
X101775457Y-72071014D01*
X101748584Y-72135509D01*
X101691108Y-72175237D01*
X101652196Y-72181500D01*
X93543519Y-72181500D01*
X93476480Y-72161815D01*
X93455838Y-72145181D01*
X87225789Y-65915131D01*
X87225788Y-65915130D01*
X87111050Y-65838465D01*
X86983575Y-65785664D01*
X86983565Y-65785661D01*
X86848239Y-65758743D01*
X86848237Y-65758743D01*
X86848236Y-65758743D01*
X86190385Y-65758743D01*
X86123346Y-65739058D01*
X86077591Y-65686254D01*
X86067647Y-65617096D01*
X86096672Y-65553540D01*
X86108626Y-65541515D01*
X86140682Y-65513403D01*
X86247620Y-65419620D01*
X86450778Y-65187964D01*
X86621960Y-64931772D01*
X86724591Y-64723655D01*
X86771896Y-64672237D01*
X86835803Y-64654500D01*
X92560480Y-64654500D01*
X92627519Y-64674185D01*
X92673274Y-64726989D01*
X92677896Y-64738633D01*
X92683622Y-64755501D01*
X92692762Y-64782429D01*
X92829037Y-65058767D01*
X92829041Y-65058774D01*
X93000212Y-65314951D01*
X93000218Y-65314958D01*
X93000222Y-65314964D01*
X93092003Y-65419620D01*
X93203379Y-65546620D01*
X93283742Y-65617096D01*
X93435036Y-65749778D01*
X93435042Y-65749782D01*
X93435048Y-65749787D01*
X93691225Y-65920958D01*
X93691232Y-65920962D01*
X93967570Y-66057237D01*
X93967580Y-66057241D01*
X94259328Y-66156276D01*
X94259332Y-66156277D01*
X94259341Y-66156280D01*
X94561540Y-66216391D01*
X94869000Y-66236543D01*
X95176460Y-66216391D01*
X95478659Y-66156280D01*
X95498942Y-66149395D01*
X95770419Y-66057241D01*
X95770429Y-66057237D01*
X95822868Y-66031377D01*
X96046772Y-65920960D01*
X96302964Y-65749778D01*
X96534620Y-65546620D01*
X96737778Y-65314964D01*
X96908960Y-65058772D01*
X97045238Y-64782427D01*
X97054377Y-64755506D01*
X97144276Y-64490671D01*
X97144276Y-64490670D01*
X97144280Y-64490659D01*
X97204391Y-64188460D01*
X97224543Y-63881000D01*
X97204391Y-63573540D01*
X97144280Y-63271341D01*
X97045238Y-62979573D01*
X97045230Y-62979556D01*
X96908965Y-62703238D01*
X96908956Y-62703223D01*
X96906651Y-62699774D01*
X96737778Y-62447036D01*
X96681266Y-62382597D01*
X96534620Y-62215379D01*
X96389804Y-62088379D01*
X96302964Y-62012222D01*
X96302958Y-62012218D01*
X96302951Y-62012212D01*
X96046774Y-61841041D01*
X96046767Y-61841037D01*
X95770429Y-61704762D01*
X95770419Y-61704758D01*
X95478671Y-61605723D01*
X95478651Y-61605718D01*
X95397704Y-61589617D01*
X95335793Y-61557232D01*
X95301219Y-61496517D01*
X95304958Y-61426747D01*
X95345825Y-61370075D01*
X95397704Y-61346383D01*
X95407461Y-61344442D01*
X95478659Y-61330280D01*
X95478671Y-61330276D01*
X95770419Y-61231241D01*
X95770429Y-61231237D01*
X95843093Y-61195403D01*
X96046772Y-61094960D01*
X96248754Y-60960000D01*
X96302951Y-60923787D01*
X96302952Y-60923785D01*
X96302964Y-60923778D01*
X96534620Y-60720620D01*
X96737778Y-60488964D01*
X96744709Y-60478592D01*
X96822645Y-60361951D01*
X96908960Y-60232772D01*
X97045238Y-59956427D01*
X97057093Y-59921505D01*
X97144276Y-59664671D01*
X97144276Y-59664670D01*
X97144280Y-59664659D01*
X97204391Y-59362460D01*
X97224543Y-59055000D01*
X97204391Y-58747540D01*
X97144280Y-58445341D01*
X97045238Y-58153573D01*
X97045230Y-58153556D01*
X96908965Y-57877238D01*
X96908956Y-57877223D01*
X96906651Y-57873774D01*
X96737778Y-57621036D01*
X96674252Y-57548599D01*
X96534620Y-57389379D01*
X96353453Y-57230500D01*
X96302964Y-57186222D01*
X96302958Y-57186218D01*
X96302951Y-57186212D01*
X96046774Y-57015041D01*
X96046767Y-57015037D01*
X95770429Y-56878762D01*
X95770419Y-56878758D01*
X95478671Y-56779723D01*
X95478651Y-56779718D01*
X95176470Y-56719611D01*
X95176460Y-56719609D01*
X94869000Y-56699457D01*
X94561540Y-56719609D01*
X94561534Y-56719610D01*
X94561529Y-56719611D01*
X94259348Y-56779718D01*
X94259333Y-56779722D01*
X93967577Y-56878760D01*
X93967556Y-56878769D01*
X93691238Y-57015034D01*
X93691223Y-57015043D01*
X93435034Y-57186223D01*
X93203379Y-57389379D01*
X93000223Y-57621034D01*
X92829043Y-57877223D01*
X92829034Y-57877238D01*
X92789038Y-57958344D01*
X92741733Y-58009763D01*
X92677826Y-58027500D01*
X86835803Y-58027500D01*
X86768764Y-58007815D01*
X86724591Y-57958344D01*
X86621965Y-57750238D01*
X86621956Y-57750223D01*
X86616576Y-57742171D01*
X86450778Y-57494036D01*
X86391702Y-57426673D01*
X86247620Y-57262379D01*
X86048262Y-57087547D01*
X86015964Y-57059222D01*
X86015958Y-57059218D01*
X86015951Y-57059212D01*
X85759774Y-56888041D01*
X85759767Y-56888037D01*
X85483429Y-56751762D01*
X85483419Y-56751758D01*
X85191671Y-56652723D01*
X85191651Y-56652718D01*
X84889470Y-56592611D01*
X84889460Y-56592609D01*
X84582000Y-56572457D01*
X84274540Y-56592609D01*
X84274534Y-56592610D01*
X84274529Y-56592611D01*
X83972348Y-56652718D01*
X83972328Y-56652723D01*
X83752609Y-56727308D01*
X83682800Y-56730218D01*
X83625070Y-56697570D01*
X82830523Y-55903023D01*
X82797038Y-55841700D01*
X82802022Y-55772008D01*
X82843894Y-55716075D01*
X82909358Y-55691658D01*
X82977631Y-55706510D01*
X82991090Y-55715024D01*
X83019384Y-55735581D01*
X83213846Y-55876866D01*
X83494836Y-56031341D01*
X83494837Y-56031341D01*
X83494842Y-56031344D01*
X83494845Y-56031345D01*
X83792967Y-56149380D01*
X83792970Y-56149381D01*
X83870615Y-56169316D01*
X84103550Y-56229124D01*
X84291254Y-56252836D01*
X84421664Y-56269312D01*
X84421670Y-56269312D01*
X84421674Y-56269313D01*
X84421676Y-56269313D01*
X84742324Y-56269313D01*
X84742326Y-56269313D01*
X84742331Y-56269312D01*
X84742335Y-56269312D01*
X84810176Y-56260741D01*
X85060450Y-56229124D01*
X85371029Y-56149381D01*
X85425489Y-56127819D01*
X85669154Y-56031345D01*
X85669157Y-56031344D01*
X85669158Y-56031343D01*
X85669164Y-56031341D01*
X85950154Y-55876866D01*
X86209567Y-55688391D01*
X86443313Y-55468889D01*
X86647704Y-55221822D01*
X86819519Y-54951086D01*
X86956046Y-54660951D01*
X87055133Y-54355993D01*
X87115217Y-54041020D01*
X87116027Y-54028145D01*
X87135351Y-53721005D01*
X87135351Y-53720994D01*
X87115218Y-53400990D01*
X87115217Y-53400983D01*
X87115217Y-53400980D01*
X87055133Y-53086007D01*
X86956046Y-52781049D01*
X86819519Y-52490914D01*
X86647704Y-52220178D01*
X86625003Y-52192737D01*
X86443311Y-51973108D01*
X86209568Y-51753610D01*
X86209565Y-51753607D01*
X85950157Y-51565136D01*
X85950147Y-51565130D01*
X85669157Y-51410655D01*
X85669154Y-51410654D01*
X85371032Y-51292619D01*
X85371029Y-51292618D01*
X85060446Y-51212875D01*
X84742335Y-51172687D01*
X84742326Y-51172687D01*
X84421674Y-51172687D01*
X84421664Y-51172687D01*
X84103553Y-51212875D01*
X83792970Y-51292618D01*
X83792967Y-51292619D01*
X83494845Y-51410654D01*
X83494842Y-51410655D01*
X83213852Y-51565130D01*
X83213842Y-51565136D01*
X82954434Y-51753607D01*
X82954431Y-51753610D01*
X82720688Y-51973108D01*
X82516298Y-52220174D01*
X82344478Y-52490918D01*
X82207956Y-52781042D01*
X82207954Y-52781047D01*
X82108868Y-53086002D01*
X82048782Y-53400983D01*
X82048781Y-53400990D01*
X82028649Y-53720994D01*
X82028649Y-53721005D01*
X82048781Y-54041009D01*
X82048782Y-54041016D01*
X82065487Y-54128586D01*
X82097837Y-54298174D01*
X82108868Y-54355997D01*
X82207954Y-54660952D01*
X82207956Y-54660957D01*
X82344478Y-54951081D01*
X82344480Y-54951084D01*
X82344481Y-54951086D01*
X82407154Y-55049842D01*
X82516298Y-55221825D01*
X82597846Y-55320400D01*
X82625411Y-55384602D01*
X82613890Y-55453515D01*
X82566941Y-55505260D01*
X82499469Y-55523408D01*
X82432897Y-55502197D01*
X82414621Y-55487121D01*
X78806035Y-51878535D01*
X78806030Y-51878531D01*
X78746961Y-51839064D01*
X78746960Y-51839063D01*
X78658544Y-51779985D01*
X78658542Y-51779984D01*
X78576607Y-51746046D01*
X78576606Y-51746046D01*
X78494666Y-51712105D01*
X78494658Y-51712103D01*
X78320696Y-51677500D01*
X78320692Y-51677500D01*
X78320691Y-51677500D01*
X77304691Y-51677500D01*
X76796691Y-51677500D01*
X76246191Y-51677500D01*
X75780691Y-51677500D01*
X71047440Y-51677500D01*
X70980401Y-51657815D01*
X70934646Y-51605011D01*
X70931258Y-51596833D01*
X70889797Y-51485671D01*
X70889793Y-51485664D01*
X70803547Y-51370455D01*
X70803544Y-51370452D01*
X70688335Y-51284206D01*
X70688329Y-51284203D01*
X70577166Y-51242741D01*
X70521233Y-51200869D01*
X70496816Y-51135405D01*
X70496500Y-51126559D01*
X70496500Y-48430361D01*
X70516185Y-48363322D01*
X70532819Y-48342680D01*
X70760963Y-48114536D01*
X70760965Y-48114533D01*
X70789187Y-48072297D01*
X70859513Y-47967047D01*
X70927394Y-47803166D01*
X70939296Y-47743334D01*
X70961999Y-47629195D01*
X70962000Y-47629190D01*
X70962000Y-46964048D01*
X70981685Y-46897009D01*
X70998314Y-46876371D01*
X71061547Y-46813139D01*
X71192068Y-46626734D01*
X71288239Y-46420496D01*
X71347135Y-46200692D01*
X71366968Y-45974000D01*
X71347135Y-45747308D01*
X71288239Y-45527504D01*
X71192068Y-45321266D01*
X71061547Y-45134861D01*
X71061545Y-45134858D01*
X71052822Y-45126135D01*
X76381000Y-45126135D01*
X76381000Y-46821870D01*
X76381001Y-46821876D01*
X76387408Y-46881483D01*
X76437702Y-47016328D01*
X76437706Y-47016335D01*
X76523952Y-47131544D01*
X76523955Y-47131547D01*
X76639164Y-47217793D01*
X76639171Y-47217797D01*
X76774017Y-47268091D01*
X76774016Y-47268091D01*
X76780944Y-47268835D01*
X76833627Y-47274500D01*
X78529372Y-47274499D01*
X78588983Y-47268091D01*
X78723831Y-47217796D01*
X78839046Y-47131546D01*
X78925296Y-47016331D01*
X78975591Y-46881483D01*
X78982000Y-46821873D01*
X78981999Y-45126128D01*
X78975591Y-45066517D01*
X78970853Y-45053815D01*
X78925297Y-44931671D01*
X78925293Y-44931664D01*
X78839047Y-44816455D01*
X78839044Y-44816452D01*
X78723835Y-44730206D01*
X78723828Y-44730202D01*
X78588982Y-44679908D01*
X78588983Y-44679908D01*
X78529383Y-44673501D01*
X78529381Y-44673500D01*
X78529373Y-44673500D01*
X78529364Y-44673500D01*
X76833629Y-44673500D01*
X76833623Y-44673501D01*
X76774016Y-44679908D01*
X76639171Y-44730202D01*
X76639164Y-44730206D01*
X76523955Y-44816452D01*
X76523952Y-44816455D01*
X76437706Y-44931664D01*
X76437702Y-44931671D01*
X76387408Y-45066517D01*
X76381001Y-45126116D01*
X76381001Y-45126123D01*
X76381000Y-45126135D01*
X71052822Y-45126135D01*
X70900641Y-44973954D01*
X70714234Y-44843432D01*
X70714232Y-44843431D01*
X70507997Y-44747261D01*
X70507988Y-44747258D01*
X70288197Y-44688366D01*
X70288193Y-44688365D01*
X70288192Y-44688365D01*
X70288191Y-44688364D01*
X70288186Y-44688364D01*
X70061502Y-44668532D01*
X70061498Y-44668532D01*
X69834813Y-44688364D01*
X69834802Y-44688366D01*
X69615011Y-44747258D01*
X69615002Y-44747261D01*
X69408767Y-44843431D01*
X69408765Y-44843432D01*
X69222362Y-44973951D01*
X69199219Y-44997095D01*
X69159131Y-45037182D01*
X69097811Y-45070666D01*
X69071452Y-45073500D01*
X66904361Y-45073500D01*
X66837322Y-45053815D01*
X66816680Y-45037181D01*
X66193634Y-44414135D01*
X84855500Y-44414135D01*
X84855500Y-46009870D01*
X84855501Y-46009876D01*
X84861908Y-46069483D01*
X84912202Y-46204328D01*
X84912206Y-46204335D01*
X84998452Y-46319544D01*
X84998455Y-46319547D01*
X85113664Y-46405793D01*
X85113671Y-46405797D01*
X85248517Y-46456091D01*
X85248516Y-46456091D01*
X85255444Y-46456835D01*
X85308127Y-46462500D01*
X86903872Y-46462499D01*
X86963483Y-46456091D01*
X87098331Y-46405796D01*
X87213546Y-46319546D01*
X87299796Y-46204331D01*
X87350091Y-46069483D01*
X87356500Y-46009873D01*
X87356500Y-46009844D01*
X88920000Y-46009844D01*
X88926401Y-46069372D01*
X88926403Y-46069379D01*
X88976645Y-46204086D01*
X88976649Y-46204093D01*
X89062809Y-46319187D01*
X89062812Y-46319190D01*
X89177906Y-46405350D01*
X89177913Y-46405354D01*
X89312620Y-46455596D01*
X89312627Y-46455598D01*
X89372155Y-46461999D01*
X89372172Y-46462000D01*
X89920000Y-46462000D01*
X90420000Y-46462000D01*
X90967828Y-46462000D01*
X90967844Y-46461999D01*
X91027372Y-46455598D01*
X91027379Y-46455596D01*
X91162086Y-46405354D01*
X91162093Y-46405350D01*
X91277187Y-46319190D01*
X91277190Y-46319187D01*
X91363350Y-46204093D01*
X91363354Y-46204086D01*
X91413596Y-46069379D01*
X91413598Y-46069372D01*
X91419999Y-46009844D01*
X91420000Y-46009827D01*
X91420000Y-45462000D01*
X90420000Y-45462000D01*
X90420000Y-46462000D01*
X89920000Y-46462000D01*
X89920000Y-45462000D01*
X88920000Y-45462000D01*
X88920000Y-46009844D01*
X87356500Y-46009844D01*
X87356499Y-45165922D01*
X89820000Y-45165922D01*
X89820000Y-45258078D01*
X89843852Y-45347095D01*
X89889930Y-45426905D01*
X89955095Y-45492070D01*
X90034905Y-45538148D01*
X90123922Y-45562000D01*
X90216078Y-45562000D01*
X90305095Y-45538148D01*
X90384905Y-45492070D01*
X90450070Y-45426905D01*
X90496148Y-45347095D01*
X90520000Y-45258078D01*
X90520000Y-45165922D01*
X90496148Y-45076905D01*
X90450070Y-44997095D01*
X90414975Y-44962000D01*
X90420000Y-44962000D01*
X91420000Y-44962000D01*
X91420000Y-44414172D01*
X91419999Y-44414155D01*
X91413598Y-44354627D01*
X91413596Y-44354620D01*
X91363354Y-44219913D01*
X91363350Y-44219906D01*
X91277190Y-44104812D01*
X91277187Y-44104809D01*
X91162093Y-44018649D01*
X91162086Y-44018645D01*
X91027379Y-43968403D01*
X91027372Y-43968401D01*
X90967844Y-43962000D01*
X90420000Y-43962000D01*
X90420000Y-44962000D01*
X90414975Y-44962000D01*
X90384905Y-44931930D01*
X90305095Y-44885852D01*
X90216078Y-44862000D01*
X90123922Y-44862000D01*
X90034905Y-44885852D01*
X89955095Y-44931930D01*
X89889930Y-44997095D01*
X89843852Y-45076905D01*
X89820000Y-45165922D01*
X87356499Y-45165922D01*
X87356499Y-44414155D01*
X88920000Y-44414155D01*
X88920000Y-44962000D01*
X89920000Y-44962000D01*
X89920000Y-43962000D01*
X89372155Y-43962000D01*
X89312627Y-43968401D01*
X89312620Y-43968403D01*
X89177913Y-44018645D01*
X89177906Y-44018649D01*
X89062812Y-44104809D01*
X89062809Y-44104812D01*
X88976649Y-44219906D01*
X88976645Y-44219913D01*
X88926403Y-44354620D01*
X88926401Y-44354627D01*
X88920000Y-44414155D01*
X87356499Y-44414155D01*
X87356499Y-44414128D01*
X87350091Y-44354517D01*
X87342591Y-44334409D01*
X87299797Y-44219671D01*
X87299793Y-44219664D01*
X87213547Y-44104455D01*
X87213544Y-44104452D01*
X87098335Y-44018206D01*
X87098328Y-44018202D01*
X86963482Y-43967908D01*
X86963483Y-43967908D01*
X86903883Y-43961501D01*
X86903881Y-43961500D01*
X86903873Y-43961500D01*
X86903864Y-43961500D01*
X85308129Y-43961500D01*
X85308123Y-43961501D01*
X85248516Y-43967908D01*
X85113671Y-44018202D01*
X85113664Y-44018206D01*
X84998455Y-44104452D01*
X84998452Y-44104455D01*
X84912206Y-44219664D01*
X84912202Y-44219671D01*
X84861908Y-44354517D01*
X84855501Y-44414116D01*
X84855501Y-44414123D01*
X84855500Y-44414135D01*
X66193634Y-44414135D01*
X59726319Y-37946819D01*
X59692834Y-37885496D01*
X59690000Y-37859138D01*
X59690000Y-34746995D01*
X68846953Y-34746995D01*
X68846953Y-34747004D01*
X68867113Y-35016026D01*
X68867113Y-35016028D01*
X68927142Y-35279033D01*
X68927148Y-35279052D01*
X69025709Y-35530181D01*
X69025708Y-35530181D01*
X69160602Y-35763822D01*
X69214294Y-35831151D01*
X69214295Y-35831151D01*
X70050958Y-34994488D01*
X70075978Y-35054890D01*
X70147112Y-35161351D01*
X70237649Y-35251888D01*
X70344110Y-35323022D01*
X70404510Y-35348041D01*
X69566848Y-36185702D01*
X69749483Y-36310220D01*
X69749485Y-36310221D01*
X69992539Y-36427269D01*
X69992537Y-36427269D01*
X70250337Y-36506790D01*
X70250343Y-36506792D01*
X70517101Y-36546999D01*
X70517110Y-36547000D01*
X70786890Y-36547000D01*
X70786898Y-36546999D01*
X71053656Y-36506792D01*
X71053662Y-36506790D01*
X71311461Y-36427269D01*
X71554521Y-36310218D01*
X71737150Y-36185702D01*
X70899488Y-35348041D01*
X70959890Y-35323022D01*
X71066351Y-35251888D01*
X71156888Y-35161351D01*
X71228022Y-35054890D01*
X71253041Y-34994488D01*
X72089703Y-35831151D01*
X72089704Y-35831150D01*
X72143393Y-35763828D01*
X72143400Y-35763817D01*
X72278290Y-35530181D01*
X72376851Y-35279052D01*
X72376857Y-35279033D01*
X72436886Y-35016028D01*
X72436886Y-35016026D01*
X72457047Y-34747004D01*
X72457047Y-34746995D01*
X72436886Y-34477973D01*
X72436886Y-34477971D01*
X72376857Y-34214966D01*
X72376851Y-34214947D01*
X72278290Y-33963818D01*
X72278291Y-33963818D01*
X72143397Y-33730177D01*
X72089704Y-33662847D01*
X71253041Y-34499510D01*
X71228022Y-34439110D01*
X71156888Y-34332649D01*
X71066351Y-34242112D01*
X70959890Y-34170978D01*
X70899488Y-34145958D01*
X71646311Y-33399135D01*
X73851500Y-33399135D01*
X73851500Y-36094870D01*
X73851501Y-36094876D01*
X73857908Y-36154483D01*
X73908202Y-36289328D01*
X73908206Y-36289335D01*
X73994452Y-36404544D01*
X73994455Y-36404547D01*
X74109664Y-36490793D01*
X74109671Y-36490797D01*
X74244517Y-36541091D01*
X74244516Y-36541091D01*
X74246963Y-36541354D01*
X74304127Y-36547500D01*
X76999872Y-36547499D01*
X77059483Y-36541091D01*
X77194331Y-36490796D01*
X77309546Y-36404546D01*
X77395796Y-36289331D01*
X77446091Y-36154483D01*
X77452500Y-36094873D01*
X77452500Y-34797995D01*
X81586451Y-34797995D01*
X81586451Y-34798004D01*
X81606616Y-35067101D01*
X81666664Y-35330188D01*
X81666666Y-35330195D01*
X81745155Y-35530181D01*
X81765257Y-35581398D01*
X81900185Y-35815102D01*
X81912984Y-35831151D01*
X82068442Y-36026089D01*
X82206818Y-36154482D01*
X82266259Y-36209635D01*
X82489226Y-36361651D01*
X82732359Y-36478738D01*
X82990228Y-36558280D01*
X82990229Y-36558280D01*
X82990232Y-36558281D01*
X83257063Y-36598499D01*
X83257068Y-36598499D01*
X83257071Y-36598500D01*
X83257072Y-36598500D01*
X83526928Y-36598500D01*
X83526929Y-36598500D01*
X83526936Y-36598499D01*
X83793767Y-36558281D01*
X83793768Y-36558280D01*
X83793772Y-36558280D01*
X84051641Y-36478738D01*
X84294775Y-36361651D01*
X84517741Y-36209635D01*
X84715561Y-36026085D01*
X84883815Y-35815102D01*
X85018743Y-35581398D01*
X85117334Y-35330195D01*
X85177383Y-35067103D01*
X85192752Y-34862019D01*
X85197549Y-34798004D01*
X85197549Y-34797995D01*
X85177384Y-34528906D01*
X85177384Y-34528905D01*
X85177383Y-34528902D01*
X85177383Y-34528897D01*
X85147516Y-34398042D01*
X85151789Y-34328307D01*
X85180724Y-34282774D01*
X86013343Y-33450155D01*
X86592000Y-33450155D01*
X86592000Y-34548000D01*
X87791999Y-34548000D01*
X87766979Y-34608402D01*
X87742000Y-34733981D01*
X87742000Y-34862019D01*
X87766979Y-34987598D01*
X87791999Y-35048000D01*
X86592000Y-35048000D01*
X86592000Y-36145844D01*
X86598401Y-36205372D01*
X86598403Y-36205379D01*
X86648645Y-36340086D01*
X86648649Y-36340093D01*
X86734809Y-36455187D01*
X86734812Y-36455190D01*
X86849906Y-36541350D01*
X86849913Y-36541354D01*
X86984620Y-36591596D01*
X86984627Y-36591598D01*
X87044155Y-36597999D01*
X87044172Y-36598000D01*
X88142000Y-36598000D01*
X88142000Y-35398001D01*
X88202402Y-35423021D01*
X88327981Y-35448000D01*
X88456019Y-35448000D01*
X88581598Y-35423021D01*
X88642000Y-35398001D01*
X88642000Y-36598000D01*
X89739828Y-36598000D01*
X89739844Y-36597999D01*
X89799372Y-36591598D01*
X89799379Y-36591596D01*
X89934086Y-36541354D01*
X89934093Y-36541350D01*
X90049187Y-36455190D01*
X90049190Y-36455187D01*
X90135350Y-36340093D01*
X90135354Y-36340086D01*
X90185596Y-36205379D01*
X90185598Y-36205372D01*
X90191999Y-36145844D01*
X90192000Y-36145827D01*
X90192000Y-35048000D01*
X88992001Y-35048000D01*
X89017021Y-34987598D01*
X89042000Y-34862019D01*
X89042000Y-34733981D01*
X89017021Y-34608402D01*
X88992001Y-34548000D01*
X90192000Y-34548000D01*
X90192000Y-33450172D01*
X90191999Y-33450155D01*
X90185598Y-33390627D01*
X90185596Y-33390620D01*
X90135354Y-33255913D01*
X90135350Y-33255906D01*
X90049190Y-33140812D01*
X90049187Y-33140809D01*
X89934093Y-33054649D01*
X89934086Y-33054645D01*
X89799379Y-33004403D01*
X89799372Y-33004401D01*
X89739844Y-32998000D01*
X88642000Y-32998000D01*
X88642000Y-34197998D01*
X88581598Y-34172979D01*
X88456019Y-34148000D01*
X88327981Y-34148000D01*
X88202402Y-34172979D01*
X88142000Y-34197998D01*
X88142000Y-32998000D01*
X87044155Y-32998000D01*
X86984627Y-33004401D01*
X86984620Y-33004403D01*
X86849913Y-33054645D01*
X86849906Y-33054649D01*
X86734812Y-33140809D01*
X86734809Y-33140812D01*
X86648649Y-33255906D01*
X86648645Y-33255913D01*
X86598403Y-33390620D01*
X86598401Y-33390627D01*
X86592000Y-33450155D01*
X86013343Y-33450155D01*
X87284680Y-32178819D01*
X87346003Y-32145334D01*
X87372361Y-32142500D01*
X102953638Y-32142500D01*
X103020677Y-32162185D01*
X103041319Y-32178819D01*
X110298536Y-39436035D01*
X110423965Y-39561464D01*
X110423966Y-39561465D01*
X110571446Y-39660009D01*
X110571459Y-39660016D01*
X110694363Y-39710923D01*
X110735334Y-39727894D01*
X110777935Y-39736368D01*
X110909305Y-39762500D01*
X110909308Y-39762500D01*
X110909309Y-39762500D01*
X123273638Y-39762500D01*
X123340677Y-39782185D01*
X123361319Y-39798819D01*
X130490460Y-46927961D01*
X130490461Y-46927962D01*
X130490464Y-46927964D01*
X130548085Y-46966465D01*
X130637953Y-47026513D01*
X130709564Y-47056175D01*
X130801834Y-47094395D01*
X130975803Y-47128999D01*
X130975807Y-47129000D01*
X130975808Y-47129000D01*
X130975809Y-47129000D01*
X134086001Y-47129000D01*
X134153040Y-47148685D01*
X134198795Y-47201489D01*
X134210001Y-47253000D01*
X134210001Y-47676376D01*
X134216408Y-47735983D01*
X134266702Y-47870828D01*
X134266706Y-47870835D01*
X134352952Y-47986044D01*
X134352955Y-47986047D01*
X134468164Y-48072293D01*
X134468171Y-48072297D01*
X134603017Y-48122591D01*
X134603016Y-48122591D01*
X134609944Y-48123335D01*
X134662627Y-48129000D01*
X137558372Y-48128999D01*
X137617983Y-48122591D01*
X137752831Y-48072296D01*
X137868046Y-47986046D01*
X137954296Y-47870831D01*
X138004591Y-47735983D01*
X138011000Y-47676373D01*
X138010999Y-44780628D01*
X138004591Y-44721017D01*
X138001774Y-44713465D01*
X137954297Y-44586171D01*
X137954293Y-44586164D01*
X137868047Y-44470955D01*
X137868044Y-44470952D01*
X137752835Y-44384706D01*
X137752828Y-44384702D01*
X137617982Y-44334408D01*
X137617983Y-44334408D01*
X137558383Y-44328001D01*
X137558381Y-44328000D01*
X137558373Y-44328000D01*
X137558364Y-44328000D01*
X134662629Y-44328000D01*
X134662623Y-44328001D01*
X134603016Y-44334408D01*
X134468171Y-44384702D01*
X134468164Y-44384706D01*
X134352955Y-44470952D01*
X134352952Y-44470955D01*
X134266706Y-44586164D01*
X134266702Y-44586171D01*
X134216408Y-44721017D01*
X134212319Y-44759054D01*
X134210001Y-44780623D01*
X134210000Y-44780635D01*
X134210000Y-45204000D01*
X134190315Y-45271039D01*
X134137511Y-45316794D01*
X134086000Y-45328000D01*
X131488862Y-45328000D01*
X131421823Y-45308315D01*
X131401181Y-45291681D01*
X124272035Y-38162535D01*
X124272030Y-38162531D01*
X124212961Y-38123064D01*
X124212960Y-38123063D01*
X124124544Y-38063985D01*
X124124542Y-38063984D01*
X124042607Y-38030046D01*
X124042606Y-38030046D01*
X123960666Y-37996105D01*
X123960658Y-37996103D01*
X123786696Y-37961500D01*
X123786692Y-37961500D01*
X123786691Y-37961500D01*
X111422361Y-37961500D01*
X111355322Y-37941815D01*
X111334680Y-37925181D01*
X103952041Y-30542540D01*
X103952038Y-30542537D01*
X103872337Y-30489283D01*
X103804544Y-30443985D01*
X103804542Y-30443984D01*
X103722607Y-30410046D01*
X103722606Y-30410046D01*
X103640666Y-30376105D01*
X103640658Y-30376103D01*
X103466696Y-30341500D01*
X103466692Y-30341500D01*
X103466691Y-30341500D01*
X86859309Y-30341500D01*
X86859306Y-30341500D01*
X86685341Y-30376103D01*
X86685332Y-30376106D01*
X86521459Y-30443983D01*
X86521446Y-30443990D01*
X86373966Y-30542534D01*
X86373964Y-30542537D01*
X83911443Y-33005056D01*
X83850120Y-33038541D01*
X83798379Y-33038280D01*
X83798360Y-33038411D01*
X83797460Y-33038275D01*
X83796181Y-33038269D01*
X83793772Y-33037719D01*
X83526936Y-32997500D01*
X83526929Y-32997500D01*
X83257071Y-32997500D01*
X83257063Y-32997500D01*
X82990232Y-33037718D01*
X82990226Y-33037720D01*
X82732358Y-33117262D01*
X82489230Y-33234346D01*
X82266258Y-33386365D01*
X82068442Y-33569910D01*
X81900185Y-33780898D01*
X81765258Y-34014599D01*
X81765256Y-34014603D01*
X81666666Y-34265804D01*
X81666664Y-34265811D01*
X81606616Y-34528898D01*
X81586451Y-34797995D01*
X77452500Y-34797995D01*
X77452499Y-33399128D01*
X77446091Y-33339517D01*
X77434446Y-33308296D01*
X77395797Y-33204671D01*
X77395793Y-33204664D01*
X77309547Y-33089455D01*
X77309544Y-33089452D01*
X77194335Y-33003206D01*
X77194328Y-33003202D01*
X77059482Y-32952908D01*
X77059483Y-32952908D01*
X76999883Y-32946501D01*
X76999881Y-32946500D01*
X76999873Y-32946500D01*
X76999864Y-32946500D01*
X74304129Y-32946500D01*
X74304123Y-32946501D01*
X74244516Y-32952908D01*
X74109671Y-33003202D01*
X74109664Y-33003206D01*
X73994455Y-33089452D01*
X73994452Y-33089455D01*
X73908206Y-33204664D01*
X73908202Y-33204671D01*
X73857908Y-33339517D01*
X73852414Y-33390627D01*
X73851501Y-33399123D01*
X73851500Y-33399135D01*
X71646311Y-33399135D01*
X71737150Y-33308296D01*
X71554517Y-33183779D01*
X71554516Y-33183778D01*
X71311460Y-33066730D01*
X71311462Y-33066730D01*
X71053662Y-32987209D01*
X71053656Y-32987207D01*
X70786898Y-32947000D01*
X70517101Y-32947000D01*
X70250343Y-32987207D01*
X70250337Y-32987209D01*
X69992538Y-33066730D01*
X69749485Y-33183778D01*
X69749476Y-33183783D01*
X69566848Y-33308296D01*
X70404511Y-34145958D01*
X70344110Y-34170978D01*
X70237649Y-34242112D01*
X70147112Y-34332649D01*
X70075978Y-34439110D01*
X70050958Y-34499510D01*
X69214295Y-33662848D01*
X69160600Y-33730180D01*
X69025709Y-33963818D01*
X68927148Y-34214947D01*
X68927142Y-34214966D01*
X68867113Y-34477971D01*
X68867113Y-34477973D01*
X68846953Y-34746995D01*
X59690000Y-34746995D01*
X59690000Y-30480000D01*
X50292000Y-30480000D01*
X50292000Y-38354000D01*
X41902500Y-38354000D01*
X41902500Y-30280635D01*
X111310000Y-30280635D01*
X111310000Y-33176370D01*
X111310001Y-33176376D01*
X111316408Y-33235983D01*
X111369803Y-33379141D01*
X111368233Y-33379726D01*
X111380883Y-33437867D01*
X111369187Y-33477706D01*
X111370246Y-33478101D01*
X111316903Y-33621120D01*
X111316901Y-33621127D01*
X111310500Y-33680655D01*
X111310500Y-34878500D01*
X112480611Y-34878500D01*
X112470090Y-34903899D01*
X112440500Y-35052662D01*
X112440500Y-35204338D01*
X112470090Y-35353101D01*
X112480611Y-35378500D01*
X111310500Y-35378500D01*
X111310500Y-36576344D01*
X111316901Y-36635872D01*
X111316903Y-36635879D01*
X111367145Y-36770586D01*
X111367149Y-36770593D01*
X111453309Y-36885687D01*
X111453312Y-36885690D01*
X111568406Y-36971850D01*
X111568413Y-36971854D01*
X111703120Y-37022096D01*
X111703127Y-37022098D01*
X111762655Y-37028499D01*
X111762672Y-37028500D01*
X112960500Y-37028500D01*
X112960500Y-35858389D01*
X112985899Y-35868910D01*
X113134662Y-35898500D01*
X113286338Y-35898500D01*
X113435101Y-35868910D01*
X113460500Y-35858389D01*
X113460500Y-37028500D01*
X114658328Y-37028500D01*
X114658344Y-37028499D01*
X114717872Y-37022098D01*
X114717879Y-37022096D01*
X114852586Y-36971854D01*
X114852593Y-36971850D01*
X114967687Y-36885690D01*
X114967690Y-36885687D01*
X115053850Y-36770593D01*
X115053854Y-36770586D01*
X115104096Y-36635879D01*
X115104098Y-36635872D01*
X115110499Y-36576344D01*
X115110500Y-36576327D01*
X115110500Y-35378500D01*
X113940389Y-35378500D01*
X113950910Y-35353101D01*
X113980500Y-35204338D01*
X113980500Y-35052662D01*
X113950910Y-34903899D01*
X113940389Y-34878500D01*
X115110500Y-34878500D01*
X115110500Y-33680672D01*
X115110499Y-33680655D01*
X115104098Y-33621127D01*
X115104097Y-33621123D01*
X115050753Y-33478102D01*
X115052567Y-33477425D01*
X115040116Y-33420174D01*
X115052070Y-33379466D01*
X115051196Y-33379140D01*
X115054294Y-33370833D01*
X115054296Y-33370831D01*
X115104591Y-33235983D01*
X115111000Y-33176373D01*
X115110999Y-30580655D01*
X134210500Y-30580655D01*
X134210500Y-31778500D01*
X135380611Y-31778500D01*
X135370090Y-31803899D01*
X135340500Y-31952662D01*
X135340500Y-32104338D01*
X135370090Y-32253101D01*
X135380611Y-32278500D01*
X134210500Y-32278500D01*
X134210500Y-33476344D01*
X134216901Y-33535872D01*
X134216903Y-33535879D01*
X134267145Y-33670586D01*
X134267149Y-33670593D01*
X134353309Y-33785687D01*
X134353312Y-33785690D01*
X134468406Y-33871850D01*
X134468413Y-33871854D01*
X134603120Y-33922096D01*
X134603127Y-33922098D01*
X134662655Y-33928499D01*
X134662672Y-33928500D01*
X135860500Y-33928500D01*
X135860500Y-32758389D01*
X135885899Y-32768910D01*
X136034662Y-32798500D01*
X136186338Y-32798500D01*
X136335101Y-32768910D01*
X136360500Y-32758389D01*
X136360500Y-33928500D01*
X137558328Y-33928500D01*
X137558344Y-33928499D01*
X137617872Y-33922098D01*
X137617879Y-33922096D01*
X137752586Y-33871854D01*
X137752593Y-33871850D01*
X137867687Y-33785690D01*
X137867690Y-33785687D01*
X137953850Y-33670593D01*
X137953854Y-33670586D01*
X138004096Y-33535879D01*
X138004098Y-33535872D01*
X138010499Y-33476344D01*
X138010500Y-33476327D01*
X138010500Y-32278500D01*
X136840389Y-32278500D01*
X136850910Y-32253101D01*
X136880500Y-32104338D01*
X136880500Y-31952662D01*
X136850910Y-31803899D01*
X136840389Y-31778500D01*
X138010500Y-31778500D01*
X138010500Y-30580672D01*
X138010499Y-30580655D01*
X138004098Y-30521127D01*
X138004096Y-30521120D01*
X137953854Y-30386413D01*
X137953850Y-30386406D01*
X137867690Y-30271312D01*
X137867687Y-30271309D01*
X137752593Y-30185149D01*
X137752586Y-30185145D01*
X137617879Y-30134903D01*
X137617872Y-30134901D01*
X137558344Y-30128500D01*
X136360500Y-30128500D01*
X136360500Y-31298610D01*
X136335101Y-31288090D01*
X136186338Y-31258500D01*
X136034662Y-31258500D01*
X135885899Y-31288090D01*
X135860500Y-31298610D01*
X135860500Y-30128500D01*
X134662655Y-30128500D01*
X134603127Y-30134901D01*
X134603120Y-30134903D01*
X134468413Y-30185145D01*
X134468406Y-30185149D01*
X134353312Y-30271309D01*
X134353309Y-30271312D01*
X134267149Y-30386406D01*
X134267145Y-30386413D01*
X134216903Y-30521120D01*
X134216901Y-30521127D01*
X134210500Y-30580655D01*
X115110999Y-30580655D01*
X115110999Y-30280628D01*
X115104591Y-30221017D01*
X115070084Y-30128500D01*
X115054297Y-30086171D01*
X115054293Y-30086164D01*
X114968047Y-29970955D01*
X114968044Y-29970952D01*
X114852835Y-29884706D01*
X114852828Y-29884702D01*
X114717982Y-29834408D01*
X114717983Y-29834408D01*
X114658383Y-29828001D01*
X114658381Y-29828000D01*
X114658373Y-29828000D01*
X114658364Y-29828000D01*
X111762629Y-29828000D01*
X111762623Y-29828001D01*
X111703016Y-29834408D01*
X111568171Y-29884702D01*
X111568164Y-29884706D01*
X111452955Y-29970952D01*
X111452952Y-29970955D01*
X111366706Y-30086164D01*
X111366702Y-30086171D01*
X111316408Y-30221017D01*
X111310001Y-30280616D01*
X111310001Y-30280623D01*
X111310000Y-30280635D01*
X41902500Y-30280635D01*
X41902500Y-28310500D01*
X41922185Y-28243461D01*
X41974989Y-28197706D01*
X42026500Y-28186500D01*
X138567500Y-28186500D01*
X138634539Y-28206185D01*
G37*
%TD.AperFunction*%
%TD*%
M02*
