%TF.GenerationSoftware,KiCad,Pcbnew,8.0.5*%
%TF.CreationDate,2025-06-16T13:59:14+07:00*%
%TF.ProjectId,PCB_EKF,5043425f-454b-4462-9e6b-696361645f70,rev?*%
%TF.SameCoordinates,Original*%
%TF.FileFunction,Legend,Top*%
%TF.FilePolarity,Positive*%
%FSLAX46Y46*%
G04 Gerber Fmt 4.6, Leading zero omitted, Abs format (unit mm)*
G04 Created by KiCad (PCBNEW 8.0.5) date 2025-06-16 13:59:14*
%MOMM*%
%LPD*%
G01*
G04 APERTURE LIST*
%ADD10C,0.200000*%
%ADD11C,0.250000*%
%ADD12C,0.150000*%
%ADD13C,0.120000*%
G04 APERTURE END LIST*
D10*
X99822000Y-98044000D02*
X111760000Y-98044000D01*
X111760000Y-110744000D01*
X99822000Y-110744000D01*
X99822000Y-98044000D01*
X104902000Y-78740000D02*
X105664000Y-79756000D01*
X105664000Y-76454000D02*
X107950000Y-76454000D01*
X105537000Y-73406000D02*
X107823000Y-73406000D01*
X105664000Y-79756000D02*
X107950000Y-79756000D01*
X104902000Y-75438000D02*
X105664000Y-76454000D01*
X104775000Y-72390000D02*
X105537000Y-73406000D01*
X82665673Y-28696266D02*
X83427578Y-28696266D01*
X83046625Y-29077219D02*
X83046625Y-28315314D01*
X75299673Y-28696266D02*
X76061578Y-28696266D01*
X75680625Y-29077219D02*
X75680625Y-28315314D01*
D11*
X104431377Y-77144238D02*
X104336139Y-77096619D01*
X104336139Y-77096619D02*
X104193282Y-77096619D01*
X104193282Y-77096619D02*
X104050425Y-77144238D01*
X104050425Y-77144238D02*
X103955187Y-77239476D01*
X103955187Y-77239476D02*
X103907568Y-77334714D01*
X103907568Y-77334714D02*
X103859949Y-77525190D01*
X103859949Y-77525190D02*
X103859949Y-77668047D01*
X103859949Y-77668047D02*
X103907568Y-77858523D01*
X103907568Y-77858523D02*
X103955187Y-77953761D01*
X103955187Y-77953761D02*
X104050425Y-78049000D01*
X104050425Y-78049000D02*
X104193282Y-78096619D01*
X104193282Y-78096619D02*
X104288520Y-78096619D01*
X104288520Y-78096619D02*
X104431377Y-78049000D01*
X104431377Y-78049000D02*
X104478996Y-78001380D01*
X104478996Y-78001380D02*
X104478996Y-77668047D01*
X104478996Y-77668047D02*
X104288520Y-77668047D01*
X104907568Y-78096619D02*
X104907568Y-77096619D01*
X104907568Y-77096619D02*
X105478996Y-78096619D01*
X105478996Y-78096619D02*
X105478996Y-77096619D01*
X105955187Y-78096619D02*
X105955187Y-77096619D01*
X105955187Y-77096619D02*
X106193282Y-77096619D01*
X106193282Y-77096619D02*
X106336139Y-77144238D01*
X106336139Y-77144238D02*
X106431377Y-77239476D01*
X106431377Y-77239476D02*
X106478996Y-77334714D01*
X106478996Y-77334714D02*
X106526615Y-77525190D01*
X106526615Y-77525190D02*
X106526615Y-77668047D01*
X106526615Y-77668047D02*
X106478996Y-77858523D01*
X106478996Y-77858523D02*
X106431377Y-77953761D01*
X106431377Y-77953761D02*
X106336139Y-78049000D01*
X106336139Y-78049000D02*
X106193282Y-78096619D01*
X106193282Y-78096619D02*
X105955187Y-78096619D01*
D10*
X87999673Y-28696266D02*
X88761578Y-28696266D01*
D11*
X108574758Y-53204619D02*
X108098568Y-53204619D01*
X108098568Y-53204619D02*
X108098568Y-52204619D01*
X109050949Y-53204619D02*
X108955711Y-53157000D01*
X108955711Y-53157000D02*
X108908092Y-53109380D01*
X108908092Y-53109380D02*
X108860473Y-53014142D01*
X108860473Y-53014142D02*
X108860473Y-52728428D01*
X108860473Y-52728428D02*
X108908092Y-52633190D01*
X108908092Y-52633190D02*
X108955711Y-52585571D01*
X108955711Y-52585571D02*
X109050949Y-52537952D01*
X109050949Y-52537952D02*
X109193806Y-52537952D01*
X109193806Y-52537952D02*
X109289044Y-52585571D01*
X109289044Y-52585571D02*
X109336663Y-52633190D01*
X109336663Y-52633190D02*
X109384282Y-52728428D01*
X109384282Y-52728428D02*
X109384282Y-53014142D01*
X109384282Y-53014142D02*
X109336663Y-53109380D01*
X109336663Y-53109380D02*
X109289044Y-53157000D01*
X109289044Y-53157000D02*
X109193806Y-53204619D01*
X109193806Y-53204619D02*
X109050949Y-53204619D01*
X110241425Y-53204619D02*
X110241425Y-52680809D01*
X110241425Y-52680809D02*
X110193806Y-52585571D01*
X110193806Y-52585571D02*
X110098568Y-52537952D01*
X110098568Y-52537952D02*
X109908092Y-52537952D01*
X109908092Y-52537952D02*
X109812854Y-52585571D01*
X110241425Y-53157000D02*
X110146187Y-53204619D01*
X110146187Y-53204619D02*
X109908092Y-53204619D01*
X109908092Y-53204619D02*
X109812854Y-53157000D01*
X109812854Y-53157000D02*
X109765235Y-53061761D01*
X109765235Y-53061761D02*
X109765235Y-52966523D01*
X109765235Y-52966523D02*
X109812854Y-52871285D01*
X109812854Y-52871285D02*
X109908092Y-52823666D01*
X109908092Y-52823666D02*
X110146187Y-52823666D01*
X110146187Y-52823666D02*
X110241425Y-52776047D01*
X111146187Y-53204619D02*
X111146187Y-52204619D01*
X111146187Y-53157000D02*
X111050949Y-53204619D01*
X111050949Y-53204619D02*
X110860473Y-53204619D01*
X110860473Y-53204619D02*
X110765235Y-53157000D01*
X110765235Y-53157000D02*
X110717616Y-53109380D01*
X110717616Y-53109380D02*
X110669997Y-53014142D01*
X110669997Y-53014142D02*
X110669997Y-52728428D01*
X110669997Y-52728428D02*
X110717616Y-52633190D01*
X110717616Y-52633190D02*
X110765235Y-52585571D01*
X110765235Y-52585571D02*
X110860473Y-52537952D01*
X110860473Y-52537952D02*
X111050949Y-52537952D01*
X111050949Y-52537952D02*
X111146187Y-52585571D01*
X105971330Y-41790619D02*
X106590377Y-41790619D01*
X106590377Y-41790619D02*
X106257044Y-42171571D01*
X106257044Y-42171571D02*
X106399901Y-42171571D01*
X106399901Y-42171571D02*
X106495139Y-42219190D01*
X106495139Y-42219190D02*
X106542758Y-42266809D01*
X106542758Y-42266809D02*
X106590377Y-42362047D01*
X106590377Y-42362047D02*
X106590377Y-42600142D01*
X106590377Y-42600142D02*
X106542758Y-42695380D01*
X106542758Y-42695380D02*
X106495139Y-42743000D01*
X106495139Y-42743000D02*
X106399901Y-42790619D01*
X106399901Y-42790619D02*
X106114187Y-42790619D01*
X106114187Y-42790619D02*
X106018949Y-42743000D01*
X106018949Y-42743000D02*
X105971330Y-42695380D01*
X106876092Y-41790619D02*
X107209425Y-42790619D01*
X107209425Y-42790619D02*
X107542758Y-41790619D01*
X107780854Y-41790619D02*
X108399901Y-41790619D01*
X108399901Y-41790619D02*
X108066568Y-42171571D01*
X108066568Y-42171571D02*
X108209425Y-42171571D01*
X108209425Y-42171571D02*
X108304663Y-42219190D01*
X108304663Y-42219190D02*
X108352282Y-42266809D01*
X108352282Y-42266809D02*
X108399901Y-42362047D01*
X108399901Y-42362047D02*
X108399901Y-42600142D01*
X108399901Y-42600142D02*
X108352282Y-42695380D01*
X108352282Y-42695380D02*
X108304663Y-42743000D01*
X108304663Y-42743000D02*
X108209425Y-42790619D01*
X108209425Y-42790619D02*
X107923711Y-42790619D01*
X107923711Y-42790619D02*
X107828473Y-42743000D01*
X107828473Y-42743000D02*
X107780854Y-42695380D01*
D10*
X69965673Y-28696266D02*
X70727578Y-28696266D01*
D11*
X87079996Y-108481380D02*
X87032377Y-108529000D01*
X87032377Y-108529000D02*
X86889520Y-108576619D01*
X86889520Y-108576619D02*
X86794282Y-108576619D01*
X86794282Y-108576619D02*
X86651425Y-108529000D01*
X86651425Y-108529000D02*
X86556187Y-108433761D01*
X86556187Y-108433761D02*
X86508568Y-108338523D01*
X86508568Y-108338523D02*
X86460949Y-108148047D01*
X86460949Y-108148047D02*
X86460949Y-108005190D01*
X86460949Y-108005190D02*
X86508568Y-107814714D01*
X86508568Y-107814714D02*
X86556187Y-107719476D01*
X86556187Y-107719476D02*
X86651425Y-107624238D01*
X86651425Y-107624238D02*
X86794282Y-107576619D01*
X86794282Y-107576619D02*
X86889520Y-107576619D01*
X86889520Y-107576619D02*
X87032377Y-107624238D01*
X87032377Y-107624238D02*
X87079996Y-107671857D01*
X87508568Y-108576619D02*
X87508568Y-107576619D01*
X87937139Y-108576619D02*
X87937139Y-108052809D01*
X87937139Y-108052809D02*
X87889520Y-107957571D01*
X87889520Y-107957571D02*
X87794282Y-107909952D01*
X87794282Y-107909952D02*
X87651425Y-107909952D01*
X87651425Y-107909952D02*
X87556187Y-107957571D01*
X87556187Y-107957571D02*
X87508568Y-108005190D01*
X88841901Y-108576619D02*
X88841901Y-108052809D01*
X88841901Y-108052809D02*
X88794282Y-107957571D01*
X88794282Y-107957571D02*
X88699044Y-107909952D01*
X88699044Y-107909952D02*
X88508568Y-107909952D01*
X88508568Y-107909952D02*
X88413330Y-107957571D01*
X88841901Y-108529000D02*
X88746663Y-108576619D01*
X88746663Y-108576619D02*
X88508568Y-108576619D01*
X88508568Y-108576619D02*
X88413330Y-108529000D01*
X88413330Y-108529000D02*
X88365711Y-108433761D01*
X88365711Y-108433761D02*
X88365711Y-108338523D01*
X88365711Y-108338523D02*
X88413330Y-108243285D01*
X88413330Y-108243285D02*
X88508568Y-108195666D01*
X88508568Y-108195666D02*
X88746663Y-108195666D01*
X88746663Y-108195666D02*
X88841901Y-108148047D01*
X89318092Y-108576619D02*
X89318092Y-107909952D01*
X89318092Y-108100428D02*
X89365711Y-108005190D01*
X89365711Y-108005190D02*
X89413330Y-107957571D01*
X89413330Y-107957571D02*
X89508568Y-107909952D01*
X89508568Y-107909952D02*
X89603806Y-107909952D01*
X90365711Y-107909952D02*
X90365711Y-108719476D01*
X90365711Y-108719476D02*
X90318092Y-108814714D01*
X90318092Y-108814714D02*
X90270473Y-108862333D01*
X90270473Y-108862333D02*
X90175235Y-108909952D01*
X90175235Y-108909952D02*
X90032378Y-108909952D01*
X90032378Y-108909952D02*
X89937140Y-108862333D01*
X90365711Y-108529000D02*
X90270473Y-108576619D01*
X90270473Y-108576619D02*
X90079997Y-108576619D01*
X90079997Y-108576619D02*
X89984759Y-108529000D01*
X89984759Y-108529000D02*
X89937140Y-108481380D01*
X89937140Y-108481380D02*
X89889521Y-108386142D01*
X89889521Y-108386142D02*
X89889521Y-108100428D01*
X89889521Y-108100428D02*
X89937140Y-108005190D01*
X89937140Y-108005190D02*
X89984759Y-107957571D01*
X89984759Y-107957571D02*
X90079997Y-107909952D01*
X90079997Y-107909952D02*
X90270473Y-107909952D01*
X90270473Y-107909952D02*
X90365711Y-107957571D01*
X91222854Y-108529000D02*
X91127616Y-108576619D01*
X91127616Y-108576619D02*
X90937140Y-108576619D01*
X90937140Y-108576619D02*
X90841902Y-108529000D01*
X90841902Y-108529000D02*
X90794283Y-108433761D01*
X90794283Y-108433761D02*
X90794283Y-108052809D01*
X90794283Y-108052809D02*
X90841902Y-107957571D01*
X90841902Y-107957571D02*
X90937140Y-107909952D01*
X90937140Y-107909952D02*
X91127616Y-107909952D01*
X91127616Y-107909952D02*
X91222854Y-107957571D01*
X91222854Y-107957571D02*
X91270473Y-108052809D01*
X91270473Y-108052809D02*
X91270473Y-108148047D01*
X91270473Y-108148047D02*
X90794283Y-108243285D01*
X107907996Y-64285380D02*
X107860377Y-64333000D01*
X107860377Y-64333000D02*
X107717520Y-64380619D01*
X107717520Y-64380619D02*
X107622282Y-64380619D01*
X107622282Y-64380619D02*
X107479425Y-64333000D01*
X107479425Y-64333000D02*
X107384187Y-64237761D01*
X107384187Y-64237761D02*
X107336568Y-64142523D01*
X107336568Y-64142523D02*
X107288949Y-63952047D01*
X107288949Y-63952047D02*
X107288949Y-63809190D01*
X107288949Y-63809190D02*
X107336568Y-63618714D01*
X107336568Y-63618714D02*
X107384187Y-63523476D01*
X107384187Y-63523476D02*
X107479425Y-63428238D01*
X107479425Y-63428238D02*
X107622282Y-63380619D01*
X107622282Y-63380619D02*
X107717520Y-63380619D01*
X107717520Y-63380619D02*
X107860377Y-63428238D01*
X107860377Y-63428238D02*
X107907996Y-63475857D01*
X108336568Y-64380619D02*
X108336568Y-63380619D01*
X108765139Y-64380619D02*
X108765139Y-63856809D01*
X108765139Y-63856809D02*
X108717520Y-63761571D01*
X108717520Y-63761571D02*
X108622282Y-63713952D01*
X108622282Y-63713952D02*
X108479425Y-63713952D01*
X108479425Y-63713952D02*
X108384187Y-63761571D01*
X108384187Y-63761571D02*
X108336568Y-63809190D01*
X109669901Y-64380619D02*
X109669901Y-63856809D01*
X109669901Y-63856809D02*
X109622282Y-63761571D01*
X109622282Y-63761571D02*
X109527044Y-63713952D01*
X109527044Y-63713952D02*
X109336568Y-63713952D01*
X109336568Y-63713952D02*
X109241330Y-63761571D01*
X109669901Y-64333000D02*
X109574663Y-64380619D01*
X109574663Y-64380619D02*
X109336568Y-64380619D01*
X109336568Y-64380619D02*
X109241330Y-64333000D01*
X109241330Y-64333000D02*
X109193711Y-64237761D01*
X109193711Y-64237761D02*
X109193711Y-64142523D01*
X109193711Y-64142523D02*
X109241330Y-64047285D01*
X109241330Y-64047285D02*
X109336568Y-63999666D01*
X109336568Y-63999666D02*
X109574663Y-63999666D01*
X109574663Y-63999666D02*
X109669901Y-63952047D01*
X110146092Y-64380619D02*
X110146092Y-63713952D01*
X110146092Y-63904428D02*
X110193711Y-63809190D01*
X110193711Y-63809190D02*
X110241330Y-63761571D01*
X110241330Y-63761571D02*
X110336568Y-63713952D01*
X110336568Y-63713952D02*
X110431806Y-63713952D01*
X111193711Y-63713952D02*
X111193711Y-64523476D01*
X111193711Y-64523476D02*
X111146092Y-64618714D01*
X111146092Y-64618714D02*
X111098473Y-64666333D01*
X111098473Y-64666333D02*
X111003235Y-64713952D01*
X111003235Y-64713952D02*
X110860378Y-64713952D01*
X110860378Y-64713952D02*
X110765140Y-64666333D01*
X111193711Y-64333000D02*
X111098473Y-64380619D01*
X111098473Y-64380619D02*
X110907997Y-64380619D01*
X110907997Y-64380619D02*
X110812759Y-64333000D01*
X110812759Y-64333000D02*
X110765140Y-64285380D01*
X110765140Y-64285380D02*
X110717521Y-64190142D01*
X110717521Y-64190142D02*
X110717521Y-63904428D01*
X110717521Y-63904428D02*
X110765140Y-63809190D01*
X110765140Y-63809190D02*
X110812759Y-63761571D01*
X110812759Y-63761571D02*
X110907997Y-63713952D01*
X110907997Y-63713952D02*
X111098473Y-63713952D01*
X111098473Y-63713952D02*
X111193711Y-63761571D01*
X112050854Y-64333000D02*
X111955616Y-64380619D01*
X111955616Y-64380619D02*
X111765140Y-64380619D01*
X111765140Y-64380619D02*
X111669902Y-64333000D01*
X111669902Y-64333000D02*
X111622283Y-64237761D01*
X111622283Y-64237761D02*
X111622283Y-63856809D01*
X111622283Y-63856809D02*
X111669902Y-63761571D01*
X111669902Y-63761571D02*
X111765140Y-63713952D01*
X111765140Y-63713952D02*
X111955616Y-63713952D01*
X111955616Y-63713952D02*
X112050854Y-63761571D01*
X112050854Y-63761571D02*
X112098473Y-63856809D01*
X112098473Y-63856809D02*
X112098473Y-63952047D01*
X112098473Y-63952047D02*
X111622283Y-64047285D01*
X84333711Y-47124619D02*
X84667044Y-48124619D01*
X84667044Y-48124619D02*
X85000377Y-47124619D01*
X85667044Y-47600809D02*
X85809901Y-47648428D01*
X85809901Y-47648428D02*
X85857520Y-47696047D01*
X85857520Y-47696047D02*
X85905139Y-47791285D01*
X85905139Y-47791285D02*
X85905139Y-47934142D01*
X85905139Y-47934142D02*
X85857520Y-48029380D01*
X85857520Y-48029380D02*
X85809901Y-48077000D01*
X85809901Y-48077000D02*
X85714663Y-48124619D01*
X85714663Y-48124619D02*
X85333711Y-48124619D01*
X85333711Y-48124619D02*
X85333711Y-47124619D01*
X85333711Y-47124619D02*
X85667044Y-47124619D01*
X85667044Y-47124619D02*
X85762282Y-47172238D01*
X85762282Y-47172238D02*
X85809901Y-47219857D01*
X85809901Y-47219857D02*
X85857520Y-47315095D01*
X85857520Y-47315095D02*
X85857520Y-47410333D01*
X85857520Y-47410333D02*
X85809901Y-47505571D01*
X85809901Y-47505571D02*
X85762282Y-47553190D01*
X85762282Y-47553190D02*
X85667044Y-47600809D01*
X85667044Y-47600809D02*
X85333711Y-47600809D01*
X86762282Y-48124619D02*
X86762282Y-47600809D01*
X86762282Y-47600809D02*
X86714663Y-47505571D01*
X86714663Y-47505571D02*
X86619425Y-47457952D01*
X86619425Y-47457952D02*
X86428949Y-47457952D01*
X86428949Y-47457952D02*
X86333711Y-47505571D01*
X86762282Y-48077000D02*
X86667044Y-48124619D01*
X86667044Y-48124619D02*
X86428949Y-48124619D01*
X86428949Y-48124619D02*
X86333711Y-48077000D01*
X86333711Y-48077000D02*
X86286092Y-47981761D01*
X86286092Y-47981761D02*
X86286092Y-47886523D01*
X86286092Y-47886523D02*
X86333711Y-47791285D01*
X86333711Y-47791285D02*
X86428949Y-47743666D01*
X86428949Y-47743666D02*
X86667044Y-47743666D01*
X86667044Y-47743666D02*
X86762282Y-47696047D01*
X87095616Y-47457952D02*
X87476568Y-47457952D01*
X87238473Y-47124619D02*
X87238473Y-47981761D01*
X87238473Y-47981761D02*
X87286092Y-48077000D01*
X87286092Y-48077000D02*
X87381330Y-48124619D01*
X87381330Y-48124619D02*
X87476568Y-48124619D01*
X87667045Y-47457952D02*
X88047997Y-47457952D01*
X87809902Y-47124619D02*
X87809902Y-47981761D01*
X87809902Y-47981761D02*
X87857521Y-48077000D01*
X87857521Y-48077000D02*
X87952759Y-48124619D01*
X87952759Y-48124619D02*
X88047997Y-48124619D01*
X110815000Y-108865050D02*
X110862619Y-108722193D01*
X110862619Y-108722193D02*
X110862619Y-108484098D01*
X110862619Y-108484098D02*
X110815000Y-108388860D01*
X110815000Y-108388860D02*
X110767380Y-108341241D01*
X110767380Y-108341241D02*
X110672142Y-108293622D01*
X110672142Y-108293622D02*
X110576904Y-108293622D01*
X110576904Y-108293622D02*
X110481666Y-108341241D01*
X110481666Y-108341241D02*
X110434047Y-108388860D01*
X110434047Y-108388860D02*
X110386428Y-108484098D01*
X110386428Y-108484098D02*
X110338809Y-108674574D01*
X110338809Y-108674574D02*
X110291190Y-108769812D01*
X110291190Y-108769812D02*
X110243571Y-108817431D01*
X110243571Y-108817431D02*
X110148333Y-108865050D01*
X110148333Y-108865050D02*
X110053095Y-108865050D01*
X110053095Y-108865050D02*
X109957857Y-108817431D01*
X109957857Y-108817431D02*
X109910238Y-108769812D01*
X109910238Y-108769812D02*
X109862619Y-108674574D01*
X109862619Y-108674574D02*
X109862619Y-108436479D01*
X109862619Y-108436479D02*
X109910238Y-108293622D01*
X110862619Y-107722193D02*
X110815000Y-107817431D01*
X110815000Y-107817431D02*
X110767380Y-107865050D01*
X110767380Y-107865050D02*
X110672142Y-107912669D01*
X110672142Y-107912669D02*
X110386428Y-107912669D01*
X110386428Y-107912669D02*
X110291190Y-107865050D01*
X110291190Y-107865050D02*
X110243571Y-107817431D01*
X110243571Y-107817431D02*
X110195952Y-107722193D01*
X110195952Y-107722193D02*
X110195952Y-107579336D01*
X110195952Y-107579336D02*
X110243571Y-107484098D01*
X110243571Y-107484098D02*
X110291190Y-107436479D01*
X110291190Y-107436479D02*
X110386428Y-107388860D01*
X110386428Y-107388860D02*
X110672142Y-107388860D01*
X110672142Y-107388860D02*
X110767380Y-107436479D01*
X110767380Y-107436479D02*
X110815000Y-107484098D01*
X110815000Y-107484098D02*
X110862619Y-107579336D01*
X110862619Y-107579336D02*
X110862619Y-107722193D01*
X110767380Y-106388860D02*
X110815000Y-106436479D01*
X110815000Y-106436479D02*
X110862619Y-106579336D01*
X110862619Y-106579336D02*
X110862619Y-106674574D01*
X110862619Y-106674574D02*
X110815000Y-106817431D01*
X110815000Y-106817431D02*
X110719761Y-106912669D01*
X110719761Y-106912669D02*
X110624523Y-106960288D01*
X110624523Y-106960288D02*
X110434047Y-107007907D01*
X110434047Y-107007907D02*
X110291190Y-107007907D01*
X110291190Y-107007907D02*
X110100714Y-106960288D01*
X110100714Y-106960288D02*
X110005476Y-106912669D01*
X110005476Y-106912669D02*
X109910238Y-106817431D01*
X109910238Y-106817431D02*
X109862619Y-106674574D01*
X109862619Y-106674574D02*
X109862619Y-106579336D01*
X109862619Y-106579336D02*
X109910238Y-106436479D01*
X109910238Y-106436479D02*
X109957857Y-106388860D01*
X110862619Y-105198383D02*
X109862619Y-105198383D01*
X110195952Y-104722193D02*
X110862619Y-104722193D01*
X110291190Y-104722193D02*
X110243571Y-104674574D01*
X110243571Y-104674574D02*
X110195952Y-104579336D01*
X110195952Y-104579336D02*
X110195952Y-104436479D01*
X110195952Y-104436479D02*
X110243571Y-104341241D01*
X110243571Y-104341241D02*
X110338809Y-104293622D01*
X110338809Y-104293622D02*
X110862619Y-104293622D01*
X110862619Y-103388860D02*
X109862619Y-103388860D01*
X110815000Y-103388860D02*
X110862619Y-103484098D01*
X110862619Y-103484098D02*
X110862619Y-103674574D01*
X110862619Y-103674574D02*
X110815000Y-103769812D01*
X110815000Y-103769812D02*
X110767380Y-103817431D01*
X110767380Y-103817431D02*
X110672142Y-103865050D01*
X110672142Y-103865050D02*
X110386428Y-103865050D01*
X110386428Y-103865050D02*
X110291190Y-103817431D01*
X110291190Y-103817431D02*
X110243571Y-103769812D01*
X110243571Y-103769812D02*
X110195952Y-103674574D01*
X110195952Y-103674574D02*
X110195952Y-103484098D01*
X110195952Y-103484098D02*
X110243571Y-103388860D01*
X110862619Y-102912669D02*
X110195952Y-102912669D01*
X109862619Y-102912669D02*
X109910238Y-102960288D01*
X109910238Y-102960288D02*
X109957857Y-102912669D01*
X109957857Y-102912669D02*
X109910238Y-102865050D01*
X109910238Y-102865050D02*
X109862619Y-102912669D01*
X109862619Y-102912669D02*
X109957857Y-102912669D01*
X110815000Y-102007908D02*
X110862619Y-102103146D01*
X110862619Y-102103146D02*
X110862619Y-102293622D01*
X110862619Y-102293622D02*
X110815000Y-102388860D01*
X110815000Y-102388860D02*
X110767380Y-102436479D01*
X110767380Y-102436479D02*
X110672142Y-102484098D01*
X110672142Y-102484098D02*
X110386428Y-102484098D01*
X110386428Y-102484098D02*
X110291190Y-102436479D01*
X110291190Y-102436479D02*
X110243571Y-102388860D01*
X110243571Y-102388860D02*
X110195952Y-102293622D01*
X110195952Y-102293622D02*
X110195952Y-102103146D01*
X110195952Y-102103146D02*
X110243571Y-102007908D01*
X110862619Y-101150765D02*
X110338809Y-101150765D01*
X110338809Y-101150765D02*
X110243571Y-101198384D01*
X110243571Y-101198384D02*
X110195952Y-101293622D01*
X110195952Y-101293622D02*
X110195952Y-101484098D01*
X110195952Y-101484098D02*
X110243571Y-101579336D01*
X110815000Y-101150765D02*
X110862619Y-101246003D01*
X110862619Y-101246003D02*
X110862619Y-101484098D01*
X110862619Y-101484098D02*
X110815000Y-101579336D01*
X110815000Y-101579336D02*
X110719761Y-101626955D01*
X110719761Y-101626955D02*
X110624523Y-101626955D01*
X110624523Y-101626955D02*
X110529285Y-101579336D01*
X110529285Y-101579336D02*
X110481666Y-101484098D01*
X110481666Y-101484098D02*
X110481666Y-101246003D01*
X110481666Y-101246003D02*
X110434047Y-101150765D01*
X110195952Y-100817431D02*
X110195952Y-100436479D01*
X109862619Y-100674574D02*
X110719761Y-100674574D01*
X110719761Y-100674574D02*
X110815000Y-100626955D01*
X110815000Y-100626955D02*
X110862619Y-100531717D01*
X110862619Y-100531717D02*
X110862619Y-100436479D01*
X110862619Y-99960288D02*
X110815000Y-100055526D01*
X110815000Y-100055526D02*
X110767380Y-100103145D01*
X110767380Y-100103145D02*
X110672142Y-100150764D01*
X110672142Y-100150764D02*
X110386428Y-100150764D01*
X110386428Y-100150764D02*
X110291190Y-100103145D01*
X110291190Y-100103145D02*
X110243571Y-100055526D01*
X110243571Y-100055526D02*
X110195952Y-99960288D01*
X110195952Y-99960288D02*
X110195952Y-99817431D01*
X110195952Y-99817431D02*
X110243571Y-99722193D01*
X110243571Y-99722193D02*
X110291190Y-99674574D01*
X110291190Y-99674574D02*
X110386428Y-99626955D01*
X110386428Y-99626955D02*
X110672142Y-99626955D01*
X110672142Y-99626955D02*
X110767380Y-99674574D01*
X110767380Y-99674574D02*
X110815000Y-99722193D01*
X110815000Y-99722193D02*
X110862619Y-99817431D01*
X110862619Y-99817431D02*
X110862619Y-99960288D01*
X110862619Y-99198383D02*
X110195952Y-99198383D01*
X110386428Y-99198383D02*
X110291190Y-99150764D01*
X110291190Y-99150764D02*
X110243571Y-99103145D01*
X110243571Y-99103145D02*
X110195952Y-99007907D01*
X110195952Y-99007907D02*
X110195952Y-98912669D01*
X79636619Y-49778288D02*
X80636619Y-49444955D01*
X80636619Y-49444955D02*
X79636619Y-49111622D01*
X80589000Y-48825907D02*
X80636619Y-48730669D01*
X80636619Y-48730669D02*
X80636619Y-48540193D01*
X80636619Y-48540193D02*
X80589000Y-48444955D01*
X80589000Y-48444955D02*
X80493761Y-48397336D01*
X80493761Y-48397336D02*
X80446142Y-48397336D01*
X80446142Y-48397336D02*
X80350904Y-48444955D01*
X80350904Y-48444955D02*
X80303285Y-48540193D01*
X80303285Y-48540193D02*
X80303285Y-48683050D01*
X80303285Y-48683050D02*
X80255666Y-48778288D01*
X80255666Y-48778288D02*
X80160428Y-48825907D01*
X80160428Y-48825907D02*
X80112809Y-48825907D01*
X80112809Y-48825907D02*
X80017571Y-48778288D01*
X80017571Y-48778288D02*
X79969952Y-48683050D01*
X79969952Y-48683050D02*
X79969952Y-48540193D01*
X79969952Y-48540193D02*
X80017571Y-48444955D01*
X80589000Y-47587812D02*
X80636619Y-47683050D01*
X80636619Y-47683050D02*
X80636619Y-47873526D01*
X80636619Y-47873526D02*
X80589000Y-47968764D01*
X80589000Y-47968764D02*
X80493761Y-48016383D01*
X80493761Y-48016383D02*
X80112809Y-48016383D01*
X80112809Y-48016383D02*
X80017571Y-47968764D01*
X80017571Y-47968764D02*
X79969952Y-47873526D01*
X79969952Y-47873526D02*
X79969952Y-47683050D01*
X79969952Y-47683050D02*
X80017571Y-47587812D01*
X80017571Y-47587812D02*
X80112809Y-47540193D01*
X80112809Y-47540193D02*
X80208047Y-47540193D01*
X80208047Y-47540193D02*
X80303285Y-48016383D01*
X79969952Y-47111621D02*
X80636619Y-47111621D01*
X80065190Y-47111621D02*
X80017571Y-47064002D01*
X80017571Y-47064002D02*
X79969952Y-46968764D01*
X79969952Y-46968764D02*
X79969952Y-46825907D01*
X79969952Y-46825907D02*
X80017571Y-46730669D01*
X80017571Y-46730669D02*
X80112809Y-46683050D01*
X80112809Y-46683050D02*
X80636619Y-46683050D01*
X80589000Y-46254478D02*
X80636619Y-46159240D01*
X80636619Y-46159240D02*
X80636619Y-45968764D01*
X80636619Y-45968764D02*
X80589000Y-45873526D01*
X80589000Y-45873526D02*
X80493761Y-45825907D01*
X80493761Y-45825907D02*
X80446142Y-45825907D01*
X80446142Y-45825907D02*
X80350904Y-45873526D01*
X80350904Y-45873526D02*
X80303285Y-45968764D01*
X80303285Y-45968764D02*
X80303285Y-46111621D01*
X80303285Y-46111621D02*
X80255666Y-46206859D01*
X80255666Y-46206859D02*
X80160428Y-46254478D01*
X80160428Y-46254478D02*
X80112809Y-46254478D01*
X80112809Y-46254478D02*
X80017571Y-46206859D01*
X80017571Y-46206859D02*
X79969952Y-46111621D01*
X79969952Y-46111621D02*
X79969952Y-45968764D01*
X79969952Y-45968764D02*
X80017571Y-45873526D01*
X80589000Y-45016383D02*
X80636619Y-45111621D01*
X80636619Y-45111621D02*
X80636619Y-45302097D01*
X80636619Y-45302097D02*
X80589000Y-45397335D01*
X80589000Y-45397335D02*
X80493761Y-45444954D01*
X80493761Y-45444954D02*
X80112809Y-45444954D01*
X80112809Y-45444954D02*
X80017571Y-45397335D01*
X80017571Y-45397335D02*
X79969952Y-45302097D01*
X79969952Y-45302097D02*
X79969952Y-45111621D01*
X79969952Y-45111621D02*
X80017571Y-45016383D01*
X80017571Y-45016383D02*
X80112809Y-44968764D01*
X80112809Y-44968764D02*
X80208047Y-44968764D01*
X80208047Y-44968764D02*
X80303285Y-45444954D01*
X80112809Y-43778287D02*
X80112809Y-43444954D01*
X80636619Y-43302097D02*
X80636619Y-43778287D01*
X80636619Y-43778287D02*
X79636619Y-43778287D01*
X79636619Y-43778287D02*
X79636619Y-43302097D01*
X80636619Y-42873525D02*
X79636619Y-42873525D01*
X79636619Y-42873525D02*
X80636619Y-42302097D01*
X80636619Y-42302097D02*
X79636619Y-42302097D01*
X74305241Y-41029380D02*
X74781431Y-41029380D01*
X74781431Y-41029380D02*
X74781431Y-42029380D01*
X73829050Y-41029380D02*
X73924288Y-41077000D01*
X73924288Y-41077000D02*
X73971907Y-41124619D01*
X73971907Y-41124619D02*
X74019526Y-41219857D01*
X74019526Y-41219857D02*
X74019526Y-41505571D01*
X74019526Y-41505571D02*
X73971907Y-41600809D01*
X73971907Y-41600809D02*
X73924288Y-41648428D01*
X73924288Y-41648428D02*
X73829050Y-41696047D01*
X73829050Y-41696047D02*
X73686193Y-41696047D01*
X73686193Y-41696047D02*
X73590955Y-41648428D01*
X73590955Y-41648428D02*
X73543336Y-41600809D01*
X73543336Y-41600809D02*
X73495717Y-41505571D01*
X73495717Y-41505571D02*
X73495717Y-41219857D01*
X73495717Y-41219857D02*
X73543336Y-41124619D01*
X73543336Y-41124619D02*
X73590955Y-41077000D01*
X73590955Y-41077000D02*
X73686193Y-41029380D01*
X73686193Y-41029380D02*
X73829050Y-41029380D01*
X72638574Y-41029380D02*
X72638574Y-41553190D01*
X72638574Y-41553190D02*
X72686193Y-41648428D01*
X72686193Y-41648428D02*
X72781431Y-41696047D01*
X72781431Y-41696047D02*
X72971907Y-41696047D01*
X72971907Y-41696047D02*
X73067145Y-41648428D01*
X72638574Y-41077000D02*
X72733812Y-41029380D01*
X72733812Y-41029380D02*
X72971907Y-41029380D01*
X72971907Y-41029380D02*
X73067145Y-41077000D01*
X73067145Y-41077000D02*
X73114764Y-41172238D01*
X73114764Y-41172238D02*
X73114764Y-41267476D01*
X73114764Y-41267476D02*
X73067145Y-41362714D01*
X73067145Y-41362714D02*
X72971907Y-41410333D01*
X72971907Y-41410333D02*
X72733812Y-41410333D01*
X72733812Y-41410333D02*
X72638574Y-41457952D01*
X71733812Y-41029380D02*
X71733812Y-42029380D01*
X71733812Y-41077000D02*
X71829050Y-41029380D01*
X71829050Y-41029380D02*
X72019526Y-41029380D01*
X72019526Y-41029380D02*
X72114764Y-41077000D01*
X72114764Y-41077000D02*
X72162383Y-41124619D01*
X72162383Y-41124619D02*
X72210002Y-41219857D01*
X72210002Y-41219857D02*
X72210002Y-41505571D01*
X72210002Y-41505571D02*
X72162383Y-41600809D01*
X72162383Y-41600809D02*
X72114764Y-41648428D01*
X72114764Y-41648428D02*
X72019526Y-41696047D01*
X72019526Y-41696047D02*
X71829050Y-41696047D01*
X71829050Y-41696047D02*
X71733812Y-41648428D01*
X104018711Y-70746619D02*
X104590139Y-70746619D01*
X104304425Y-71746619D02*
X104304425Y-70746619D01*
X104828235Y-71746619D02*
X105352044Y-71079952D01*
X104828235Y-71079952D02*
X105352044Y-71746619D01*
X85735241Y-42029380D02*
X86211431Y-42029380D01*
X86211431Y-42029380D02*
X86259050Y-41553190D01*
X86259050Y-41553190D02*
X86211431Y-41600809D01*
X86211431Y-41600809D02*
X86116193Y-41648428D01*
X86116193Y-41648428D02*
X85878098Y-41648428D01*
X85878098Y-41648428D02*
X85782860Y-41600809D01*
X85782860Y-41600809D02*
X85735241Y-41553190D01*
X85735241Y-41553190D02*
X85687622Y-41457952D01*
X85687622Y-41457952D02*
X85687622Y-41219857D01*
X85687622Y-41219857D02*
X85735241Y-41124619D01*
X85735241Y-41124619D02*
X85782860Y-41077000D01*
X85782860Y-41077000D02*
X85878098Y-41029380D01*
X85878098Y-41029380D02*
X86116193Y-41029380D01*
X86116193Y-41029380D02*
X86211431Y-41077000D01*
X86211431Y-41077000D02*
X86259050Y-41124619D01*
X85401907Y-42029380D02*
X85068574Y-41029380D01*
X85068574Y-41029380D02*
X84735241Y-42029380D01*
X89572377Y-47172238D02*
X89477139Y-47124619D01*
X89477139Y-47124619D02*
X89334282Y-47124619D01*
X89334282Y-47124619D02*
X89191425Y-47172238D01*
X89191425Y-47172238D02*
X89096187Y-47267476D01*
X89096187Y-47267476D02*
X89048568Y-47362714D01*
X89048568Y-47362714D02*
X89000949Y-47553190D01*
X89000949Y-47553190D02*
X89000949Y-47696047D01*
X89000949Y-47696047D02*
X89048568Y-47886523D01*
X89048568Y-47886523D02*
X89096187Y-47981761D01*
X89096187Y-47981761D02*
X89191425Y-48077000D01*
X89191425Y-48077000D02*
X89334282Y-48124619D01*
X89334282Y-48124619D02*
X89429520Y-48124619D01*
X89429520Y-48124619D02*
X89572377Y-48077000D01*
X89572377Y-48077000D02*
X89619996Y-48029380D01*
X89619996Y-48029380D02*
X89619996Y-47696047D01*
X89619996Y-47696047D02*
X89429520Y-47696047D01*
X90048568Y-48124619D02*
X90048568Y-47124619D01*
X90048568Y-47124619D02*
X90619996Y-48124619D01*
X90619996Y-48124619D02*
X90619996Y-47124619D01*
X91096187Y-48124619D02*
X91096187Y-47124619D01*
X91096187Y-47124619D02*
X91334282Y-47124619D01*
X91334282Y-47124619D02*
X91477139Y-47172238D01*
X91477139Y-47172238D02*
X91572377Y-47267476D01*
X91572377Y-47267476D02*
X91619996Y-47362714D01*
X91619996Y-47362714D02*
X91667615Y-47553190D01*
X91667615Y-47553190D02*
X91667615Y-47696047D01*
X91667615Y-47696047D02*
X91619996Y-47886523D01*
X91619996Y-47886523D02*
X91572377Y-47981761D01*
X91572377Y-47981761D02*
X91477139Y-48077000D01*
X91477139Y-48077000D02*
X91334282Y-48124619D01*
X91334282Y-48124619D02*
X91096187Y-48124619D01*
X104732996Y-74794619D02*
X104399663Y-74318428D01*
X104161568Y-74794619D02*
X104161568Y-73794619D01*
X104161568Y-73794619D02*
X104542520Y-73794619D01*
X104542520Y-73794619D02*
X104637758Y-73842238D01*
X104637758Y-73842238D02*
X104685377Y-73889857D01*
X104685377Y-73889857D02*
X104732996Y-73985095D01*
X104732996Y-73985095D02*
X104732996Y-74127952D01*
X104732996Y-74127952D02*
X104685377Y-74223190D01*
X104685377Y-74223190D02*
X104637758Y-74270809D01*
X104637758Y-74270809D02*
X104542520Y-74318428D01*
X104542520Y-74318428D02*
X104161568Y-74318428D01*
X105066330Y-74794619D02*
X105590139Y-74127952D01*
X105066330Y-74127952D02*
X105590139Y-74794619D01*
X69204758Y-108576619D02*
X68728568Y-108576619D01*
X68728568Y-108576619D02*
X68728568Y-107576619D01*
X69680949Y-108576619D02*
X69585711Y-108529000D01*
X69585711Y-108529000D02*
X69538092Y-108481380D01*
X69538092Y-108481380D02*
X69490473Y-108386142D01*
X69490473Y-108386142D02*
X69490473Y-108100428D01*
X69490473Y-108100428D02*
X69538092Y-108005190D01*
X69538092Y-108005190D02*
X69585711Y-107957571D01*
X69585711Y-107957571D02*
X69680949Y-107909952D01*
X69680949Y-107909952D02*
X69823806Y-107909952D01*
X69823806Y-107909952D02*
X69919044Y-107957571D01*
X69919044Y-107957571D02*
X69966663Y-108005190D01*
X69966663Y-108005190D02*
X70014282Y-108100428D01*
X70014282Y-108100428D02*
X70014282Y-108386142D01*
X70014282Y-108386142D02*
X69966663Y-108481380D01*
X69966663Y-108481380D02*
X69919044Y-108529000D01*
X69919044Y-108529000D02*
X69823806Y-108576619D01*
X69823806Y-108576619D02*
X69680949Y-108576619D01*
X70871425Y-108576619D02*
X70871425Y-108052809D01*
X70871425Y-108052809D02*
X70823806Y-107957571D01*
X70823806Y-107957571D02*
X70728568Y-107909952D01*
X70728568Y-107909952D02*
X70538092Y-107909952D01*
X70538092Y-107909952D02*
X70442854Y-107957571D01*
X70871425Y-108529000D02*
X70776187Y-108576619D01*
X70776187Y-108576619D02*
X70538092Y-108576619D01*
X70538092Y-108576619D02*
X70442854Y-108529000D01*
X70442854Y-108529000D02*
X70395235Y-108433761D01*
X70395235Y-108433761D02*
X70395235Y-108338523D01*
X70395235Y-108338523D02*
X70442854Y-108243285D01*
X70442854Y-108243285D02*
X70538092Y-108195666D01*
X70538092Y-108195666D02*
X70776187Y-108195666D01*
X70776187Y-108195666D02*
X70871425Y-108148047D01*
X71776187Y-108576619D02*
X71776187Y-107576619D01*
X71776187Y-108529000D02*
X71680949Y-108576619D01*
X71680949Y-108576619D02*
X71490473Y-108576619D01*
X71490473Y-108576619D02*
X71395235Y-108529000D01*
X71395235Y-108529000D02*
X71347616Y-108481380D01*
X71347616Y-108481380D02*
X71299997Y-108386142D01*
X71299997Y-108386142D02*
X71299997Y-108100428D01*
X71299997Y-108100428D02*
X71347616Y-108005190D01*
X71347616Y-108005190D02*
X71395235Y-107957571D01*
X71395235Y-107957571D02*
X71490473Y-107909952D01*
X71490473Y-107909952D02*
X71680949Y-107909952D01*
X71680949Y-107909952D02*
X71776187Y-107957571D01*
X100949238Y-52340865D02*
X101282571Y-52340865D01*
X101425428Y-52864675D02*
X100949238Y-52864675D01*
X100949238Y-52864675D02*
X100949238Y-51864675D01*
X100949238Y-51864675D02*
X101425428Y-51864675D01*
X101758762Y-52864675D02*
X102282571Y-52198008D01*
X101758762Y-52198008D02*
X102282571Y-52864675D01*
X102520667Y-52198008D02*
X102901619Y-52198008D01*
X102663524Y-51864675D02*
X102663524Y-52721817D01*
X102663524Y-52721817D02*
X102711143Y-52817056D01*
X102711143Y-52817056D02*
X102806381Y-52864675D01*
X102806381Y-52864675D02*
X102901619Y-52864675D01*
X99925428Y-54427000D02*
X100068285Y-54474619D01*
X100068285Y-54474619D02*
X100306380Y-54474619D01*
X100306380Y-54474619D02*
X100401618Y-54427000D01*
X100401618Y-54427000D02*
X100449237Y-54379380D01*
X100449237Y-54379380D02*
X100496856Y-54284142D01*
X100496856Y-54284142D02*
X100496856Y-54188904D01*
X100496856Y-54188904D02*
X100449237Y-54093666D01*
X100449237Y-54093666D02*
X100401618Y-54046047D01*
X100401618Y-54046047D02*
X100306380Y-53998428D01*
X100306380Y-53998428D02*
X100115904Y-53950809D01*
X100115904Y-53950809D02*
X100020666Y-53903190D01*
X100020666Y-53903190D02*
X99973047Y-53855571D01*
X99973047Y-53855571D02*
X99925428Y-53760333D01*
X99925428Y-53760333D02*
X99925428Y-53665095D01*
X99925428Y-53665095D02*
X99973047Y-53569857D01*
X99973047Y-53569857D02*
X100020666Y-53522238D01*
X100020666Y-53522238D02*
X100115904Y-53474619D01*
X100115904Y-53474619D02*
X100353999Y-53474619D01*
X100353999Y-53474619D02*
X100496856Y-53522238D01*
X100925428Y-54474619D02*
X100925428Y-53474619D01*
X101353999Y-54474619D02*
X101353999Y-53950809D01*
X101353999Y-53950809D02*
X101306380Y-53855571D01*
X101306380Y-53855571D02*
X101211142Y-53807952D01*
X101211142Y-53807952D02*
X101068285Y-53807952D01*
X101068285Y-53807952D02*
X100973047Y-53855571D01*
X100973047Y-53855571D02*
X100925428Y-53903190D01*
X102258761Y-53807952D02*
X102258761Y-54474619D01*
X101830190Y-53807952D02*
X101830190Y-54331761D01*
X101830190Y-54331761D02*
X101877809Y-54427000D01*
X101877809Y-54427000D02*
X101973047Y-54474619D01*
X101973047Y-54474619D02*
X102115904Y-54474619D01*
X102115904Y-54474619D02*
X102211142Y-54427000D01*
X102211142Y-54427000D02*
X102258761Y-54379380D01*
X102734952Y-53807952D02*
X102734952Y-54474619D01*
X102734952Y-53903190D02*
X102782571Y-53855571D01*
X102782571Y-53855571D02*
X102877809Y-53807952D01*
X102877809Y-53807952D02*
X103020666Y-53807952D01*
X103020666Y-53807952D02*
X103115904Y-53855571D01*
X103115904Y-53855571D02*
X103163523Y-53950809D01*
X103163523Y-53950809D02*
X103163523Y-54474619D01*
X103496857Y-53807952D02*
X103877809Y-53807952D01*
X103639714Y-53474619D02*
X103639714Y-54331761D01*
X103639714Y-54331761D02*
X103687333Y-54427000D01*
X103687333Y-54427000D02*
X103782571Y-54474619D01*
X103782571Y-54474619D02*
X103877809Y-54474619D01*
D12*
X76120666Y-38062819D02*
X76120666Y-38777104D01*
X76120666Y-38777104D02*
X76073047Y-38919961D01*
X76073047Y-38919961D02*
X75977809Y-39015200D01*
X75977809Y-39015200D02*
X75834952Y-39062819D01*
X75834952Y-39062819D02*
X75739714Y-39062819D01*
X77120666Y-39062819D02*
X76549238Y-39062819D01*
X76834952Y-39062819D02*
X76834952Y-38062819D01*
X76834952Y-38062819D02*
X76739714Y-38205676D01*
X76739714Y-38205676D02*
X76644476Y-38300914D01*
X76644476Y-38300914D02*
X76549238Y-38348533D01*
X85321819Y-85046094D02*
X84321819Y-85046094D01*
X85321819Y-84474666D02*
X84750390Y-84903237D01*
X84321819Y-84474666D02*
X84893247Y-85046094D01*
X85321819Y-83522285D02*
X85321819Y-84093713D01*
X85321819Y-83807999D02*
X84321819Y-83807999D01*
X84321819Y-83807999D02*
X84464676Y-83903237D01*
X84464676Y-83903237D02*
X84559914Y-83998475D01*
X84559914Y-83998475D02*
X84607533Y-84093713D01*
X79294557Y-105251238D02*
X79246938Y-105346476D01*
X79246938Y-105346476D02*
X79151700Y-105441714D01*
X79151700Y-105441714D02*
X79008842Y-105584571D01*
X79008842Y-105584571D02*
X78961223Y-105679809D01*
X78961223Y-105679809D02*
X78961223Y-105775047D01*
X79199319Y-105727428D02*
X79151700Y-105822666D01*
X79151700Y-105822666D02*
X79056461Y-105917904D01*
X79056461Y-105917904D02*
X78865985Y-105965523D01*
X78865985Y-105965523D02*
X78532652Y-105965523D01*
X78532652Y-105965523D02*
X78342176Y-105917904D01*
X78342176Y-105917904D02*
X78246938Y-105822666D01*
X78246938Y-105822666D02*
X78199319Y-105727428D01*
X78199319Y-105727428D02*
X78199319Y-105536952D01*
X78199319Y-105536952D02*
X78246938Y-105441714D01*
X78246938Y-105441714D02*
X78342176Y-105346476D01*
X78342176Y-105346476D02*
X78532652Y-105298857D01*
X78532652Y-105298857D02*
X78865985Y-105298857D01*
X78865985Y-105298857D02*
X79056461Y-105346476D01*
X79056461Y-105346476D02*
X79151700Y-105441714D01*
X79151700Y-105441714D02*
X79199319Y-105536952D01*
X79199319Y-105536952D02*
X79199319Y-105727428D01*
X79199319Y-104346476D02*
X79199319Y-104917904D01*
X79199319Y-104632190D02*
X78199319Y-104632190D01*
X78199319Y-104632190D02*
X78342176Y-104727428D01*
X78342176Y-104727428D02*
X78437414Y-104822666D01*
X78437414Y-104822666D02*
X78485033Y-104917904D01*
X66510819Y-60197904D02*
X67320342Y-60197904D01*
X67320342Y-60197904D02*
X67415580Y-60150285D01*
X67415580Y-60150285D02*
X67463200Y-60102666D01*
X67463200Y-60102666D02*
X67510819Y-60007428D01*
X67510819Y-60007428D02*
X67510819Y-59816952D01*
X67510819Y-59816952D02*
X67463200Y-59721714D01*
X67463200Y-59721714D02*
X67415580Y-59674095D01*
X67415580Y-59674095D02*
X67320342Y-59626476D01*
X67320342Y-59626476D02*
X66510819Y-59626476D01*
X67510819Y-58626476D02*
X67510819Y-59197904D01*
X67510819Y-58912190D02*
X66510819Y-58912190D01*
X66510819Y-58912190D02*
X66653676Y-59007428D01*
X66653676Y-59007428D02*
X66748914Y-59102666D01*
X66748914Y-59102666D02*
X66796533Y-59197904D01*
X80136819Y-102084094D02*
X79136819Y-102084094D01*
X79136819Y-102084094D02*
X79136819Y-101845999D01*
X79136819Y-101845999D02*
X79184438Y-101703142D01*
X79184438Y-101703142D02*
X79279676Y-101607904D01*
X79279676Y-101607904D02*
X79374914Y-101560285D01*
X79374914Y-101560285D02*
X79565390Y-101512666D01*
X79565390Y-101512666D02*
X79708247Y-101512666D01*
X79708247Y-101512666D02*
X79898723Y-101560285D01*
X79898723Y-101560285D02*
X79993961Y-101607904D01*
X79993961Y-101607904D02*
X80089200Y-101703142D01*
X80089200Y-101703142D02*
X80136819Y-101845999D01*
X80136819Y-101845999D02*
X80136819Y-102084094D01*
X79232057Y-101131713D02*
X79184438Y-101084094D01*
X79184438Y-101084094D02*
X79136819Y-100988856D01*
X79136819Y-100988856D02*
X79136819Y-100750761D01*
X79136819Y-100750761D02*
X79184438Y-100655523D01*
X79184438Y-100655523D02*
X79232057Y-100607904D01*
X79232057Y-100607904D02*
X79327295Y-100560285D01*
X79327295Y-100560285D02*
X79422533Y-100560285D01*
X79422533Y-100560285D02*
X79565390Y-100607904D01*
X79565390Y-100607904D02*
X80136819Y-101179332D01*
X80136819Y-101179332D02*
X80136819Y-100560285D01*
X89100819Y-105544857D02*
X88624628Y-105878190D01*
X89100819Y-106116285D02*
X88100819Y-106116285D01*
X88100819Y-106116285D02*
X88100819Y-105735333D01*
X88100819Y-105735333D02*
X88148438Y-105640095D01*
X88148438Y-105640095D02*
X88196057Y-105592476D01*
X88196057Y-105592476D02*
X88291295Y-105544857D01*
X88291295Y-105544857D02*
X88434152Y-105544857D01*
X88434152Y-105544857D02*
X88529390Y-105592476D01*
X88529390Y-105592476D02*
X88577009Y-105640095D01*
X88577009Y-105640095D02*
X88624628Y-105735333D01*
X88624628Y-105735333D02*
X88624628Y-106116285D01*
X89100819Y-104592476D02*
X89100819Y-105163904D01*
X89100819Y-104878190D02*
X88100819Y-104878190D01*
X88100819Y-104878190D02*
X88243676Y-104973428D01*
X88243676Y-104973428D02*
X88338914Y-105068666D01*
X88338914Y-105068666D02*
X88386533Y-105163904D01*
X88100819Y-103973428D02*
X88100819Y-103878190D01*
X88100819Y-103878190D02*
X88148438Y-103782952D01*
X88148438Y-103782952D02*
X88196057Y-103735333D01*
X88196057Y-103735333D02*
X88291295Y-103687714D01*
X88291295Y-103687714D02*
X88481771Y-103640095D01*
X88481771Y-103640095D02*
X88719866Y-103640095D01*
X88719866Y-103640095D02*
X88910342Y-103687714D01*
X88910342Y-103687714D02*
X89005580Y-103735333D01*
X89005580Y-103735333D02*
X89053200Y-103782952D01*
X89053200Y-103782952D02*
X89100819Y-103878190D01*
X89100819Y-103878190D02*
X89100819Y-103973428D01*
X89100819Y-103973428D02*
X89053200Y-104068666D01*
X89053200Y-104068666D02*
X89005580Y-104116285D01*
X89005580Y-104116285D02*
X88910342Y-104163904D01*
X88910342Y-104163904D02*
X88719866Y-104211523D01*
X88719866Y-104211523D02*
X88481771Y-104211523D01*
X88481771Y-104211523D02*
X88291295Y-104163904D01*
X88291295Y-104163904D02*
X88196057Y-104116285D01*
X88196057Y-104116285D02*
X88148438Y-104068666D01*
X88148438Y-104068666D02*
X88100819Y-103973428D01*
X97070057Y-105251238D02*
X97022438Y-105346476D01*
X97022438Y-105346476D02*
X96927200Y-105441714D01*
X96927200Y-105441714D02*
X96784342Y-105584571D01*
X96784342Y-105584571D02*
X96736723Y-105679809D01*
X96736723Y-105679809D02*
X96736723Y-105775047D01*
X96974819Y-105727428D02*
X96927200Y-105822666D01*
X96927200Y-105822666D02*
X96831961Y-105917904D01*
X96831961Y-105917904D02*
X96641485Y-105965523D01*
X96641485Y-105965523D02*
X96308152Y-105965523D01*
X96308152Y-105965523D02*
X96117676Y-105917904D01*
X96117676Y-105917904D02*
X96022438Y-105822666D01*
X96022438Y-105822666D02*
X95974819Y-105727428D01*
X95974819Y-105727428D02*
X95974819Y-105536952D01*
X95974819Y-105536952D02*
X96022438Y-105441714D01*
X96022438Y-105441714D02*
X96117676Y-105346476D01*
X96117676Y-105346476D02*
X96308152Y-105298857D01*
X96308152Y-105298857D02*
X96641485Y-105298857D01*
X96641485Y-105298857D02*
X96831961Y-105346476D01*
X96831961Y-105346476D02*
X96927200Y-105441714D01*
X96927200Y-105441714D02*
X96974819Y-105536952D01*
X96974819Y-105536952D02*
X96974819Y-105727428D01*
X95974819Y-104965523D02*
X95974819Y-104346476D01*
X95974819Y-104346476D02*
X96355771Y-104679809D01*
X96355771Y-104679809D02*
X96355771Y-104536952D01*
X96355771Y-104536952D02*
X96403390Y-104441714D01*
X96403390Y-104441714D02*
X96451009Y-104394095D01*
X96451009Y-104394095D02*
X96546247Y-104346476D01*
X96546247Y-104346476D02*
X96784342Y-104346476D01*
X96784342Y-104346476D02*
X96879580Y-104394095D01*
X96879580Y-104394095D02*
X96927200Y-104441714D01*
X96927200Y-104441714D02*
X96974819Y-104536952D01*
X96974819Y-104536952D02*
X96974819Y-104822666D01*
X96974819Y-104822666D02*
X96927200Y-104917904D01*
X96927200Y-104917904D02*
X96879580Y-104965523D01*
X99514819Y-62142666D02*
X99038628Y-62475999D01*
X99514819Y-62714094D02*
X98514819Y-62714094D01*
X98514819Y-62714094D02*
X98514819Y-62333142D01*
X98514819Y-62333142D02*
X98562438Y-62237904D01*
X98562438Y-62237904D02*
X98610057Y-62190285D01*
X98610057Y-62190285D02*
X98705295Y-62142666D01*
X98705295Y-62142666D02*
X98848152Y-62142666D01*
X98848152Y-62142666D02*
X98943390Y-62190285D01*
X98943390Y-62190285D02*
X98991009Y-62237904D01*
X98991009Y-62237904D02*
X99038628Y-62333142D01*
X99038628Y-62333142D02*
X99038628Y-62714094D01*
X99514819Y-61190285D02*
X99514819Y-61761713D01*
X99514819Y-61475999D02*
X98514819Y-61475999D01*
X98514819Y-61475999D02*
X98657676Y-61571237D01*
X98657676Y-61571237D02*
X98752914Y-61666475D01*
X98752914Y-61666475D02*
X98800533Y-61761713D01*
X107050333Y-100276819D02*
X106717000Y-99800628D01*
X106478905Y-100276819D02*
X106478905Y-99276819D01*
X106478905Y-99276819D02*
X106859857Y-99276819D01*
X106859857Y-99276819D02*
X106955095Y-99324438D01*
X106955095Y-99324438D02*
X107002714Y-99372057D01*
X107002714Y-99372057D02*
X107050333Y-99467295D01*
X107050333Y-99467295D02*
X107050333Y-99610152D01*
X107050333Y-99610152D02*
X107002714Y-99705390D01*
X107002714Y-99705390D02*
X106955095Y-99753009D01*
X106955095Y-99753009D02*
X106859857Y-99800628D01*
X106859857Y-99800628D02*
X106478905Y-99800628D01*
X107907476Y-99610152D02*
X107907476Y-100276819D01*
X107669381Y-99229200D02*
X107431286Y-99943485D01*
X107431286Y-99943485D02*
X108050333Y-99943485D01*
X97736819Y-102084094D02*
X96736819Y-102084094D01*
X96736819Y-102084094D02*
X96736819Y-101845999D01*
X96736819Y-101845999D02*
X96784438Y-101703142D01*
X96784438Y-101703142D02*
X96879676Y-101607904D01*
X96879676Y-101607904D02*
X96974914Y-101560285D01*
X96974914Y-101560285D02*
X97165390Y-101512666D01*
X97165390Y-101512666D02*
X97308247Y-101512666D01*
X97308247Y-101512666D02*
X97498723Y-101560285D01*
X97498723Y-101560285D02*
X97593961Y-101607904D01*
X97593961Y-101607904D02*
X97689200Y-101703142D01*
X97689200Y-101703142D02*
X97736819Y-101845999D01*
X97736819Y-101845999D02*
X97736819Y-102084094D01*
X96736819Y-101179332D02*
X96736819Y-100560285D01*
X96736819Y-100560285D02*
X97117771Y-100893618D01*
X97117771Y-100893618D02*
X97117771Y-100750761D01*
X97117771Y-100750761D02*
X97165390Y-100655523D01*
X97165390Y-100655523D02*
X97213009Y-100607904D01*
X97213009Y-100607904D02*
X97308247Y-100560285D01*
X97308247Y-100560285D02*
X97546342Y-100560285D01*
X97546342Y-100560285D02*
X97641580Y-100607904D01*
X97641580Y-100607904D02*
X97689200Y-100655523D01*
X97689200Y-100655523D02*
X97736819Y-100750761D01*
X97736819Y-100750761D02*
X97736819Y-101036475D01*
X97736819Y-101036475D02*
X97689200Y-101131713D01*
X97689200Y-101131713D02*
X97641580Y-101179332D01*
X53795009Y-71143714D02*
X53842628Y-71000857D01*
X53842628Y-71000857D02*
X53890247Y-70953238D01*
X53890247Y-70953238D02*
X53985485Y-70905619D01*
X53985485Y-70905619D02*
X54128342Y-70905619D01*
X54128342Y-70905619D02*
X54223580Y-70953238D01*
X54223580Y-70953238D02*
X54271200Y-71000857D01*
X54271200Y-71000857D02*
X54318819Y-71096095D01*
X54318819Y-71096095D02*
X54318819Y-71477047D01*
X54318819Y-71477047D02*
X53318819Y-71477047D01*
X53318819Y-71477047D02*
X53318819Y-71143714D01*
X53318819Y-71143714D02*
X53366438Y-71048476D01*
X53366438Y-71048476D02*
X53414057Y-71000857D01*
X53414057Y-71000857D02*
X53509295Y-70953238D01*
X53509295Y-70953238D02*
X53604533Y-70953238D01*
X53604533Y-70953238D02*
X53699771Y-71000857D01*
X53699771Y-71000857D02*
X53747390Y-71048476D01*
X53747390Y-71048476D02*
X53795009Y-71143714D01*
X53795009Y-71143714D02*
X53795009Y-71477047D01*
X53318819Y-70619904D02*
X53318819Y-70048476D01*
X54318819Y-70334190D02*
X53318819Y-70334190D01*
X54318819Y-69191333D02*
X54318819Y-69762761D01*
X54318819Y-69477047D02*
X53318819Y-69477047D01*
X53318819Y-69477047D02*
X53461676Y-69572285D01*
X53461676Y-69572285D02*
X53556914Y-69667523D01*
X53556914Y-69667523D02*
X53604533Y-69762761D01*
X94321333Y-42523580D02*
X94273714Y-42571200D01*
X94273714Y-42571200D02*
X94130857Y-42618819D01*
X94130857Y-42618819D02*
X94035619Y-42618819D01*
X94035619Y-42618819D02*
X93892762Y-42571200D01*
X93892762Y-42571200D02*
X93797524Y-42475961D01*
X93797524Y-42475961D02*
X93749905Y-42380723D01*
X93749905Y-42380723D02*
X93702286Y-42190247D01*
X93702286Y-42190247D02*
X93702286Y-42047390D01*
X93702286Y-42047390D02*
X93749905Y-41856914D01*
X93749905Y-41856914D02*
X93797524Y-41761676D01*
X93797524Y-41761676D02*
X93892762Y-41666438D01*
X93892762Y-41666438D02*
X94035619Y-41618819D01*
X94035619Y-41618819D02*
X94130857Y-41618819D01*
X94130857Y-41618819D02*
X94273714Y-41666438D01*
X94273714Y-41666438D02*
X94321333Y-41714057D01*
X95178476Y-41952152D02*
X95178476Y-42618819D01*
X94940381Y-41571200D02*
X94702286Y-42285485D01*
X94702286Y-42285485D02*
X95321333Y-42285485D01*
X80801819Y-98798094D02*
X79801819Y-98798094D01*
X79801819Y-98798094D02*
X79801819Y-98559999D01*
X79801819Y-98559999D02*
X79849438Y-98417142D01*
X79849438Y-98417142D02*
X79944676Y-98321904D01*
X79944676Y-98321904D02*
X80039914Y-98274285D01*
X80039914Y-98274285D02*
X80230390Y-98226666D01*
X80230390Y-98226666D02*
X80373247Y-98226666D01*
X80373247Y-98226666D02*
X80563723Y-98274285D01*
X80563723Y-98274285D02*
X80658961Y-98321904D01*
X80658961Y-98321904D02*
X80754200Y-98417142D01*
X80754200Y-98417142D02*
X80801819Y-98559999D01*
X80801819Y-98559999D02*
X80801819Y-98798094D01*
X80801819Y-97274285D02*
X80801819Y-97845713D01*
X80801819Y-97559999D02*
X79801819Y-97559999D01*
X79801819Y-97559999D02*
X79944676Y-97655237D01*
X79944676Y-97655237D02*
X80039914Y-97750475D01*
X80039914Y-97750475D02*
X80087533Y-97845713D01*
X100861905Y-109683819D02*
X100861905Y-108683819D01*
X100861905Y-108683819D02*
X101100000Y-108683819D01*
X101100000Y-108683819D02*
X101242857Y-108731438D01*
X101242857Y-108731438D02*
X101338095Y-108826676D01*
X101338095Y-108826676D02*
X101385714Y-108921914D01*
X101385714Y-108921914D02*
X101433333Y-109112390D01*
X101433333Y-109112390D02*
X101433333Y-109255247D01*
X101433333Y-109255247D02*
X101385714Y-109445723D01*
X101385714Y-109445723D02*
X101338095Y-109540961D01*
X101338095Y-109540961D02*
X101242857Y-109636200D01*
X101242857Y-109636200D02*
X101100000Y-109683819D01*
X101100000Y-109683819D02*
X100861905Y-109683819D01*
X102290476Y-108683819D02*
X102100000Y-108683819D01*
X102100000Y-108683819D02*
X102004762Y-108731438D01*
X102004762Y-108731438D02*
X101957143Y-108779057D01*
X101957143Y-108779057D02*
X101861905Y-108921914D01*
X101861905Y-108921914D02*
X101814286Y-109112390D01*
X101814286Y-109112390D02*
X101814286Y-109493342D01*
X101814286Y-109493342D02*
X101861905Y-109588580D01*
X101861905Y-109588580D02*
X101909524Y-109636200D01*
X101909524Y-109636200D02*
X102004762Y-109683819D01*
X102004762Y-109683819D02*
X102195238Y-109683819D01*
X102195238Y-109683819D02*
X102290476Y-109636200D01*
X102290476Y-109636200D02*
X102338095Y-109588580D01*
X102338095Y-109588580D02*
X102385714Y-109493342D01*
X102385714Y-109493342D02*
X102385714Y-109255247D01*
X102385714Y-109255247D02*
X102338095Y-109160009D01*
X102338095Y-109160009D02*
X102290476Y-109112390D01*
X102290476Y-109112390D02*
X102195238Y-109064771D01*
X102195238Y-109064771D02*
X102004762Y-109064771D01*
X102004762Y-109064771D02*
X101909524Y-109112390D01*
X101909524Y-109112390D02*
X101861905Y-109160009D01*
X101861905Y-109160009D02*
X101814286Y-109255247D01*
X137819319Y63612595D02*
X138628842Y63612595D01*
X138628842Y63612595D02*
X138724080Y63660214D01*
X138724080Y63660214D02*
X138771700Y63707833D01*
X138771700Y63707833D02*
X138819319Y63803071D01*
X138819319Y63803071D02*
X138819319Y63993547D01*
X138819319Y63993547D02*
X138771700Y64088785D01*
X138771700Y64088785D02*
X138724080Y64136404D01*
X138724080Y64136404D02*
X138628842Y64184023D01*
X138628842Y64184023D02*
X137819319Y64184023D01*
X138152652Y65088785D02*
X138819319Y65088785D01*
X137771700Y64850690D02*
X138485985Y64612595D01*
X138485985Y64612595D02*
X138485985Y65231642D01*
X115458119Y-31183319D02*
X115648595Y-31183319D01*
X115648595Y-31183319D02*
X115743833Y-31230938D01*
X115743833Y-31230938D02*
X115839071Y-31326176D01*
X115839071Y-31326176D02*
X115886690Y-31516652D01*
X115886690Y-31516652D02*
X115886690Y-31849985D01*
X115886690Y-31849985D02*
X115839071Y-32040461D01*
X115839071Y-32040461D02*
X115743833Y-32135700D01*
X115743833Y-32135700D02*
X115648595Y-32183319D01*
X115648595Y-32183319D02*
X115458119Y-32183319D01*
X115458119Y-32183319D02*
X115362881Y-32135700D01*
X115362881Y-32135700D02*
X115267643Y-32040461D01*
X115267643Y-32040461D02*
X115220024Y-31849985D01*
X115220024Y-31849985D02*
X115220024Y-31516652D01*
X115220024Y-31516652D02*
X115267643Y-31326176D01*
X115267643Y-31326176D02*
X115362881Y-31230938D01*
X115362881Y-31230938D02*
X115458119Y-31183319D01*
X116743833Y-31516652D02*
X116743833Y-32183319D01*
X116315262Y-31516652D02*
X116315262Y-32040461D01*
X116315262Y-32040461D02*
X116362881Y-32135700D01*
X116362881Y-32135700D02*
X116458119Y-32183319D01*
X116458119Y-32183319D02*
X116600976Y-32183319D01*
X116600976Y-32183319D02*
X116696214Y-32135700D01*
X116696214Y-32135700D02*
X116743833Y-32088080D01*
X117077167Y-31516652D02*
X117458119Y-31516652D01*
X117220024Y-31183319D02*
X117220024Y-32040461D01*
X117220024Y-32040461D02*
X117267643Y-32135700D01*
X117267643Y-32135700D02*
X117362881Y-32183319D01*
X117362881Y-32183319D02*
X117458119Y-32183319D01*
X117791453Y-31802366D02*
X118553358Y-31802366D01*
X115458119Y-45783319D02*
X115648595Y-45783319D01*
X115648595Y-45783319D02*
X115743833Y-45830938D01*
X115743833Y-45830938D02*
X115839071Y-45926176D01*
X115839071Y-45926176D02*
X115886690Y-46116652D01*
X115886690Y-46116652D02*
X115886690Y-46449985D01*
X115886690Y-46449985D02*
X115839071Y-46640461D01*
X115839071Y-46640461D02*
X115743833Y-46735700D01*
X115743833Y-46735700D02*
X115648595Y-46783319D01*
X115648595Y-46783319D02*
X115458119Y-46783319D01*
X115458119Y-46783319D02*
X115362881Y-46735700D01*
X115362881Y-46735700D02*
X115267643Y-46640461D01*
X115267643Y-46640461D02*
X115220024Y-46449985D01*
X115220024Y-46449985D02*
X115220024Y-46116652D01*
X115220024Y-46116652D02*
X115267643Y-45926176D01*
X115267643Y-45926176D02*
X115362881Y-45830938D01*
X115362881Y-45830938D02*
X115458119Y-45783319D01*
X116743833Y-46116652D02*
X116743833Y-46783319D01*
X116315262Y-46116652D02*
X116315262Y-46640461D01*
X116315262Y-46640461D02*
X116362881Y-46735700D01*
X116362881Y-46735700D02*
X116458119Y-46783319D01*
X116458119Y-46783319D02*
X116600976Y-46783319D01*
X116600976Y-46783319D02*
X116696214Y-46735700D01*
X116696214Y-46735700D02*
X116743833Y-46688080D01*
X117077167Y-46116652D02*
X117458119Y-46116652D01*
X117220024Y-45783319D02*
X117220024Y-46640461D01*
X117220024Y-46640461D02*
X117267643Y-46735700D01*
X117267643Y-46735700D02*
X117362881Y-46783319D01*
X117362881Y-46783319D02*
X117458119Y-46783319D01*
X117791453Y-46402366D02*
X118553358Y-46402366D01*
X118172405Y-46783319D02*
X118172405Y-46021414D01*
X133529548Y-46402366D02*
X134291453Y-46402366D01*
X133910500Y-46783319D02*
X133910500Y-46021414D01*
X135248595Y-33730938D02*
X135153357Y-33683319D01*
X135153357Y-33683319D02*
X135010500Y-33683319D01*
X135010500Y-33683319D02*
X134867643Y-33730938D01*
X134867643Y-33730938D02*
X134772405Y-33826176D01*
X134772405Y-33826176D02*
X134724786Y-33921414D01*
X134724786Y-33921414D02*
X134677167Y-34111890D01*
X134677167Y-34111890D02*
X134677167Y-34254747D01*
X134677167Y-34254747D02*
X134724786Y-34445223D01*
X134724786Y-34445223D02*
X134772405Y-34540461D01*
X134772405Y-34540461D02*
X134867643Y-34635700D01*
X134867643Y-34635700D02*
X135010500Y-34683319D01*
X135010500Y-34683319D02*
X135105738Y-34683319D01*
X135105738Y-34683319D02*
X135248595Y-34635700D01*
X135248595Y-34635700D02*
X135296214Y-34588080D01*
X135296214Y-34588080D02*
X135296214Y-34254747D01*
X135296214Y-34254747D02*
X135105738Y-34254747D01*
X135724786Y-34683319D02*
X135724786Y-33683319D01*
X135724786Y-33683319D02*
X136296214Y-34683319D01*
X136296214Y-34683319D02*
X136296214Y-33683319D01*
X136772405Y-34683319D02*
X136772405Y-33683319D01*
X136772405Y-33683319D02*
X137010500Y-33683319D01*
X137010500Y-33683319D02*
X137153357Y-33730938D01*
X137153357Y-33730938D02*
X137248595Y-33826176D01*
X137248595Y-33826176D02*
X137296214Y-33921414D01*
X137296214Y-33921414D02*
X137343833Y-34111890D01*
X137343833Y-34111890D02*
X137343833Y-34254747D01*
X137343833Y-34254747D02*
X137296214Y-34445223D01*
X137296214Y-34445223D02*
X137248595Y-34540461D01*
X137248595Y-34540461D02*
X137153357Y-34635700D01*
X137153357Y-34635700D02*
X137010500Y-34683319D01*
X137010500Y-34683319D02*
X136772405Y-34683319D01*
X133429548Y-31202366D02*
X134191453Y-31202366D01*
X135967642Y-43283319D02*
X135491452Y-43283319D01*
X135491452Y-43283319D02*
X135443833Y-43759509D01*
X135443833Y-43759509D02*
X135491452Y-43711890D01*
X135491452Y-43711890D02*
X135586690Y-43664271D01*
X135586690Y-43664271D02*
X135824785Y-43664271D01*
X135824785Y-43664271D02*
X135920023Y-43711890D01*
X135920023Y-43711890D02*
X135967642Y-43759509D01*
X135967642Y-43759509D02*
X136015261Y-43854747D01*
X136015261Y-43854747D02*
X136015261Y-44092842D01*
X136015261Y-44092842D02*
X135967642Y-44188080D01*
X135967642Y-44188080D02*
X135920023Y-44235700D01*
X135920023Y-44235700D02*
X135824785Y-44283319D01*
X135824785Y-44283319D02*
X135586690Y-44283319D01*
X135586690Y-44283319D02*
X135491452Y-44235700D01*
X135491452Y-44235700D02*
X135443833Y-44188080D01*
X136348595Y-43616652D02*
X136586690Y-44283319D01*
X136586690Y-44283319D02*
X136824785Y-43616652D01*
X115562881Y-35159509D02*
X115705738Y-35207128D01*
X115705738Y-35207128D02*
X115753357Y-35254747D01*
X115753357Y-35254747D02*
X115800976Y-35349985D01*
X115800976Y-35349985D02*
X115800976Y-35492842D01*
X115800976Y-35492842D02*
X115753357Y-35588080D01*
X115753357Y-35588080D02*
X115705738Y-35635700D01*
X115705738Y-35635700D02*
X115610500Y-35683319D01*
X115610500Y-35683319D02*
X115229548Y-35683319D01*
X115229548Y-35683319D02*
X115229548Y-34683319D01*
X115229548Y-34683319D02*
X115562881Y-34683319D01*
X115562881Y-34683319D02*
X115658119Y-34730938D01*
X115658119Y-34730938D02*
X115705738Y-34778557D01*
X115705738Y-34778557D02*
X115753357Y-34873795D01*
X115753357Y-34873795D02*
X115753357Y-34969033D01*
X115753357Y-34969033D02*
X115705738Y-35064271D01*
X115705738Y-35064271D02*
X115658119Y-35111890D01*
X115658119Y-35111890D02*
X115562881Y-35159509D01*
X115562881Y-35159509D02*
X115229548Y-35159509D01*
X116229548Y-35302366D02*
X116991453Y-35302366D01*
X118467641Y-38959509D02*
X118610498Y-39007128D01*
X118610498Y-39007128D02*
X118658117Y-39054747D01*
X118658117Y-39054747D02*
X118705736Y-39149985D01*
X118705736Y-39149985D02*
X118705736Y-39292842D01*
X118705736Y-39292842D02*
X118658117Y-39388080D01*
X118658117Y-39388080D02*
X118610498Y-39435700D01*
X118610498Y-39435700D02*
X118515260Y-39483319D01*
X118515260Y-39483319D02*
X118134308Y-39483319D01*
X118134308Y-39483319D02*
X118134308Y-38483319D01*
X118134308Y-38483319D02*
X118467641Y-38483319D01*
X118467641Y-38483319D02*
X118562879Y-38530938D01*
X118562879Y-38530938D02*
X118610498Y-38578557D01*
X118610498Y-38578557D02*
X118658117Y-38673795D01*
X118658117Y-38673795D02*
X118658117Y-38769033D01*
X118658117Y-38769033D02*
X118610498Y-38864271D01*
X118610498Y-38864271D02*
X118562879Y-38911890D01*
X118562879Y-38911890D02*
X118467641Y-38959509D01*
X118467641Y-38959509D02*
X118134308Y-38959509D01*
X119562879Y-39483319D02*
X119562879Y-38959509D01*
X119562879Y-38959509D02*
X119515260Y-38864271D01*
X119515260Y-38864271D02*
X119420022Y-38816652D01*
X119420022Y-38816652D02*
X119229546Y-38816652D01*
X119229546Y-38816652D02*
X119134308Y-38864271D01*
X119562879Y-39435700D02*
X119467641Y-39483319D01*
X119467641Y-39483319D02*
X119229546Y-39483319D01*
X119229546Y-39483319D02*
X119134308Y-39435700D01*
X119134308Y-39435700D02*
X119086689Y-39340461D01*
X119086689Y-39340461D02*
X119086689Y-39245223D01*
X119086689Y-39245223D02*
X119134308Y-39149985D01*
X119134308Y-39149985D02*
X119229546Y-39102366D01*
X119229546Y-39102366D02*
X119467641Y-39102366D01*
X119467641Y-39102366D02*
X119562879Y-39054747D01*
X119896213Y-38816652D02*
X120277165Y-38816652D01*
X120039070Y-38483319D02*
X120039070Y-39340461D01*
X120039070Y-39340461D02*
X120086689Y-39435700D01*
X120086689Y-39435700D02*
X120181927Y-39483319D01*
X120181927Y-39483319D02*
X120277165Y-39483319D01*
X120467642Y-38816652D02*
X120848594Y-38816652D01*
X120610499Y-38483319D02*
X120610499Y-39340461D01*
X120610499Y-39340461D02*
X120658118Y-39435700D01*
X120658118Y-39435700D02*
X120753356Y-39483319D01*
X120753356Y-39483319D02*
X120848594Y-39483319D01*
X121562880Y-39435700D02*
X121467642Y-39483319D01*
X121467642Y-39483319D02*
X121277166Y-39483319D01*
X121277166Y-39483319D02*
X121181928Y-39435700D01*
X121181928Y-39435700D02*
X121134309Y-39340461D01*
X121134309Y-39340461D02*
X121134309Y-38959509D01*
X121134309Y-38959509D02*
X121181928Y-38864271D01*
X121181928Y-38864271D02*
X121277166Y-38816652D01*
X121277166Y-38816652D02*
X121467642Y-38816652D01*
X121467642Y-38816652D02*
X121562880Y-38864271D01*
X121562880Y-38864271D02*
X121610499Y-38959509D01*
X121610499Y-38959509D02*
X121610499Y-39054747D01*
X121610499Y-39054747D02*
X121134309Y-39149985D01*
X122039071Y-39483319D02*
X122039071Y-38816652D01*
X122039071Y-39007128D02*
X122086690Y-38911890D01*
X122086690Y-38911890D02*
X122134309Y-38864271D01*
X122134309Y-38864271D02*
X122229547Y-38816652D01*
X122229547Y-38816652D02*
X122324785Y-38816652D01*
X122562881Y-38816652D02*
X122800976Y-39483319D01*
X123039071Y-38816652D02*
X122800976Y-39483319D01*
X122800976Y-39483319D02*
X122705738Y-39721414D01*
X122705738Y-39721414D02*
X122658119Y-39769033D01*
X122658119Y-39769033D02*
X122562881Y-39816652D01*
X124753357Y-39388080D02*
X124705738Y-39435700D01*
X124705738Y-39435700D02*
X124562881Y-39483319D01*
X124562881Y-39483319D02*
X124467643Y-39483319D01*
X124467643Y-39483319D02*
X124324786Y-39435700D01*
X124324786Y-39435700D02*
X124229548Y-39340461D01*
X124229548Y-39340461D02*
X124181929Y-39245223D01*
X124181929Y-39245223D02*
X124134310Y-39054747D01*
X124134310Y-39054747D02*
X124134310Y-38911890D01*
X124134310Y-38911890D02*
X124181929Y-38721414D01*
X124181929Y-38721414D02*
X124229548Y-38626176D01*
X124229548Y-38626176D02*
X124324786Y-38530938D01*
X124324786Y-38530938D02*
X124467643Y-38483319D01*
X124467643Y-38483319D02*
X124562881Y-38483319D01*
X124562881Y-38483319D02*
X124705738Y-38530938D01*
X124705738Y-38530938D02*
X124753357Y-38578557D01*
X125181929Y-39483319D02*
X125181929Y-38483319D01*
X125610500Y-39483319D02*
X125610500Y-38959509D01*
X125610500Y-38959509D02*
X125562881Y-38864271D01*
X125562881Y-38864271D02*
X125467643Y-38816652D01*
X125467643Y-38816652D02*
X125324786Y-38816652D01*
X125324786Y-38816652D02*
X125229548Y-38864271D01*
X125229548Y-38864271D02*
X125181929Y-38911890D01*
X126515262Y-39483319D02*
X126515262Y-38959509D01*
X126515262Y-38959509D02*
X126467643Y-38864271D01*
X126467643Y-38864271D02*
X126372405Y-38816652D01*
X126372405Y-38816652D02*
X126181929Y-38816652D01*
X126181929Y-38816652D02*
X126086691Y-38864271D01*
X126515262Y-39435700D02*
X126420024Y-39483319D01*
X126420024Y-39483319D02*
X126181929Y-39483319D01*
X126181929Y-39483319D02*
X126086691Y-39435700D01*
X126086691Y-39435700D02*
X126039072Y-39340461D01*
X126039072Y-39340461D02*
X126039072Y-39245223D01*
X126039072Y-39245223D02*
X126086691Y-39149985D01*
X126086691Y-39149985D02*
X126181929Y-39102366D01*
X126181929Y-39102366D02*
X126420024Y-39102366D01*
X126420024Y-39102366D02*
X126515262Y-39054747D01*
X126991453Y-39483319D02*
X126991453Y-38816652D01*
X126991453Y-39007128D02*
X127039072Y-38911890D01*
X127039072Y-38911890D02*
X127086691Y-38864271D01*
X127086691Y-38864271D02*
X127181929Y-38816652D01*
X127181929Y-38816652D02*
X127277167Y-38816652D01*
X128039072Y-38816652D02*
X128039072Y-39626176D01*
X128039072Y-39626176D02*
X127991453Y-39721414D01*
X127991453Y-39721414D02*
X127943834Y-39769033D01*
X127943834Y-39769033D02*
X127848596Y-39816652D01*
X127848596Y-39816652D02*
X127705739Y-39816652D01*
X127705739Y-39816652D02*
X127610501Y-39769033D01*
X128039072Y-39435700D02*
X127943834Y-39483319D01*
X127943834Y-39483319D02*
X127753358Y-39483319D01*
X127753358Y-39483319D02*
X127658120Y-39435700D01*
X127658120Y-39435700D02*
X127610501Y-39388080D01*
X127610501Y-39388080D02*
X127562882Y-39292842D01*
X127562882Y-39292842D02*
X127562882Y-39007128D01*
X127562882Y-39007128D02*
X127610501Y-38911890D01*
X127610501Y-38911890D02*
X127658120Y-38864271D01*
X127658120Y-38864271D02*
X127753358Y-38816652D01*
X127753358Y-38816652D02*
X127943834Y-38816652D01*
X127943834Y-38816652D02*
X128039072Y-38864271D01*
X128896215Y-39435700D02*
X128800977Y-39483319D01*
X128800977Y-39483319D02*
X128610501Y-39483319D01*
X128610501Y-39483319D02*
X128515263Y-39435700D01*
X128515263Y-39435700D02*
X128467644Y-39340461D01*
X128467644Y-39340461D02*
X128467644Y-38959509D01*
X128467644Y-38959509D02*
X128515263Y-38864271D01*
X128515263Y-38864271D02*
X128610501Y-38816652D01*
X128610501Y-38816652D02*
X128800977Y-38816652D01*
X128800977Y-38816652D02*
X128896215Y-38864271D01*
X128896215Y-38864271D02*
X128943834Y-38959509D01*
X128943834Y-38959509D02*
X128943834Y-39054747D01*
X128943834Y-39054747D02*
X128467644Y-39149985D01*
X129372406Y-39483319D02*
X129372406Y-38816652D01*
X129372406Y-39007128D02*
X129420025Y-38911890D01*
X129420025Y-38911890D02*
X129467644Y-38864271D01*
X129467644Y-38864271D02*
X129562882Y-38816652D01*
X129562882Y-38816652D02*
X129658120Y-38816652D01*
X131277168Y-39483319D02*
X130705740Y-39483319D01*
X130991454Y-39483319D02*
X130991454Y-38483319D01*
X130991454Y-38483319D02*
X130896216Y-38626176D01*
X130896216Y-38626176D02*
X130800978Y-38721414D01*
X130800978Y-38721414D02*
X130705740Y-38769033D01*
X131658121Y-39197604D02*
X132134311Y-39197604D01*
X131562883Y-39483319D02*
X131896216Y-38483319D01*
X131896216Y-38483319D02*
X132229549Y-39483319D01*
X115562881Y-42759509D02*
X115705738Y-42807128D01*
X115705738Y-42807128D02*
X115753357Y-42854747D01*
X115753357Y-42854747D02*
X115800976Y-42949985D01*
X115800976Y-42949985D02*
X115800976Y-43092842D01*
X115800976Y-43092842D02*
X115753357Y-43188080D01*
X115753357Y-43188080D02*
X115705738Y-43235700D01*
X115705738Y-43235700D02*
X115610500Y-43283319D01*
X115610500Y-43283319D02*
X115229548Y-43283319D01*
X115229548Y-43283319D02*
X115229548Y-42283319D01*
X115229548Y-42283319D02*
X115562881Y-42283319D01*
X115562881Y-42283319D02*
X115658119Y-42330938D01*
X115658119Y-42330938D02*
X115705738Y-42378557D01*
X115705738Y-42378557D02*
X115753357Y-42473795D01*
X115753357Y-42473795D02*
X115753357Y-42569033D01*
X115753357Y-42569033D02*
X115705738Y-42664271D01*
X115705738Y-42664271D02*
X115658119Y-42711890D01*
X115658119Y-42711890D02*
X115562881Y-42759509D01*
X115562881Y-42759509D02*
X115229548Y-42759509D01*
X116229548Y-42902366D02*
X116991453Y-42902366D01*
X116610500Y-43283319D02*
X116610500Y-42521414D01*
X135665319Y-40090404D02*
X136474842Y-40090404D01*
X136474842Y-40090404D02*
X136570080Y-40042785D01*
X136570080Y-40042785D02*
X136617700Y-39995166D01*
X136617700Y-39995166D02*
X136665319Y-39899928D01*
X136665319Y-39899928D02*
X136665319Y-39709452D01*
X136665319Y-39709452D02*
X136617700Y-39614214D01*
X136617700Y-39614214D02*
X136570080Y-39566595D01*
X136570080Y-39566595D02*
X136474842Y-39518976D01*
X136474842Y-39518976D02*
X135665319Y-39518976D01*
X136617700Y-39090404D02*
X136665319Y-38947547D01*
X136665319Y-38947547D02*
X136665319Y-38709452D01*
X136665319Y-38709452D02*
X136617700Y-38614214D01*
X136617700Y-38614214D02*
X136570080Y-38566595D01*
X136570080Y-38566595D02*
X136474842Y-38518976D01*
X136474842Y-38518976D02*
X136379604Y-38518976D01*
X136379604Y-38518976D02*
X136284366Y-38566595D01*
X136284366Y-38566595D02*
X136236747Y-38614214D01*
X136236747Y-38614214D02*
X136189128Y-38709452D01*
X136189128Y-38709452D02*
X136141509Y-38899928D01*
X136141509Y-38899928D02*
X136093890Y-38995166D01*
X136093890Y-38995166D02*
X136046271Y-39042785D01*
X136046271Y-39042785D02*
X135951033Y-39090404D01*
X135951033Y-39090404D02*
X135855795Y-39090404D01*
X135855795Y-39090404D02*
X135760557Y-39042785D01*
X135760557Y-39042785D02*
X135712938Y-38995166D01*
X135712938Y-38995166D02*
X135665319Y-38899928D01*
X135665319Y-38899928D02*
X135665319Y-38661833D01*
X135665319Y-38661833D02*
X135712938Y-38518976D01*
X136141509Y-37757071D02*
X136189128Y-37614214D01*
X136189128Y-37614214D02*
X136236747Y-37566595D01*
X136236747Y-37566595D02*
X136331985Y-37518976D01*
X136331985Y-37518976D02*
X136474842Y-37518976D01*
X136474842Y-37518976D02*
X136570080Y-37566595D01*
X136570080Y-37566595D02*
X136617700Y-37614214D01*
X136617700Y-37614214D02*
X136665319Y-37709452D01*
X136665319Y-37709452D02*
X136665319Y-38090404D01*
X136665319Y-38090404D02*
X135665319Y-38090404D01*
X135665319Y-38090404D02*
X135665319Y-37757071D01*
X135665319Y-37757071D02*
X135712938Y-37661833D01*
X135712938Y-37661833D02*
X135760557Y-37614214D01*
X135760557Y-37614214D02*
X135855795Y-37566595D01*
X135855795Y-37566595D02*
X135951033Y-37566595D01*
X135951033Y-37566595D02*
X136046271Y-37614214D01*
X136046271Y-37614214D02*
X136093890Y-37661833D01*
X136093890Y-37661833D02*
X136141509Y-37757071D01*
X136141509Y-37757071D02*
X136141509Y-38090404D01*
X94321333Y-33125580D02*
X94273714Y-33173200D01*
X94273714Y-33173200D02*
X94130857Y-33220819D01*
X94130857Y-33220819D02*
X94035619Y-33220819D01*
X94035619Y-33220819D02*
X93892762Y-33173200D01*
X93892762Y-33173200D02*
X93797524Y-33077961D01*
X93797524Y-33077961D02*
X93749905Y-32982723D01*
X93749905Y-32982723D02*
X93702286Y-32792247D01*
X93702286Y-32792247D02*
X93702286Y-32649390D01*
X93702286Y-32649390D02*
X93749905Y-32458914D01*
X93749905Y-32458914D02*
X93797524Y-32363676D01*
X93797524Y-32363676D02*
X93892762Y-32268438D01*
X93892762Y-32268438D02*
X94035619Y-32220819D01*
X94035619Y-32220819D02*
X94130857Y-32220819D01*
X94130857Y-32220819D02*
X94273714Y-32268438D01*
X94273714Y-32268438D02*
X94321333Y-32316057D01*
X95226095Y-32220819D02*
X94749905Y-32220819D01*
X94749905Y-32220819D02*
X94702286Y-32697009D01*
X94702286Y-32697009D02*
X94749905Y-32649390D01*
X94749905Y-32649390D02*
X94845143Y-32601771D01*
X94845143Y-32601771D02*
X95083238Y-32601771D01*
X95083238Y-32601771D02*
X95178476Y-32649390D01*
X95178476Y-32649390D02*
X95226095Y-32697009D01*
X95226095Y-32697009D02*
X95273714Y-32792247D01*
X95273714Y-32792247D02*
X95273714Y-33030342D01*
X95273714Y-33030342D02*
X95226095Y-33125580D01*
X95226095Y-33125580D02*
X95178476Y-33173200D01*
X95178476Y-33173200D02*
X95083238Y-33220819D01*
X95083238Y-33220819D02*
X94845143Y-33220819D01*
X94845143Y-33220819D02*
X94749905Y-33173200D01*
X94749905Y-33173200D02*
X94702286Y-33125580D01*
X88168819Y-101512666D02*
X87692628Y-101845999D01*
X88168819Y-102084094D02*
X87168819Y-102084094D01*
X87168819Y-102084094D02*
X87168819Y-101703142D01*
X87168819Y-101703142D02*
X87216438Y-101607904D01*
X87216438Y-101607904D02*
X87264057Y-101560285D01*
X87264057Y-101560285D02*
X87359295Y-101512666D01*
X87359295Y-101512666D02*
X87502152Y-101512666D01*
X87502152Y-101512666D02*
X87597390Y-101560285D01*
X87597390Y-101560285D02*
X87645009Y-101607904D01*
X87645009Y-101607904D02*
X87692628Y-101703142D01*
X87692628Y-101703142D02*
X87692628Y-102084094D01*
X87597390Y-100941237D02*
X87549771Y-101036475D01*
X87549771Y-101036475D02*
X87502152Y-101084094D01*
X87502152Y-101084094D02*
X87406914Y-101131713D01*
X87406914Y-101131713D02*
X87359295Y-101131713D01*
X87359295Y-101131713D02*
X87264057Y-101084094D01*
X87264057Y-101084094D02*
X87216438Y-101036475D01*
X87216438Y-101036475D02*
X87168819Y-100941237D01*
X87168819Y-100941237D02*
X87168819Y-100750761D01*
X87168819Y-100750761D02*
X87216438Y-100655523D01*
X87216438Y-100655523D02*
X87264057Y-100607904D01*
X87264057Y-100607904D02*
X87359295Y-100560285D01*
X87359295Y-100560285D02*
X87406914Y-100560285D01*
X87406914Y-100560285D02*
X87502152Y-100607904D01*
X87502152Y-100607904D02*
X87549771Y-100655523D01*
X87549771Y-100655523D02*
X87597390Y-100750761D01*
X87597390Y-100750761D02*
X87597390Y-100941237D01*
X87597390Y-100941237D02*
X87645009Y-101036475D01*
X87645009Y-101036475D02*
X87692628Y-101084094D01*
X87692628Y-101084094D02*
X87787866Y-101131713D01*
X87787866Y-101131713D02*
X87978342Y-101131713D01*
X87978342Y-101131713D02*
X88073580Y-101084094D01*
X88073580Y-101084094D02*
X88121200Y-101036475D01*
X88121200Y-101036475D02*
X88168819Y-100941237D01*
X88168819Y-100941237D02*
X88168819Y-100750761D01*
X88168819Y-100750761D02*
X88121200Y-100655523D01*
X88121200Y-100655523D02*
X88073580Y-100607904D01*
X88073580Y-100607904D02*
X87978342Y-100560285D01*
X87978342Y-100560285D02*
X87787866Y-100560285D01*
X87787866Y-100560285D02*
X87692628Y-100607904D01*
X87692628Y-100607904D02*
X87645009Y-100655523D01*
X87645009Y-100655523D02*
X87597390Y-100750761D01*
X68479200Y-47307332D02*
X68526819Y-47164475D01*
X68526819Y-47164475D02*
X68526819Y-46926380D01*
X68526819Y-46926380D02*
X68479200Y-46831142D01*
X68479200Y-46831142D02*
X68431580Y-46783523D01*
X68431580Y-46783523D02*
X68336342Y-46735904D01*
X68336342Y-46735904D02*
X68241104Y-46735904D01*
X68241104Y-46735904D02*
X68145866Y-46783523D01*
X68145866Y-46783523D02*
X68098247Y-46831142D01*
X68098247Y-46831142D02*
X68050628Y-46926380D01*
X68050628Y-46926380D02*
X68003009Y-47116856D01*
X68003009Y-47116856D02*
X67955390Y-47212094D01*
X67955390Y-47212094D02*
X67907771Y-47259713D01*
X67907771Y-47259713D02*
X67812533Y-47307332D01*
X67812533Y-47307332D02*
X67717295Y-47307332D01*
X67717295Y-47307332D02*
X67622057Y-47259713D01*
X67622057Y-47259713D02*
X67574438Y-47212094D01*
X67574438Y-47212094D02*
X67526819Y-47116856D01*
X67526819Y-47116856D02*
X67526819Y-46878761D01*
X67526819Y-46878761D02*
X67574438Y-46735904D01*
X67526819Y-46402570D02*
X68526819Y-46164475D01*
X68526819Y-46164475D02*
X67812533Y-45973999D01*
X67812533Y-45973999D02*
X68526819Y-45783523D01*
X68526819Y-45783523D02*
X67526819Y-45545428D01*
X68526819Y-44640666D02*
X68526819Y-45212094D01*
X68526819Y-44926380D02*
X67526819Y-44926380D01*
X67526819Y-44926380D02*
X67669676Y-45021618D01*
X67669676Y-45021618D02*
X67764914Y-45116856D01*
X67764914Y-45116856D02*
X67812533Y-45212094D01*
X99822095Y-32220819D02*
X99822095Y-33030342D01*
X99822095Y-33030342D02*
X99869714Y-33125580D01*
X99869714Y-33125580D02*
X99917333Y-33173200D01*
X99917333Y-33173200D02*
X100012571Y-33220819D01*
X100012571Y-33220819D02*
X100203047Y-33220819D01*
X100203047Y-33220819D02*
X100298285Y-33173200D01*
X100298285Y-33173200D02*
X100345904Y-33125580D01*
X100345904Y-33125580D02*
X100393523Y-33030342D01*
X100393523Y-33030342D02*
X100393523Y-32220819D01*
X101345904Y-32220819D02*
X100869714Y-32220819D01*
X100869714Y-32220819D02*
X100822095Y-32697009D01*
X100822095Y-32697009D02*
X100869714Y-32649390D01*
X100869714Y-32649390D02*
X100964952Y-32601771D01*
X100964952Y-32601771D02*
X101203047Y-32601771D01*
X101203047Y-32601771D02*
X101298285Y-32649390D01*
X101298285Y-32649390D02*
X101345904Y-32697009D01*
X101345904Y-32697009D02*
X101393523Y-32792247D01*
X101393523Y-32792247D02*
X101393523Y-33030342D01*
X101393523Y-33030342D02*
X101345904Y-33125580D01*
X101345904Y-33125580D02*
X101298285Y-33173200D01*
X101298285Y-33173200D02*
X101203047Y-33220819D01*
X101203047Y-33220819D02*
X100964952Y-33220819D01*
X100964952Y-33220819D02*
X100869714Y-33173200D01*
X100869714Y-33173200D02*
X100822095Y-33125580D01*
X71325319Y-104814666D02*
X70849128Y-105147999D01*
X71325319Y-105386094D02*
X70325319Y-105386094D01*
X70325319Y-105386094D02*
X70325319Y-105005142D01*
X70325319Y-105005142D02*
X70372938Y-104909904D01*
X70372938Y-104909904D02*
X70420557Y-104862285D01*
X70420557Y-104862285D02*
X70515795Y-104814666D01*
X70515795Y-104814666D02*
X70658652Y-104814666D01*
X70658652Y-104814666D02*
X70753890Y-104862285D01*
X70753890Y-104862285D02*
X70801509Y-104909904D01*
X70801509Y-104909904D02*
X70849128Y-105005142D01*
X70849128Y-105005142D02*
X70849128Y-105386094D01*
X70325319Y-103957523D02*
X70325319Y-104147999D01*
X70325319Y-104147999D02*
X70372938Y-104243237D01*
X70372938Y-104243237D02*
X70420557Y-104290856D01*
X70420557Y-104290856D02*
X70563414Y-104386094D01*
X70563414Y-104386094D02*
X70753890Y-104433713D01*
X70753890Y-104433713D02*
X71134842Y-104433713D01*
X71134842Y-104433713D02*
X71230080Y-104386094D01*
X71230080Y-104386094D02*
X71277700Y-104338475D01*
X71277700Y-104338475D02*
X71325319Y-104243237D01*
X71325319Y-104243237D02*
X71325319Y-104052761D01*
X71325319Y-104052761D02*
X71277700Y-103957523D01*
X71277700Y-103957523D02*
X71230080Y-103909904D01*
X71230080Y-103909904D02*
X71134842Y-103862285D01*
X71134842Y-103862285D02*
X70896747Y-103862285D01*
X70896747Y-103862285D02*
X70801509Y-103909904D01*
X70801509Y-103909904D02*
X70753890Y-103957523D01*
X70753890Y-103957523D02*
X70706271Y-104052761D01*
X70706271Y-104052761D02*
X70706271Y-104243237D01*
X70706271Y-104243237D02*
X70753890Y-104338475D01*
X70753890Y-104338475D02*
X70801509Y-104386094D01*
X70801509Y-104386094D02*
X70896747Y-104433713D01*
X131826095Y-50254819D02*
X131826095Y-51064342D01*
X131826095Y-51064342D02*
X131873714Y-51159580D01*
X131873714Y-51159580D02*
X131921333Y-51207200D01*
X131921333Y-51207200D02*
X132016571Y-51254819D01*
X132016571Y-51254819D02*
X132207047Y-51254819D01*
X132207047Y-51254819D02*
X132302285Y-51207200D01*
X132302285Y-51207200D02*
X132349904Y-51159580D01*
X132349904Y-51159580D02*
X132397523Y-51064342D01*
X132397523Y-51064342D02*
X132397523Y-50254819D01*
X132778476Y-50254819D02*
X133397523Y-50254819D01*
X133397523Y-50254819D02*
X133064190Y-50635771D01*
X133064190Y-50635771D02*
X133207047Y-50635771D01*
X133207047Y-50635771D02*
X133302285Y-50683390D01*
X133302285Y-50683390D02*
X133349904Y-50731009D01*
X133349904Y-50731009D02*
X133397523Y-50826247D01*
X133397523Y-50826247D02*
X133397523Y-51064342D01*
X133397523Y-51064342D02*
X133349904Y-51159580D01*
X133349904Y-51159580D02*
X133302285Y-51207200D01*
X133302285Y-51207200D02*
X133207047Y-51254819D01*
X133207047Y-51254819D02*
X132921333Y-51254819D01*
X132921333Y-51254819D02*
X132826095Y-51207200D01*
X132826095Y-51207200D02*
X132778476Y-51159580D01*
X109166819Y-35694857D02*
X108690628Y-36028190D01*
X109166819Y-36266285D02*
X108166819Y-36266285D01*
X108166819Y-36266285D02*
X108166819Y-35885333D01*
X108166819Y-35885333D02*
X108214438Y-35790095D01*
X108214438Y-35790095D02*
X108262057Y-35742476D01*
X108262057Y-35742476D02*
X108357295Y-35694857D01*
X108357295Y-35694857D02*
X108500152Y-35694857D01*
X108500152Y-35694857D02*
X108595390Y-35742476D01*
X108595390Y-35742476D02*
X108643009Y-35790095D01*
X108643009Y-35790095D02*
X108690628Y-35885333D01*
X108690628Y-35885333D02*
X108690628Y-36266285D01*
X109166819Y-34742476D02*
X109166819Y-35313904D01*
X109166819Y-35028190D02*
X108166819Y-35028190D01*
X108166819Y-35028190D02*
X108309676Y-35123428D01*
X108309676Y-35123428D02*
X108404914Y-35218666D01*
X108404914Y-35218666D02*
X108452533Y-35313904D01*
X109166819Y-33790095D02*
X109166819Y-34361523D01*
X109166819Y-34075809D02*
X108166819Y-34075809D01*
X108166819Y-34075809D02*
X108309676Y-34171047D01*
X108309676Y-34171047D02*
X108404914Y-34266285D01*
X108404914Y-34266285D02*
X108452533Y-34361523D01*
X104227333Y-100276819D02*
X103894000Y-99800628D01*
X103655905Y-100276819D02*
X103655905Y-99276819D01*
X103655905Y-99276819D02*
X104036857Y-99276819D01*
X104036857Y-99276819D02*
X104132095Y-99324438D01*
X104132095Y-99324438D02*
X104179714Y-99372057D01*
X104179714Y-99372057D02*
X104227333Y-99467295D01*
X104227333Y-99467295D02*
X104227333Y-99610152D01*
X104227333Y-99610152D02*
X104179714Y-99705390D01*
X104179714Y-99705390D02*
X104132095Y-99753009D01*
X104132095Y-99753009D02*
X104036857Y-99800628D01*
X104036857Y-99800628D02*
X103655905Y-99800628D01*
X104560667Y-99276819D02*
X105179714Y-99276819D01*
X105179714Y-99276819D02*
X104846381Y-99657771D01*
X104846381Y-99657771D02*
X104989238Y-99657771D01*
X104989238Y-99657771D02*
X105084476Y-99705390D01*
X105084476Y-99705390D02*
X105132095Y-99753009D01*
X105132095Y-99753009D02*
X105179714Y-99848247D01*
X105179714Y-99848247D02*
X105179714Y-100086342D01*
X105179714Y-100086342D02*
X105132095Y-100181580D01*
X105132095Y-100181580D02*
X105084476Y-100229200D01*
X105084476Y-100229200D02*
X104989238Y-100276819D01*
X104989238Y-100276819D02*
X104703524Y-100276819D01*
X104703524Y-100276819D02*
X104608286Y-100229200D01*
X104608286Y-100229200D02*
X104560667Y-100181580D01*
X101433333Y-100285819D02*
X101100000Y-99809628D01*
X100861905Y-100285819D02*
X100861905Y-99285819D01*
X100861905Y-99285819D02*
X101242857Y-99285819D01*
X101242857Y-99285819D02*
X101338095Y-99333438D01*
X101338095Y-99333438D02*
X101385714Y-99381057D01*
X101385714Y-99381057D02*
X101433333Y-99476295D01*
X101433333Y-99476295D02*
X101433333Y-99619152D01*
X101433333Y-99619152D02*
X101385714Y-99714390D01*
X101385714Y-99714390D02*
X101338095Y-99762009D01*
X101338095Y-99762009D02*
X101242857Y-99809628D01*
X101242857Y-99809628D02*
X100861905Y-99809628D01*
X101814286Y-99381057D02*
X101861905Y-99333438D01*
X101861905Y-99333438D02*
X101957143Y-99285819D01*
X101957143Y-99285819D02*
X102195238Y-99285819D01*
X102195238Y-99285819D02*
X102290476Y-99333438D01*
X102290476Y-99333438D02*
X102338095Y-99381057D01*
X102338095Y-99381057D02*
X102385714Y-99476295D01*
X102385714Y-99476295D02*
X102385714Y-99571533D01*
X102385714Y-99571533D02*
X102338095Y-99714390D01*
X102338095Y-99714390D02*
X101766667Y-100285819D01*
X101766667Y-100285819D02*
X102385714Y-100285819D01*
X103655905Y-109674819D02*
X103655905Y-108674819D01*
X103655905Y-108674819D02*
X103894000Y-108674819D01*
X103894000Y-108674819D02*
X104036857Y-108722438D01*
X104036857Y-108722438D02*
X104132095Y-108817676D01*
X104132095Y-108817676D02*
X104179714Y-108912914D01*
X104179714Y-108912914D02*
X104227333Y-109103390D01*
X104227333Y-109103390D02*
X104227333Y-109246247D01*
X104227333Y-109246247D02*
X104179714Y-109436723D01*
X104179714Y-109436723D02*
X104132095Y-109531961D01*
X104132095Y-109531961D02*
X104036857Y-109627200D01*
X104036857Y-109627200D02*
X103894000Y-109674819D01*
X103894000Y-109674819D02*
X103655905Y-109674819D01*
X104560667Y-108674819D02*
X105227333Y-108674819D01*
X105227333Y-108674819D02*
X104798762Y-109674819D01*
X89328666Y-38062819D02*
X89328666Y-38777104D01*
X89328666Y-38777104D02*
X89281047Y-38919961D01*
X89281047Y-38919961D02*
X89185809Y-39015200D01*
X89185809Y-39015200D02*
X89042952Y-39062819D01*
X89042952Y-39062819D02*
X88947714Y-39062819D01*
X89757238Y-38158057D02*
X89804857Y-38110438D01*
X89804857Y-38110438D02*
X89900095Y-38062819D01*
X89900095Y-38062819D02*
X90138190Y-38062819D01*
X90138190Y-38062819D02*
X90233428Y-38110438D01*
X90233428Y-38110438D02*
X90281047Y-38158057D01*
X90281047Y-38158057D02*
X90328666Y-38253295D01*
X90328666Y-38253295D02*
X90328666Y-38348533D01*
X90328666Y-38348533D02*
X90281047Y-38491390D01*
X90281047Y-38491390D02*
X89709619Y-39062819D01*
X89709619Y-39062819D02*
X90328666Y-39062819D01*
X102449333Y-44555580D02*
X102401714Y-44603200D01*
X102401714Y-44603200D02*
X102258857Y-44650819D01*
X102258857Y-44650819D02*
X102163619Y-44650819D01*
X102163619Y-44650819D02*
X102020762Y-44603200D01*
X102020762Y-44603200D02*
X101925524Y-44507961D01*
X101925524Y-44507961D02*
X101877905Y-44412723D01*
X101877905Y-44412723D02*
X101830286Y-44222247D01*
X101830286Y-44222247D02*
X101830286Y-44079390D01*
X101830286Y-44079390D02*
X101877905Y-43888914D01*
X101877905Y-43888914D02*
X101925524Y-43793676D01*
X101925524Y-43793676D02*
X102020762Y-43698438D01*
X102020762Y-43698438D02*
X102163619Y-43650819D01*
X102163619Y-43650819D02*
X102258857Y-43650819D01*
X102258857Y-43650819D02*
X102401714Y-43698438D01*
X102401714Y-43698438D02*
X102449333Y-43746057D01*
X102782667Y-43650819D02*
X103449333Y-43650819D01*
X103449333Y-43650819D02*
X103020762Y-44650819D01*
X106478905Y-109674819D02*
X106478905Y-108674819D01*
X106478905Y-108674819D02*
X106717000Y-108674819D01*
X106717000Y-108674819D02*
X106859857Y-108722438D01*
X106859857Y-108722438D02*
X106955095Y-108817676D01*
X106955095Y-108817676D02*
X107002714Y-108912914D01*
X107002714Y-108912914D02*
X107050333Y-109103390D01*
X107050333Y-109103390D02*
X107050333Y-109246247D01*
X107050333Y-109246247D02*
X107002714Y-109436723D01*
X107002714Y-109436723D02*
X106955095Y-109531961D01*
X106955095Y-109531961D02*
X106859857Y-109627200D01*
X106859857Y-109627200D02*
X106717000Y-109674819D01*
X106717000Y-109674819D02*
X106478905Y-109674819D01*
X107621762Y-109103390D02*
X107526524Y-109055771D01*
X107526524Y-109055771D02*
X107478905Y-109008152D01*
X107478905Y-109008152D02*
X107431286Y-108912914D01*
X107431286Y-108912914D02*
X107431286Y-108865295D01*
X107431286Y-108865295D02*
X107478905Y-108770057D01*
X107478905Y-108770057D02*
X107526524Y-108722438D01*
X107526524Y-108722438D02*
X107621762Y-108674819D01*
X107621762Y-108674819D02*
X107812238Y-108674819D01*
X107812238Y-108674819D02*
X107907476Y-108722438D01*
X107907476Y-108722438D02*
X107955095Y-108770057D01*
X107955095Y-108770057D02*
X108002714Y-108865295D01*
X108002714Y-108865295D02*
X108002714Y-108912914D01*
X108002714Y-108912914D02*
X107955095Y-109008152D01*
X107955095Y-109008152D02*
X107907476Y-109055771D01*
X107907476Y-109055771D02*
X107812238Y-109103390D01*
X107812238Y-109103390D02*
X107621762Y-109103390D01*
X107621762Y-109103390D02*
X107526524Y-109151009D01*
X107526524Y-109151009D02*
X107478905Y-109198628D01*
X107478905Y-109198628D02*
X107431286Y-109293866D01*
X107431286Y-109293866D02*
X107431286Y-109484342D01*
X107431286Y-109484342D02*
X107478905Y-109579580D01*
X107478905Y-109579580D02*
X107526524Y-109627200D01*
X107526524Y-109627200D02*
X107621762Y-109674819D01*
X107621762Y-109674819D02*
X107812238Y-109674819D01*
X107812238Y-109674819D02*
X107907476Y-109627200D01*
X107907476Y-109627200D02*
X107955095Y-109579580D01*
X107955095Y-109579580D02*
X108002714Y-109484342D01*
X108002714Y-109484342D02*
X108002714Y-109293866D01*
X108002714Y-109293866D02*
X107955095Y-109198628D01*
X107955095Y-109198628D02*
X107907476Y-109151009D01*
X107907476Y-109151009D02*
X107812238Y-109103390D01*
X98639333Y-44555580D02*
X98591714Y-44603200D01*
X98591714Y-44603200D02*
X98448857Y-44650819D01*
X98448857Y-44650819D02*
X98353619Y-44650819D01*
X98353619Y-44650819D02*
X98210762Y-44603200D01*
X98210762Y-44603200D02*
X98115524Y-44507961D01*
X98115524Y-44507961D02*
X98067905Y-44412723D01*
X98067905Y-44412723D02*
X98020286Y-44222247D01*
X98020286Y-44222247D02*
X98020286Y-44079390D01*
X98020286Y-44079390D02*
X98067905Y-43888914D01*
X98067905Y-43888914D02*
X98115524Y-43793676D01*
X98115524Y-43793676D02*
X98210762Y-43698438D01*
X98210762Y-43698438D02*
X98353619Y-43650819D01*
X98353619Y-43650819D02*
X98448857Y-43650819D01*
X98448857Y-43650819D02*
X98591714Y-43698438D01*
X98591714Y-43698438D02*
X98639333Y-43746057D01*
X99496476Y-43650819D02*
X99306000Y-43650819D01*
X99306000Y-43650819D02*
X99210762Y-43698438D01*
X99210762Y-43698438D02*
X99163143Y-43746057D01*
X99163143Y-43746057D02*
X99067905Y-43888914D01*
X99067905Y-43888914D02*
X99020286Y-44079390D01*
X99020286Y-44079390D02*
X99020286Y-44460342D01*
X99020286Y-44460342D02*
X99067905Y-44555580D01*
X99067905Y-44555580D02*
X99115524Y-44603200D01*
X99115524Y-44603200D02*
X99210762Y-44650819D01*
X99210762Y-44650819D02*
X99401238Y-44650819D01*
X99401238Y-44650819D02*
X99496476Y-44603200D01*
X99496476Y-44603200D02*
X99544095Y-44555580D01*
X99544095Y-44555580D02*
X99591714Y-44460342D01*
X99591714Y-44460342D02*
X99591714Y-44222247D01*
X99591714Y-44222247D02*
X99544095Y-44127009D01*
X99544095Y-44127009D02*
X99496476Y-44079390D01*
X99496476Y-44079390D02*
X99401238Y-44031771D01*
X99401238Y-44031771D02*
X99210762Y-44031771D01*
X99210762Y-44031771D02*
X99115524Y-44079390D01*
X99115524Y-44079390D02*
X99067905Y-44127009D01*
X99067905Y-44127009D02*
X99020286Y-44222247D01*
X73987319Y-108673166D02*
X73511128Y-109006499D01*
X73987319Y-109244594D02*
X72987319Y-109244594D01*
X72987319Y-109244594D02*
X72987319Y-108863642D01*
X72987319Y-108863642D02*
X73034938Y-108768404D01*
X73034938Y-108768404D02*
X73082557Y-108720785D01*
X73082557Y-108720785D02*
X73177795Y-108673166D01*
X73177795Y-108673166D02*
X73320652Y-108673166D01*
X73320652Y-108673166D02*
X73415890Y-108720785D01*
X73415890Y-108720785D02*
X73463509Y-108768404D01*
X73463509Y-108768404D02*
X73511128Y-108863642D01*
X73511128Y-108863642D02*
X73511128Y-109244594D01*
X72987319Y-107768404D02*
X72987319Y-108244594D01*
X72987319Y-108244594D02*
X73463509Y-108292213D01*
X73463509Y-108292213D02*
X73415890Y-108244594D01*
X73415890Y-108244594D02*
X73368271Y-108149356D01*
X73368271Y-108149356D02*
X73368271Y-107911261D01*
X73368271Y-107911261D02*
X73415890Y-107816023D01*
X73415890Y-107816023D02*
X73463509Y-107768404D01*
X73463509Y-107768404D02*
X73558747Y-107720785D01*
X73558747Y-107720785D02*
X73796842Y-107720785D01*
X73796842Y-107720785D02*
X73892080Y-107768404D01*
X73892080Y-107768404D02*
X73939700Y-107816023D01*
X73939700Y-107816023D02*
X73987319Y-107911261D01*
X73987319Y-107911261D02*
X73987319Y-108149356D01*
X73987319Y-108149356D02*
X73939700Y-108244594D01*
X73939700Y-108244594D02*
X73892080Y-108292213D01*
X96607333Y-109166819D02*
X96274000Y-108690628D01*
X96035905Y-109166819D02*
X96035905Y-108166819D01*
X96035905Y-108166819D02*
X96416857Y-108166819D01*
X96416857Y-108166819D02*
X96512095Y-108214438D01*
X96512095Y-108214438D02*
X96559714Y-108262057D01*
X96559714Y-108262057D02*
X96607333Y-108357295D01*
X96607333Y-108357295D02*
X96607333Y-108500152D01*
X96607333Y-108500152D02*
X96559714Y-108595390D01*
X96559714Y-108595390D02*
X96512095Y-108643009D01*
X96512095Y-108643009D02*
X96416857Y-108690628D01*
X96416857Y-108690628D02*
X96035905Y-108690628D01*
X97083524Y-109166819D02*
X97274000Y-109166819D01*
X97274000Y-109166819D02*
X97369238Y-109119200D01*
X97369238Y-109119200D02*
X97416857Y-109071580D01*
X97416857Y-109071580D02*
X97512095Y-108928723D01*
X97512095Y-108928723D02*
X97559714Y-108738247D01*
X97559714Y-108738247D02*
X97559714Y-108357295D01*
X97559714Y-108357295D02*
X97512095Y-108262057D01*
X97512095Y-108262057D02*
X97464476Y-108214438D01*
X97464476Y-108214438D02*
X97369238Y-108166819D01*
X97369238Y-108166819D02*
X97178762Y-108166819D01*
X97178762Y-108166819D02*
X97083524Y-108214438D01*
X97083524Y-108214438D02*
X97035905Y-108262057D01*
X97035905Y-108262057D02*
X96988286Y-108357295D01*
X96988286Y-108357295D02*
X96988286Y-108595390D01*
X96988286Y-108595390D02*
X97035905Y-108690628D01*
X97035905Y-108690628D02*
X97083524Y-108738247D01*
X97083524Y-108738247D02*
X97178762Y-108785866D01*
X97178762Y-108785866D02*
X97369238Y-108785866D01*
X97369238Y-108785866D02*
X97464476Y-108738247D01*
X97464476Y-108738247D02*
X97512095Y-108690628D01*
X97512095Y-108690628D02*
X97559714Y-108595390D01*
X70817319Y-101512666D02*
X70341128Y-101845999D01*
X70817319Y-102084094D02*
X69817319Y-102084094D01*
X69817319Y-102084094D02*
X69817319Y-101703142D01*
X69817319Y-101703142D02*
X69864938Y-101607904D01*
X69864938Y-101607904D02*
X69912557Y-101560285D01*
X69912557Y-101560285D02*
X70007795Y-101512666D01*
X70007795Y-101512666D02*
X70150652Y-101512666D01*
X70150652Y-101512666D02*
X70245890Y-101560285D01*
X70245890Y-101560285D02*
X70293509Y-101607904D01*
X70293509Y-101607904D02*
X70341128Y-101703142D01*
X70341128Y-101703142D02*
X70341128Y-102084094D01*
X69817319Y-101179332D02*
X69817319Y-100512666D01*
X69817319Y-100512666D02*
X70817319Y-100941237D01*
X109394666Y-71292819D02*
X109394666Y-72007104D01*
X109394666Y-72007104D02*
X109347047Y-72149961D01*
X109347047Y-72149961D02*
X109251809Y-72245200D01*
X109251809Y-72245200D02*
X109108952Y-72292819D01*
X109108952Y-72292819D02*
X109013714Y-72292819D01*
X110299428Y-71626152D02*
X110299428Y-72292819D01*
X110061333Y-71245200D02*
X109823238Y-71959485D01*
X109823238Y-71959485D02*
X110442285Y-71959485D01*
X109294819Y-39854094D02*
X108294819Y-39854094D01*
X108294819Y-39854094D02*
X108294819Y-39615999D01*
X108294819Y-39615999D02*
X108342438Y-39473142D01*
X108342438Y-39473142D02*
X108437676Y-39377904D01*
X108437676Y-39377904D02*
X108532914Y-39330285D01*
X108532914Y-39330285D02*
X108723390Y-39282666D01*
X108723390Y-39282666D02*
X108866247Y-39282666D01*
X108866247Y-39282666D02*
X109056723Y-39330285D01*
X109056723Y-39330285D02*
X109151961Y-39377904D01*
X109151961Y-39377904D02*
X109247200Y-39473142D01*
X109247200Y-39473142D02*
X109294819Y-39615999D01*
X109294819Y-39615999D02*
X109294819Y-39854094D01*
X108294819Y-38377904D02*
X108294819Y-38854094D01*
X108294819Y-38854094D02*
X108771009Y-38901713D01*
X108771009Y-38901713D02*
X108723390Y-38854094D01*
X108723390Y-38854094D02*
X108675771Y-38758856D01*
X108675771Y-38758856D02*
X108675771Y-38520761D01*
X108675771Y-38520761D02*
X108723390Y-38425523D01*
X108723390Y-38425523D02*
X108771009Y-38377904D01*
X108771009Y-38377904D02*
X108866247Y-38330285D01*
X108866247Y-38330285D02*
X109104342Y-38330285D01*
X109104342Y-38330285D02*
X109199580Y-38377904D01*
X109199580Y-38377904D02*
X109247200Y-38425523D01*
X109247200Y-38425523D02*
X109294819Y-38520761D01*
X109294819Y-38520761D02*
X109294819Y-38758856D01*
X109294819Y-38758856D02*
X109247200Y-38854094D01*
X109247200Y-38854094D02*
X109199580Y-38901713D01*
X119485580Y-97194666D02*
X119533200Y-97242285D01*
X119533200Y-97242285D02*
X119580819Y-97385142D01*
X119580819Y-97385142D02*
X119580819Y-97480380D01*
X119580819Y-97480380D02*
X119533200Y-97623237D01*
X119533200Y-97623237D02*
X119437961Y-97718475D01*
X119437961Y-97718475D02*
X119342723Y-97766094D01*
X119342723Y-97766094D02*
X119152247Y-97813713D01*
X119152247Y-97813713D02*
X119009390Y-97813713D01*
X119009390Y-97813713D02*
X118818914Y-97766094D01*
X118818914Y-97766094D02*
X118723676Y-97718475D01*
X118723676Y-97718475D02*
X118628438Y-97623237D01*
X118628438Y-97623237D02*
X118580819Y-97480380D01*
X118580819Y-97480380D02*
X118580819Y-97385142D01*
X118580819Y-97385142D02*
X118628438Y-97242285D01*
X118628438Y-97242285D02*
X118676057Y-97194666D01*
X119009390Y-96623237D02*
X118961771Y-96718475D01*
X118961771Y-96718475D02*
X118914152Y-96766094D01*
X118914152Y-96766094D02*
X118818914Y-96813713D01*
X118818914Y-96813713D02*
X118771295Y-96813713D01*
X118771295Y-96813713D02*
X118676057Y-96766094D01*
X118676057Y-96766094D02*
X118628438Y-96718475D01*
X118628438Y-96718475D02*
X118580819Y-96623237D01*
X118580819Y-96623237D02*
X118580819Y-96432761D01*
X118580819Y-96432761D02*
X118628438Y-96337523D01*
X118628438Y-96337523D02*
X118676057Y-96289904D01*
X118676057Y-96289904D02*
X118771295Y-96242285D01*
X118771295Y-96242285D02*
X118818914Y-96242285D01*
X118818914Y-96242285D02*
X118914152Y-96289904D01*
X118914152Y-96289904D02*
X118961771Y-96337523D01*
X118961771Y-96337523D02*
X119009390Y-96432761D01*
X119009390Y-96432761D02*
X119009390Y-96623237D01*
X119009390Y-96623237D02*
X119057009Y-96718475D01*
X119057009Y-96718475D02*
X119104628Y-96766094D01*
X119104628Y-96766094D02*
X119199866Y-96813713D01*
X119199866Y-96813713D02*
X119390342Y-96813713D01*
X119390342Y-96813713D02*
X119485580Y-96766094D01*
X119485580Y-96766094D02*
X119533200Y-96718475D01*
X119533200Y-96718475D02*
X119580819Y-96623237D01*
X119580819Y-96623237D02*
X119580819Y-96432761D01*
X119580819Y-96432761D02*
X119533200Y-96337523D01*
X119533200Y-96337523D02*
X119485580Y-96289904D01*
X119485580Y-96289904D02*
X119390342Y-96242285D01*
X119390342Y-96242285D02*
X119199866Y-96242285D01*
X119199866Y-96242285D02*
X119104628Y-96289904D01*
X119104628Y-96289904D02*
X119057009Y-96337523D01*
X119057009Y-96337523D02*
X119009390Y-96432761D01*
X102562819Y-86082094D02*
X101562819Y-86082094D01*
X102562819Y-85510666D02*
X101991390Y-85939237D01*
X101562819Y-85510666D02*
X102134247Y-86082094D01*
X101562819Y-85177332D02*
X101562819Y-84558285D01*
X101562819Y-84558285D02*
X101943771Y-84891618D01*
X101943771Y-84891618D02*
X101943771Y-84748761D01*
X101943771Y-84748761D02*
X101991390Y-84653523D01*
X101991390Y-84653523D02*
X102039009Y-84605904D01*
X102039009Y-84605904D02*
X102134247Y-84558285D01*
X102134247Y-84558285D02*
X102372342Y-84558285D01*
X102372342Y-84558285D02*
X102467580Y-84605904D01*
X102467580Y-84605904D02*
X102515200Y-84653523D01*
X102515200Y-84653523D02*
X102562819Y-84748761D01*
X102562819Y-84748761D02*
X102562819Y-85034475D01*
X102562819Y-85034475D02*
X102515200Y-85129713D01*
X102515200Y-85129713D02*
X102467580Y-85177332D01*
X98498819Y-99036094D02*
X97498819Y-99036094D01*
X97498819Y-99036094D02*
X97498819Y-98797999D01*
X97498819Y-98797999D02*
X97546438Y-98655142D01*
X97546438Y-98655142D02*
X97641676Y-98559904D01*
X97641676Y-98559904D02*
X97736914Y-98512285D01*
X97736914Y-98512285D02*
X97927390Y-98464666D01*
X97927390Y-98464666D02*
X98070247Y-98464666D01*
X98070247Y-98464666D02*
X98260723Y-98512285D01*
X98260723Y-98512285D02*
X98355961Y-98559904D01*
X98355961Y-98559904D02*
X98451200Y-98655142D01*
X98451200Y-98655142D02*
X98498819Y-98797999D01*
X98498819Y-98797999D02*
X98498819Y-99036094D01*
X97832152Y-97607523D02*
X98498819Y-97607523D01*
X97451200Y-97845618D02*
X98165485Y-98083713D01*
X98165485Y-98083713D02*
X98165485Y-97464666D01*
D13*
%TO.C,J1*%
X68092000Y-40008000D02*
X68092000Y-30087000D01*
X69377000Y-35816000D02*
X69424000Y-35770000D01*
X69582000Y-36022000D02*
X69617000Y-35986000D01*
X71686000Y-33508000D02*
X71721000Y-33473000D01*
X71879000Y-33724000D02*
X71926000Y-33678000D01*
X78212000Y-30087000D02*
X68092000Y-30087000D01*
X78212000Y-30647000D02*
X68092000Y-30647000D01*
X78212000Y-32147000D02*
X68092000Y-32147000D01*
X78212000Y-37048000D02*
X68092000Y-37048000D01*
X78212000Y-40008000D02*
X68092000Y-40008000D01*
X78212000Y-40008000D02*
X78212000Y-30087000D01*
X78452000Y-29847000D02*
X77952000Y-29847000D01*
X78452000Y-30587000D02*
X78452000Y-29847000D01*
X74116573Y-35430042D02*
G75*
G02*
X74117000Y-34063000I1535427J683042D01*
G01*
X74968682Y-33212244D02*
G75*
G02*
X75652000Y-33067000I683318J-1534756D01*
G01*
X75623195Y-33066747D02*
G75*
G02*
X76336000Y-33212000I28806J-1680254D01*
G01*
X76335042Y-36282427D02*
G75*
G02*
X74968000Y-36282000I-683041J1535420D01*
G01*
X77187427Y-34063958D02*
G75*
G02*
X77187000Y-35431000I-1535420J-683041D01*
G01*
X72332000Y-34747000D02*
G75*
G02*
X68972000Y-34747000I-1680000J0D01*
G01*
X68972000Y-34747000D02*
G75*
G02*
X72332000Y-34747000I1680000J0D01*
G01*
%TO.C,K1*%
X67892000Y-75408000D02*
X83492000Y-75408000D01*
X67892000Y-95208000D02*
X67892000Y-75408000D01*
X67892000Y-95208000D02*
X74492000Y-95208000D01*
X69742000Y-87758000D02*
X69742000Y-90258000D01*
X69742000Y-87758000D02*
X73942000Y-87758000D01*
X71492000Y-79658000D02*
X73992000Y-79658000D01*
X73942000Y-85758000D02*
X77542000Y-85758000D01*
X73942000Y-89758000D02*
X73942000Y-85758000D01*
X75742000Y-82858000D02*
X73242000Y-78258000D01*
X75742000Y-84358000D02*
X75742000Y-82858000D01*
X75742000Y-84358000D02*
X79342000Y-84358000D01*
X75742000Y-91158000D02*
X75742000Y-91958000D01*
X75742000Y-91158000D02*
X79342000Y-91158000D01*
X76892000Y-95208000D02*
X83492000Y-95208000D01*
X77542000Y-85758000D02*
X73942000Y-89758000D01*
X77542000Y-85758000D02*
X77542000Y-89758000D01*
X77542000Y-87758000D02*
X81742000Y-87758000D01*
X77542000Y-89758000D02*
X73942000Y-89758000D01*
X79342000Y-84358000D02*
X79342000Y-91158000D01*
X79892000Y-79658000D02*
X77442000Y-79658000D01*
X81742000Y-90258000D02*
X81742000Y-87758000D01*
X83492000Y-75408000D02*
X83492000Y-95208000D01*
%TO.C,JP2*%
X108144000Y-54550000D02*
X109474000Y-54550000D01*
X108144000Y-55880000D02*
X108144000Y-54550000D01*
X108144000Y-57150000D02*
X108144000Y-62290000D01*
X108144000Y-57150000D02*
X110804000Y-57150000D01*
X108144000Y-62290000D02*
X110804000Y-62290000D01*
X110804000Y-57150000D02*
X110804000Y-62290000D01*
%TO.C,TP2*%
X89220000Y-44262000D02*
X91120000Y-44262000D01*
X89220000Y-46162000D02*
X89220000Y-44262000D01*
X91120000Y-44262000D02*
X91120000Y-46162000D01*
X91120000Y-46162000D02*
X89220000Y-46162000D01*
%TO.C,Q1*%
X74578500Y-105034500D02*
X74578500Y-104234500D01*
X74578500Y-105034500D02*
X74578500Y-105834500D01*
X77698500Y-105034500D02*
X77698500Y-104234500D01*
X77698500Y-105034500D02*
X77698500Y-105834500D01*
X74628500Y-106334500D02*
X74298500Y-106574500D01*
X74298500Y-106094500D01*
X74628500Y-106334500D01*
G36*
X74628500Y-106334500D02*
G01*
X74298500Y-106574500D01*
X74298500Y-106094500D01*
X74628500Y-106334500D01*
G37*
%TO.C,U1*%
X69596000Y-51248000D02*
X70926000Y-51248000D01*
X70926000Y-51248000D02*
X70926000Y-52578000D01*
X70926000Y-53848000D02*
X70926000Y-71688000D01*
X68199000Y-50927000D02*
X87249000Y-50927000D01*
X87249000Y-72009000D01*
X68199000Y-72009000D01*
X68199000Y-50927000D01*
X87249000Y-50927000D02*
X97790000Y-50927000D01*
X97790000Y-72009000D01*
X87249000Y-72009000D01*
X87249000Y-50927000D01*
%TO.C,D2*%
X75966500Y-102306000D02*
X78826500Y-102306000D01*
X78826500Y-100386000D02*
X75966500Y-100386000D01*
X78826500Y-102306000D02*
X78826500Y-100386000D01*
%TO.C,R10*%
X89689000Y-104674936D02*
X89689000Y-105129064D01*
X91159000Y-104674936D02*
X91159000Y-105129064D01*
%TO.C,Q3*%
X92166000Y-105156000D02*
X92166000Y-104356000D01*
X92166000Y-105156000D02*
X92166000Y-105956000D01*
X95286000Y-105156000D02*
X95286000Y-104356000D01*
X95286000Y-105156000D02*
X95286000Y-105956000D01*
X92216000Y-106456000D02*
X91886000Y-106696000D01*
X91886000Y-106216000D01*
X92216000Y-106456000D01*
G36*
X92216000Y-106456000D02*
G01*
X91886000Y-106696000D01*
X91886000Y-106216000D01*
X92216000Y-106456000D01*
G37*
%TO.C,R1*%
X100334500Y-60050936D02*
X100334500Y-64405064D01*
X103754500Y-60050936D02*
X103754500Y-64405064D01*
%TO.C,R4*%
X106482000Y-102229436D02*
X106482000Y-102683564D01*
X107952000Y-102229436D02*
X107952000Y-102683564D01*
%TO.C,D3*%
X93448500Y-102395000D02*
X96308500Y-102395000D01*
X96308500Y-100475000D02*
X93448500Y-100475000D01*
X96308500Y-102395000D02*
X96308500Y-100475000D01*
%TO.C,BT1*%
X44814000Y-31358000D02*
X64914000Y-31358000D01*
X44814000Y-109358000D02*
X44814000Y-31358000D01*
X64914000Y-31358000D02*
X64914000Y-109358000D01*
X64914000Y-109358000D02*
X44814000Y-109358000D01*
%TO.C,TP1*%
X85156000Y-44262000D02*
X87056000Y-44262000D01*
X85156000Y-46162000D02*
X85156000Y-44262000D01*
X87056000Y-44262000D02*
X87056000Y-46162000D01*
X87056000Y-46162000D02*
X85156000Y-46162000D01*
%TO.C,C4*%
X93753000Y-39128248D02*
X93753000Y-39650752D01*
X95223000Y-39128248D02*
X95223000Y-39650752D01*
%TO.C,D1*%
X70395000Y-96492000D02*
X70395000Y-99792000D01*
X70395000Y-96492000D02*
X77405000Y-96492000D01*
X70395000Y-99792000D02*
X77405000Y-99792000D01*
%TO.C,D6*%
X100640000Y-105181000D02*
X100640000Y-108041000D01*
X100640000Y-108041000D02*
X102560000Y-108041000D01*
X102560000Y-108041000D02*
X102560000Y-105181000D01*
D12*
%TO.C,U4*%
X109410500Y-30128500D02*
X137810500Y-30128500D01*
X109410500Y-32228500D02*
X109410500Y-30128500D01*
X109410500Y-32528500D02*
X109410500Y-32228500D01*
X109410500Y-45428500D02*
X111710500Y-45428500D01*
X109410500Y-47928500D02*
X109410500Y-45428500D01*
X111510500Y-32528500D02*
X109410500Y-32528500D01*
X111510500Y-47928500D02*
X109410500Y-47928500D01*
X111710500Y-32528500D02*
X111410500Y-32528500D01*
X111710500Y-45428500D02*
X111710500Y-32528500D01*
X134910500Y-36928500D02*
X137410500Y-36928500D01*
X134910500Y-40728500D02*
X134910500Y-36928500D01*
X137410500Y-36928500D02*
X137410500Y-40628500D01*
X137410500Y-40728500D02*
X134910500Y-40728500D01*
X137810500Y-30128500D02*
X137810500Y-47928500D01*
X137810500Y-47928500D02*
X111510500Y-47928500D01*
D13*
%TO.C,C5*%
X93753000Y-35774752D02*
X93753000Y-35252248D01*
X95223000Y-35774752D02*
X95223000Y-35252248D01*
%TO.C,R8*%
X90130436Y-100611000D02*
X90584564Y-100611000D01*
X90130436Y-102081000D02*
X90584564Y-102081000D01*
%TO.C,SW1*%
X68921500Y-48394000D02*
X68921500Y-43554000D01*
X71841500Y-45339000D02*
X71841500Y-46609000D01*
X71841500Y-46609000D02*
X75901500Y-46609000D01*
X74548167Y-46609000D02*
X74548167Y-45339000D01*
X75901500Y-45339000D02*
X71841500Y-45339000D01*
X75901500Y-45409000D02*
X74548167Y-45409000D01*
X75901500Y-45529000D02*
X74548167Y-45529000D01*
X75901500Y-45649000D02*
X74548167Y-45649000D01*
X75901500Y-45769000D02*
X74548167Y-45769000D01*
X75901500Y-45889000D02*
X74548167Y-45889000D01*
X75901500Y-46009000D02*
X74548167Y-46009000D01*
X75901500Y-46129000D02*
X74548167Y-46129000D01*
X75901500Y-46249000D02*
X74548167Y-46249000D01*
X75901500Y-46369000D02*
X74548167Y-46369000D01*
X75901500Y-46489000D02*
X74548167Y-46489000D01*
X75901500Y-46609000D02*
X75901500Y-45339000D01*
X78821500Y-43554000D02*
X68921500Y-43554000D01*
X78821500Y-48394000D02*
X68921500Y-48394000D01*
X78821500Y-48394000D02*
X78821500Y-43554000D01*
X79061500Y-48634000D02*
X77677500Y-48634000D01*
X79061500Y-48634000D02*
X79061500Y-47251000D01*
%TO.C,JP1*%
X100596000Y-56688000D02*
X100596000Y-56088000D01*
X101296000Y-55388000D02*
X102696000Y-55388000D01*
X102696000Y-57388000D02*
X101296000Y-57388000D01*
X103396000Y-56088000D02*
X103396000Y-56688000D01*
X100596000Y-56088000D02*
G75*
G02*
X101296000Y-55388000I699999J1D01*
G01*
X101296000Y-57388000D02*
G75*
G02*
X100596000Y-56688000I-1J699999D01*
G01*
X102696000Y-55388000D02*
G75*
G02*
X103396000Y-56088000I0J-700000D01*
G01*
X103396000Y-56688000D02*
G75*
G02*
X102696000Y-57388000I-700000J0D01*
G01*
%TO.C,U5*%
X98632000Y-33815500D02*
X102392000Y-33815500D01*
X98632000Y-40635500D02*
X102392000Y-40635500D01*
X102392000Y-33815500D02*
X102392000Y-35075500D01*
X102392000Y-40635500D02*
X102392000Y-39375500D01*
X97352000Y-33915500D02*
X97112000Y-33585500D01*
X97592000Y-33585500D01*
X97352000Y-33915500D01*
G36*
X97352000Y-33915500D02*
G01*
X97112000Y-33585500D01*
X97592000Y-33585500D01*
X97352000Y-33915500D01*
G37*
%TO.C,R6*%
X72101500Y-104535436D02*
X72101500Y-104989564D01*
X73571500Y-104535436D02*
X73571500Y-104989564D01*
%TO.C,U3*%
X112776000Y-52459000D02*
X137160000Y-52459000D01*
X112776000Y-109609000D02*
X112776000Y-52459000D01*
X112776000Y-109609000D02*
X121005600Y-109609000D01*
X114748000Y-59384000D02*
X114748000Y-60714000D01*
X114748000Y-59384000D02*
X116078000Y-59384000D01*
X114748000Y-61984000D02*
X114748000Y-102684000D01*
X114748000Y-61984000D02*
X117408000Y-61984000D01*
X117408000Y-61984000D02*
X117408000Y-102684000D01*
X117408000Y-102684000D02*
X114748000Y-102684000D01*
X119694515Y-78713978D02*
X120401621Y-79421085D01*
X119694515Y-80976720D02*
X120401621Y-80269613D01*
X119828000Y-53034000D02*
X119828000Y-55694000D01*
X119828000Y-55694000D02*
X130108000Y-55694000D01*
X119906647Y-78501846D02*
X119694515Y-78713978D01*
X119906647Y-78501846D02*
X120613753Y-79208953D01*
X119906647Y-81188852D02*
X119694515Y-80976720D01*
X119906647Y-81188852D02*
X120613753Y-80481745D01*
X120027357Y-79795349D02*
X124877105Y-74945601D01*
X120027357Y-79895349D02*
X120027357Y-79795349D01*
X120048068Y-78360425D02*
X120755175Y-79067531D01*
X120048068Y-81330273D02*
X120755175Y-80623166D01*
X120260200Y-78148293D02*
X120048068Y-78360425D01*
X120260200Y-78148293D02*
X120967307Y-78855399D01*
X120260200Y-81542405D02*
X120048068Y-81330273D01*
X120260200Y-81542405D02*
X120967307Y-80835298D01*
X120401621Y-78006871D02*
X121108728Y-78713978D01*
X120401621Y-81683826D02*
X121108728Y-80976720D01*
X120613753Y-77794739D02*
X120401621Y-78006871D01*
X120613753Y-77794739D02*
X121320860Y-78501846D01*
X120613753Y-81895959D02*
X120401621Y-81683826D01*
X120613753Y-81895959D02*
X121320860Y-81188852D01*
X120755175Y-77653318D02*
X121462281Y-78360425D01*
X120755175Y-82037380D02*
X121462281Y-81330273D01*
X120930512Y-109871108D02*
X121209166Y-109554847D01*
X120967307Y-77441186D02*
X120755175Y-77653318D01*
X120967307Y-77441186D02*
X121674414Y-78148293D01*
X120967307Y-82249512D02*
X120755175Y-82037380D01*
X120967307Y-82249512D02*
X121674414Y-81542405D01*
X121005600Y-109609000D02*
X121005600Y-110599600D01*
X121005600Y-110599600D02*
X128930400Y-110599600D01*
X121095784Y-109683531D02*
X121280659Y-109846422D01*
X121096481Y-62290386D02*
X121096481Y-61790386D01*
X121108728Y-77299764D02*
X121815835Y-78006871D01*
X121108728Y-82390933D02*
X121815835Y-81683826D01*
X121115387Y-110034000D02*
X120930512Y-109871108D01*
X121157000Y-68792527D02*
X121157000Y-68981630D01*
X121158000Y-68234000D02*
X126238000Y-68232400D01*
X121158000Y-70774000D02*
X121158000Y-65894000D01*
X121258000Y-65794000D02*
X126138000Y-65794000D01*
X121270589Y-104623874D02*
X121270589Y-104850797D01*
X121270589Y-105498874D02*
X121270589Y-105539619D01*
X121270589Y-105598874D02*
X121270589Y-105652720D01*
X121271572Y-109392500D02*
X121276513Y-109384331D01*
X121271589Y-104384000D02*
X128664410Y-104384000D01*
X121271589Y-109389575D02*
X121271572Y-109392500D01*
X121271589Y-109389575D02*
X121271589Y-104384000D01*
X121276513Y-109384331D02*
X121278103Y-109384000D01*
X121278103Y-109384000D02*
X121768000Y-109384000D01*
X121280479Y-79806891D02*
X121298349Y-79818894D01*
X121280479Y-79806891D02*
X121298349Y-79818894D01*
X121298349Y-79818894D02*
X121314687Y-79823464D01*
X121298349Y-79818894D02*
X121314687Y-79823464D01*
X121314687Y-79823464D02*
X121393362Y-79823491D01*
X121314687Y-79823464D02*
X121393362Y-79823491D01*
X121320860Y-77087632D02*
X121108728Y-77299764D01*
X121320860Y-77087632D02*
X122027967Y-77794739D01*
X121320860Y-82603065D02*
X121108728Y-82390933D01*
X121320860Y-82603065D02*
X122027967Y-81895959D01*
X121393142Y-109718759D02*
X121115387Y-110034000D01*
X121393362Y-79823491D02*
X121455131Y-79819852D01*
X121393362Y-79823491D02*
X121455131Y-79819852D01*
X121408918Y-79445795D02*
X121694481Y-79160233D01*
X121425385Y-79571047D02*
X121419329Y-79707348D01*
X121455131Y-79819852D02*
X121527604Y-79814857D01*
X121455131Y-79819852D02*
X121527604Y-79814857D01*
X121462281Y-76946211D02*
X122169388Y-77653318D01*
X121462281Y-82744487D02*
X122169388Y-82037380D01*
X121472766Y-80243946D02*
X121506231Y-80109983D01*
X121504106Y-79540983D02*
X121408918Y-79445795D01*
X121506231Y-80109983D02*
X121596792Y-80120516D01*
X121506231Y-80109983D02*
X121596792Y-80120516D01*
X121506298Y-109495701D02*
X121618000Y-109384000D01*
X121508728Y-109484000D02*
X121253072Y-109484000D01*
X121517988Y-109384000D02*
X121517988Y-109388215D01*
X121527604Y-79814857D02*
X121584633Y-79812734D01*
X121527604Y-79814857D02*
X121584633Y-79812734D01*
X121584633Y-79812734D02*
X121691006Y-79831731D01*
X121584633Y-79812734D02*
X121691006Y-79831731D01*
X121596792Y-80120516D02*
X121631539Y-80111370D01*
X121596792Y-80120516D02*
X121631539Y-80111370D01*
X121599293Y-79445795D02*
X121504106Y-79540983D01*
X121631539Y-80111370D02*
X121661123Y-80091073D01*
X121631539Y-80111370D02*
X121661123Y-80091073D01*
X121674414Y-76734079D02*
X121462281Y-76946211D01*
X121674414Y-76734079D02*
X122381520Y-77441186D01*
X121674414Y-82956619D02*
X121462281Y-82744487D01*
X121674414Y-82956619D02*
X122381520Y-82249512D01*
X121691006Y-79831731D02*
X121761091Y-79879557D01*
X121691006Y-79831731D02*
X121761091Y-79879557D01*
X121694481Y-79160233D02*
X121789668Y-79255420D01*
X121694481Y-79350608D02*
X122129623Y-79785750D01*
X121768000Y-109384000D02*
X121771589Y-109384064D01*
X121771589Y-109384064D02*
X121771589Y-104374000D01*
X121789668Y-79255420D02*
X121694481Y-79350608D01*
X121811234Y-79043480D02*
X121910034Y-78944680D01*
X121815835Y-76592658D02*
X122522942Y-77299764D01*
X121815835Y-83098040D02*
X122522942Y-82390933D01*
X121828000Y-66464000D02*
X125568000Y-66464000D01*
X121828000Y-67664000D02*
X121828000Y-66464000D01*
X121828000Y-69003999D02*
X125568000Y-69003999D01*
X121828000Y-70204000D02*
X121828000Y-69003999D01*
X121829535Y-109405175D02*
X128106464Y-109405175D01*
X121846481Y-60390387D02*
X121846481Y-63690386D01*
X121846481Y-61790386D02*
X121096481Y-61790386D01*
X121846481Y-62290386D02*
X121096481Y-62290386D01*
X121868000Y-109829211D02*
X121868000Y-109484000D01*
X121910034Y-78944680D02*
X122400950Y-79193591D01*
X121920577Y-92938340D02*
X128220577Y-92938340D01*
X121920577Y-97463340D02*
X128220577Y-97463340D01*
X121946481Y-63790386D02*
X127746481Y-63790386D01*
X121996481Y-61140386D02*
X122096481Y-61040386D01*
X121996481Y-62940386D02*
X121996481Y-61140386D01*
X122027967Y-76380526D02*
X121815835Y-76592658D01*
X122027967Y-76380526D02*
X122735074Y-77087632D01*
X122027967Y-83310172D02*
X121815835Y-83098040D01*
X122027967Y-83310172D02*
X122735074Y-82603065D01*
X122034436Y-79880938D02*
X121599293Y-79445795D01*
X122070025Y-79175425D02*
X122348470Y-79566904D01*
X122096481Y-61040386D02*
X122746481Y-61040386D01*
X122096481Y-63040386D02*
X121996481Y-62940386D01*
X122109801Y-66745801D02*
X122746198Y-66745801D01*
X122109801Y-67382198D02*
X122109801Y-66745801D01*
X122109801Y-69285801D02*
X122746198Y-69285801D01*
X122109801Y-69922198D02*
X122109801Y-69285801D01*
X122118000Y-109890605D02*
X122118000Y-110034000D01*
X122118000Y-109890605D02*
X127818000Y-109890605D01*
X122118000Y-110034000D02*
X127818000Y-110034000D01*
X122129623Y-79785750D02*
X122034436Y-79880938D01*
X122152889Y-78701825D02*
X122250732Y-78603981D01*
X122169388Y-76239104D02*
X122876495Y-76946211D01*
X122169388Y-83451593D02*
X122876495Y-82744487D01*
X122250732Y-78603981D02*
X122870726Y-79044648D01*
X122252007Y-79663367D02*
X121811234Y-79043480D01*
X122348470Y-79566904D02*
X122252007Y-79663367D01*
X122381520Y-76026972D02*
X122169388Y-76239104D01*
X122381520Y-76026972D02*
X123088627Y-76734079D01*
X122381520Y-83663725D02*
X122169388Y-83451593D01*
X122381520Y-83663725D02*
X123088627Y-82956619D01*
X122382784Y-78862666D02*
X122607473Y-79307901D01*
X122400950Y-79193591D02*
X122152889Y-78701825D01*
X122482819Y-63791386D02*
X122503191Y-63791386D01*
X122491569Y-78434535D02*
X122512066Y-78333867D01*
X122491569Y-78434535D02*
X122512066Y-78333867D01*
X122503878Y-78497605D02*
X122491569Y-78434535D01*
X122503878Y-78497605D02*
X122491569Y-78434535D01*
X122512066Y-78333867D02*
X122559454Y-78268063D01*
X122512066Y-78333867D02*
X122559454Y-78268063D01*
X122514623Y-79400751D02*
X122070025Y-79175425D01*
X122522942Y-75885551D02*
X123230048Y-76592658D01*
X122522942Y-83805147D02*
X123230048Y-83098040D01*
X122532819Y-63791386D02*
X122559742Y-63791386D01*
X122544369Y-78568711D02*
X122503878Y-78497605D01*
X122544369Y-78568711D02*
X122503878Y-78497605D01*
X122607473Y-79307901D02*
X122514623Y-79400751D01*
X122639556Y-78473523D02*
X122544369Y-78568711D01*
X122707547Y-81397138D02*
X122965913Y-81138772D01*
X122721145Y-78527916D02*
X122772829Y-78449059D01*
X122721145Y-78527916D02*
X122772829Y-78449059D01*
X122735074Y-75673419D02*
X122522942Y-75885551D01*
X122735074Y-75673419D02*
X123442180Y-76380526D01*
X122735074Y-84017279D02*
X122522942Y-83805147D01*
X122735074Y-84017279D02*
X123442180Y-83310172D01*
X122746198Y-66745801D02*
X122746198Y-67382198D01*
X122746198Y-67382198D02*
X122109801Y-67382198D01*
X122746198Y-69285801D02*
X122746198Y-69922198D01*
X122746198Y-69922198D02*
X122109801Y-69922198D01*
X122746481Y-63040386D02*
X122096481Y-63040386D01*
X122755141Y-78833876D02*
X122850328Y-78738688D01*
X122771006Y-78379614D02*
X122757478Y-78360276D01*
X122771006Y-78379614D02*
X122757478Y-78360276D01*
X122772829Y-78449059D02*
X122777744Y-78402279D01*
X122772829Y-78449059D02*
X122777744Y-78402279D01*
X122774370Y-79141004D02*
X122382784Y-78862666D01*
X122777744Y-78402279D02*
X122771006Y-78379614D01*
X122777744Y-78402279D02*
X122771006Y-78379614D01*
X122809534Y-78616305D02*
X122721145Y-78527916D01*
X122846481Y-61140386D02*
X122846481Y-62940386D01*
X122870726Y-79044648D02*
X122774370Y-79141004D01*
X122876495Y-75531997D02*
X123583602Y-76239104D01*
X122876495Y-84158700D02*
X123583602Y-83451593D01*
X122897922Y-81397138D02*
X122999909Y-81499125D01*
X122910759Y-78550378D02*
X122809534Y-78616305D01*
X122910759Y-78550378D02*
X122809534Y-78616305D01*
X122965913Y-81138772D02*
X123061101Y-81233959D01*
X122971058Y-78545524D02*
X122910759Y-78550378D01*
X122971058Y-78545524D02*
X122910759Y-78550378D01*
X122999909Y-81499125D02*
X123163087Y-81335946D01*
X122999939Y-78554904D02*
X122971058Y-78545524D01*
X122999939Y-78554904D02*
X122971058Y-78545524D01*
X123024449Y-78572854D02*
X122999939Y-78554904D01*
X123024449Y-78572854D02*
X122999939Y-78554904D01*
X123034905Y-78004099D02*
X123038158Y-78056530D01*
X123034905Y-78004099D02*
X123038158Y-78056530D01*
X123038158Y-78056530D02*
X123081498Y-78126769D01*
X123038158Y-78056530D02*
X123081498Y-78126769D01*
X123059719Y-77958173D02*
X123034905Y-78004099D01*
X123059719Y-77958173D02*
X123034905Y-78004099D01*
X123061101Y-81233959D02*
X122897922Y-81397138D01*
X123081498Y-78126769D02*
X122986310Y-78221957D01*
X123088627Y-75319865D02*
X122876495Y-75531997D01*
X123088627Y-75319865D02*
X123795734Y-76026972D01*
X123088627Y-84370832D02*
X122876495Y-84158700D01*
X123088627Y-84370832D02*
X123795734Y-83663725D01*
X123095096Y-81594312D02*
X123333065Y-81832281D01*
X123117937Y-80986748D02*
X123265074Y-80839611D01*
X123149489Y-81131973D02*
X123117937Y-80986748D01*
X123163087Y-81335946D02*
X123258275Y-81431133D01*
X123230048Y-75178444D02*
X123937155Y-75885551D01*
X123230048Y-84512254D02*
X123937155Y-83805147D01*
X123237877Y-81927468D02*
X122707547Y-81397138D01*
X123252658Y-78065251D02*
X123199632Y-77959341D01*
X123252658Y-78065251D02*
X123199632Y-77959341D01*
X123258275Y-81023187D02*
X123149489Y-81131973D01*
X123258275Y-81431133D02*
X123095096Y-81594312D01*
X123265074Y-80839611D02*
X123795404Y-81369942D01*
X123267942Y-78216751D02*
X123252658Y-78065251D01*
X123267942Y-78216751D02*
X123252658Y-78065251D01*
X123278034Y-78540877D02*
X123267942Y-78216751D01*
X123326266Y-78589108D02*
X123278034Y-78540877D01*
X123333065Y-81832281D02*
X123237877Y-81927468D01*
X123346481Y-62940386D02*
X123346481Y-61140386D01*
X123404880Y-78206871D02*
X123412954Y-78325643D01*
X123412954Y-78325643D02*
X123591431Y-78147166D01*
X123442180Y-74966312D02*
X123230048Y-75178444D01*
X123442180Y-74966312D02*
X124149287Y-75673419D01*
X123442180Y-84724386D02*
X123230048Y-84512254D01*
X123442180Y-84724386D02*
X124149287Y-84017279D01*
X123446481Y-61040386D02*
X126246481Y-61040386D01*
X123504214Y-89325495D02*
X123504214Y-88588148D01*
X123505214Y-89731822D02*
X123505214Y-88181822D01*
X123530214Y-88156822D02*
X126680214Y-88156822D01*
X123537144Y-80684613D02*
X123545383Y-80559783D01*
X123537144Y-80684613D02*
X123545383Y-80559783D01*
X123545383Y-80559783D02*
X123600036Y-80477453D01*
X123545383Y-80559783D02*
X123600036Y-80477453D01*
X123583602Y-74824891D02*
X124290709Y-75531997D01*
X123583602Y-84865807D02*
X124290709Y-84158700D01*
X123591431Y-78147166D02*
X123679819Y-78235555D01*
X123593408Y-80807880D02*
X123537144Y-80684613D01*
X123593408Y-80807880D02*
X123537144Y-80684613D01*
X123600036Y-80477453D02*
X123652340Y-80436345D01*
X123600036Y-80477453D02*
X123652340Y-80436345D01*
X123652340Y-80436345D02*
X123713955Y-80411500D01*
X123652340Y-80436345D02*
X123713955Y-80411500D01*
X123668654Y-80644498D02*
X123696455Y-80720762D01*
X123668654Y-80644498D02*
X123696455Y-80720762D01*
X123675188Y-80604325D02*
X123668654Y-80644498D01*
X123675188Y-80604325D02*
X123668654Y-80644498D01*
X123679819Y-78235555D02*
X123326266Y-78589108D01*
X123696455Y-80720762D02*
X123801672Y-80845879D01*
X123696455Y-80720762D02*
X123801672Y-80845879D01*
X123697560Y-80570303D02*
X123675188Y-80604325D01*
X123697560Y-80570303D02*
X123675188Y-80604325D01*
X123700216Y-81465129D02*
X123258275Y-81023187D01*
X123705422Y-80940004D02*
X123593408Y-80807880D01*
X123705422Y-80940004D02*
X123593408Y-80807880D01*
X123713955Y-80411500D02*
X123780217Y-80407017D01*
X123713955Y-80411500D02*
X123780217Y-80407017D01*
X123730663Y-80549252D02*
X123697560Y-80570303D01*
X123769696Y-80544581D02*
X123730663Y-80549252D01*
X123780217Y-80407017D02*
X123845177Y-80421376D01*
X123780217Y-80407017D02*
X123845177Y-80421376D01*
X123795404Y-81369942D02*
X123700216Y-81465129D01*
X123795734Y-74612759D02*
X123583602Y-74824891D01*
X123795734Y-74612759D02*
X124502841Y-75319865D01*
X123795734Y-85077939D02*
X123583602Y-84865807D01*
X123795734Y-85077939D02*
X124502841Y-84370832D01*
X123801672Y-80845879D02*
X123921369Y-80943140D01*
X123801672Y-80845879D02*
X123921369Y-80943140D01*
X123803922Y-81027374D02*
X123705422Y-80940004D01*
X123803922Y-81027374D02*
X123705422Y-80940004D01*
X123843996Y-80569335D02*
X123769696Y-80544581D01*
X123845177Y-80421376D02*
X123961067Y-80486238D01*
X123845177Y-80421376D02*
X123961067Y-80486238D01*
X123918878Y-81090534D02*
X123803922Y-81027374D01*
X123918878Y-81090534D02*
X123803922Y-81027374D01*
X123921369Y-80943140D02*
X123994728Y-80964982D01*
X123921369Y-80943140D02*
X123994728Y-80964982D01*
X123953377Y-80222699D02*
X123973873Y-80122032D01*
X123953377Y-80222699D02*
X123973873Y-80122032D01*
X123961067Y-80486238D02*
X124060781Y-80574659D01*
X123961067Y-80486238D02*
X124060781Y-80574659D01*
X123965594Y-80669846D02*
X123843996Y-80569335D01*
X123965686Y-80285769D02*
X123953377Y-80222699D01*
X123965686Y-80285769D02*
X123953377Y-80222699D01*
X123973873Y-80122032D02*
X124021261Y-80056227D01*
X123973873Y-80122032D02*
X124021261Y-80056227D01*
X123983201Y-81104039D02*
X123918878Y-81090534D01*
X123983201Y-81104039D02*
X123918878Y-81090534D01*
X123994728Y-80964982D02*
X124032645Y-80958631D01*
X123994728Y-80964982D02*
X124032645Y-80958631D01*
X124006176Y-80356875D02*
X123965686Y-80285769D01*
X124006176Y-80356875D02*
X123965686Y-80285769D01*
X124028424Y-80739450D02*
X123965594Y-80669846D01*
X124028424Y-80739450D02*
X123965594Y-80669846D01*
X124032645Y-80958631D02*
X124064712Y-80937455D01*
X124032645Y-80958631D02*
X124064712Y-80937455D01*
X124048634Y-81099014D02*
X123983201Y-81104039D01*
X124048634Y-81099014D02*
X123983201Y-81104039D01*
X124060781Y-80574659D02*
X124148827Y-80673857D01*
X124060781Y-80574659D02*
X124148827Y-80673857D01*
X124086384Y-80842905D02*
X124028424Y-80739450D01*
X124086384Y-80842905D02*
X124028424Y-80739450D01*
X124101363Y-80261688D02*
X124006176Y-80356875D01*
X124109025Y-81073330D02*
X124048634Y-81099014D01*
X124109025Y-81073330D02*
X124048634Y-81099014D01*
X124148827Y-80673857D02*
X124213840Y-80788962D01*
X124148827Y-80673857D02*
X124213840Y-80788962D01*
X124160324Y-81032217D02*
X124109025Y-81073330D01*
X124160324Y-81032217D02*
X124109025Y-81073330D01*
X124182953Y-80316080D02*
X124234637Y-80237224D01*
X124182953Y-80316080D02*
X124234637Y-80237224D01*
X124201642Y-80980469D02*
X124160324Y-81032217D01*
X124201642Y-80980469D02*
X124160324Y-81032217D01*
X124213840Y-80788962D02*
X124229491Y-80853311D01*
X124213840Y-80788962D02*
X124229491Y-80853311D01*
X124216948Y-80622040D02*
X124312136Y-80526853D01*
X124226734Y-80919337D02*
X124201642Y-80980469D01*
X124226734Y-80919337D02*
X124201642Y-80980469D01*
X124229491Y-80853311D02*
X124226734Y-80919337D01*
X124229491Y-80853311D02*
X124226734Y-80919337D01*
X124232813Y-80167779D02*
X124219285Y-80148440D01*
X124232813Y-80167779D02*
X124219285Y-80148440D01*
X124234637Y-80237224D02*
X124239551Y-80190443D01*
X124234637Y-80237224D02*
X124239551Y-80190443D01*
X124239551Y-80190443D02*
X124232813Y-80167779D01*
X124239551Y-80190443D02*
X124232813Y-80167779D01*
X124271341Y-80404469D02*
X124182953Y-80316080D01*
X124372567Y-80338543D02*
X124271341Y-80404469D01*
X124372567Y-80338543D02*
X124271341Y-80404469D01*
X124432865Y-80333688D02*
X124372567Y-80338543D01*
X124432865Y-80333688D02*
X124372567Y-80338543D01*
X124461747Y-80343068D02*
X124432865Y-80333688D01*
X124461747Y-80343068D02*
X124432865Y-80333688D01*
X124486256Y-80361018D02*
X124461747Y-80343068D01*
X124486256Y-80361018D02*
X124461747Y-80343068D01*
X124507292Y-99894766D02*
X124737292Y-99894766D01*
X124507292Y-101194766D02*
X124507292Y-99894766D01*
X124507292Y-101194766D02*
X124737292Y-101194766D01*
X124541393Y-79536096D02*
X124714784Y-79432340D01*
X124541393Y-79536096D02*
X124714784Y-79432340D01*
X124649801Y-66745801D02*
X125286198Y-66745801D01*
X124649801Y-67382198D02*
X124649801Y-66745801D01*
X124649801Y-69285801D02*
X125286198Y-69285801D01*
X124649801Y-69922198D02*
X124649801Y-69285801D01*
X124714784Y-79432340D02*
X124873274Y-79415412D01*
X124714784Y-79432340D02*
X124873274Y-79415412D01*
X124727610Y-79573006D02*
X124632862Y-79635002D01*
X124727610Y-79573006D02*
X124632862Y-79635002D01*
X124737292Y-99344766D02*
X124737292Y-99894766D01*
X124737292Y-99344766D02*
X125177292Y-99344766D01*
X124737292Y-99894766D02*
X125177292Y-99894766D01*
X124737292Y-101744766D02*
X124737292Y-101189766D01*
X124870193Y-79551925D02*
X124727610Y-79573006D01*
X124870193Y-79551925D02*
X124727610Y-79573006D01*
X124873274Y-79415412D02*
X124870193Y-79551925D01*
X124877105Y-84745096D02*
X120027357Y-79895349D01*
X124877105Y-84745096D02*
X124977105Y-84745096D01*
X124977105Y-74945601D02*
X124877105Y-74945601D01*
X124977105Y-74945601D02*
X129826852Y-79795349D01*
X124977105Y-84745096D02*
X129826852Y-79895349D01*
X125059103Y-79420144D02*
X124997889Y-79376848D01*
X125059103Y-79420144D02*
X124997889Y-79376848D01*
X125083090Y-79764822D02*
X125221834Y-79768221D01*
X125151719Y-79442502D02*
X125059103Y-79420144D01*
X125151719Y-79442502D02*
X125059103Y-79420144D01*
X125155216Y-79541803D02*
X125151719Y-79442502D01*
X125155216Y-79541803D02*
X125151719Y-79442502D01*
X125177292Y-99344766D02*
X125177292Y-99894766D01*
X125177292Y-99894766D02*
X126737292Y-99894766D01*
X125177292Y-101189766D02*
X124737292Y-101189766D01*
X125177292Y-101194766D02*
X125737292Y-101194766D01*
X125177292Y-101744766D02*
X124737292Y-101744766D01*
X125177292Y-101744766D02*
X125177292Y-101189766D01*
X125188119Y-79966010D02*
X125097432Y-80095110D01*
X125188119Y-79966010D02*
X125097432Y-80095110D01*
X125217479Y-79650831D02*
X125155216Y-79541803D01*
X125217479Y-79650831D02*
X125155216Y-79541803D01*
X125221834Y-79768221D02*
X125188119Y-79966010D01*
X125221834Y-79768221D02*
X125188119Y-79966010D01*
X125236814Y-78867871D02*
X125522376Y-78582309D01*
X125286198Y-66745801D02*
X125286198Y-67382198D01*
X125286198Y-67382198D02*
X124649801Y-67382198D01*
X125286198Y-69285801D02*
X125286198Y-69922198D01*
X125286198Y-69922198D02*
X124649801Y-69922198D01*
X125305336Y-79072376D02*
X125355043Y-79152555D01*
X125305336Y-79072376D02*
X125355043Y-79152555D01*
X125332001Y-78963059D02*
X125236814Y-78867871D01*
X125355043Y-79152555D02*
X125368121Y-79226099D01*
X125355043Y-79152555D02*
X125368121Y-79226099D01*
X125427189Y-78867871D02*
X125332001Y-78963059D01*
X125522376Y-78582309D02*
X125617564Y-78677497D01*
X125522376Y-78772684D02*
X125957519Y-79207827D01*
X125568000Y-66464000D02*
X125568000Y-67664000D01*
X125568000Y-67664000D02*
X121828000Y-67664000D01*
X125568000Y-69003999D02*
X125568000Y-70204000D01*
X125568000Y-70204000D02*
X121828000Y-70204000D01*
X125617564Y-78677497D02*
X125522376Y-78772684D01*
X125731024Y-78346465D02*
X125857976Y-78304927D01*
X125737292Y-101744766D02*
X125737292Y-101189766D01*
X125845996Y-65793000D02*
X125656893Y-65793000D01*
X125857976Y-78304927D02*
X125947214Y-78579016D01*
X125861056Y-78745912D02*
X125731024Y-78346465D01*
X125862331Y-79303014D02*
X125427189Y-78867871D01*
X125890266Y-78824255D02*
X125861056Y-78745912D01*
X125890266Y-78824255D02*
X125861056Y-78745912D01*
X125948064Y-78912809D02*
X125890266Y-78824255D01*
X125948064Y-78912809D02*
X125890266Y-78824255D01*
X125957519Y-79207827D02*
X125862331Y-79303014D01*
X126058476Y-74612759D02*
X125351369Y-75319865D01*
X126058476Y-85077939D02*
X125351369Y-84370832D01*
X126138000Y-70874000D02*
X121258000Y-70874000D01*
X126138000Y-70874000D02*
X126538000Y-70874000D01*
X126177292Y-101189766D02*
X125737292Y-101189766D01*
X126177292Y-101194766D02*
X126737292Y-101194766D01*
X126177292Y-101744766D02*
X125737292Y-101744766D01*
X126177292Y-101744766D02*
X126177292Y-101189766D01*
X126187200Y-68435600D02*
X121158000Y-68434000D01*
X126238000Y-65894000D02*
X126238000Y-68434000D01*
X126238000Y-68434000D02*
X126238000Y-70774000D01*
X126246481Y-63040386D02*
X123446481Y-63040386D01*
X126270608Y-74824891D02*
X125563501Y-75531997D01*
X126270608Y-74824891D02*
X126058476Y-74612759D01*
X126270608Y-84865807D02*
X125563501Y-84158700D01*
X126270608Y-84865807D02*
X126058476Y-85077939D01*
X126346481Y-61140386D02*
X126346481Y-62940386D01*
X126412029Y-74966312D02*
X125704922Y-75673419D01*
X126412029Y-84724386D02*
X125704922Y-84017279D01*
X126538000Y-65794000D02*
X126138000Y-65794000D01*
X126538000Y-70874000D02*
X128478000Y-70874000D01*
X126624161Y-75178444D02*
X125917054Y-75885551D01*
X126624161Y-75178444D02*
X126412029Y-74966312D01*
X126624161Y-84512254D02*
X125917054Y-83805147D01*
X126624161Y-84512254D02*
X126412029Y-84724386D01*
X126680214Y-89756822D02*
X123530214Y-89756822D01*
X126705214Y-88181822D02*
X126705214Y-89731822D01*
X126706214Y-89325495D02*
X126706214Y-88588148D01*
X126737292Y-99344766D02*
X126737292Y-99899766D01*
X126737292Y-101744766D02*
X126737292Y-101189766D01*
X126765582Y-75319865D02*
X126058476Y-76026972D01*
X126765582Y-84370832D02*
X126058476Y-83663725D01*
X126846481Y-62940386D02*
X126846481Y-61140386D01*
X126946481Y-61040386D02*
X127596481Y-61040386D01*
X126977714Y-75531997D02*
X126270608Y-76239104D01*
X126977714Y-75531997D02*
X126765582Y-75319865D01*
X126977714Y-84158700D02*
X126270608Y-83451593D01*
X126977714Y-84158700D02*
X126765582Y-84370832D01*
X127119136Y-75673419D02*
X126412029Y-76380526D01*
X127119136Y-84017279D02*
X126412029Y-83310172D01*
X127177292Y-99344766D02*
X126737292Y-99344766D01*
X127177292Y-99344766D02*
X127177292Y-99899766D01*
X127177292Y-99894766D02*
X127407292Y-99894766D01*
X127177292Y-99899766D02*
X126737292Y-99899766D01*
X127177292Y-101189766D02*
X126737292Y-101189766D01*
X127177292Y-101194766D02*
X127407292Y-101194766D01*
X127177292Y-101744766D02*
X126737292Y-101744766D01*
X127177292Y-101744766D02*
X127177292Y-101189766D01*
X127189801Y-66745801D02*
X127826198Y-66745801D01*
X127189801Y-67382198D02*
X127189801Y-66745801D01*
X127189801Y-69285801D02*
X127826198Y-69285801D01*
X127189801Y-69922198D02*
X127189801Y-69285801D01*
X127331268Y-75885551D02*
X126624161Y-76592658D01*
X127331268Y-75885551D02*
X127119136Y-75673419D01*
X127331268Y-83805147D02*
X126624161Y-83098040D01*
X127331268Y-83805147D02*
X127119136Y-84017279D01*
X127407292Y-101194766D02*
X127407292Y-99894766D01*
X127472689Y-76026972D02*
X126765582Y-76734079D01*
X127472689Y-83663725D02*
X126765582Y-82956619D01*
X127596481Y-63040386D02*
X126946481Y-63040386D01*
X127684821Y-76239104D02*
X126977714Y-76946211D01*
X127684821Y-76239104D02*
X127472689Y-76026972D01*
X127684821Y-83451593D02*
X126977714Y-82744487D01*
X127684821Y-83451593D02*
X127472689Y-83663725D01*
X127696481Y-61140386D02*
X127696481Y-62940386D01*
X127746481Y-60290387D02*
X121946481Y-60290387D01*
X127818000Y-109890605D02*
X127818000Y-110034000D01*
X127826198Y-66745801D02*
X127826198Y-67382198D01*
X127826198Y-67382198D02*
X127189801Y-67382198D01*
X127826198Y-69285801D02*
X127826198Y-69922198D01*
X127826198Y-69922198D02*
X127189801Y-69922198D01*
X127826243Y-76380526D02*
X127119136Y-77087632D01*
X127826243Y-83310172D02*
X127119136Y-82603065D01*
X127846481Y-61790386D02*
X128596481Y-61790386D01*
X127846481Y-62290386D02*
X128596481Y-62290386D01*
X127846481Y-63690386D02*
X127846481Y-60390387D01*
X128038375Y-76592658D02*
X127331268Y-77299764D01*
X128038375Y-76592658D02*
X127826243Y-76380526D01*
X128038375Y-83098040D02*
X127331268Y-82390933D01*
X128038375Y-83098040D02*
X127826243Y-83310172D01*
X128068000Y-109548569D02*
X121868000Y-109548569D01*
X128068000Y-109829211D02*
X128068000Y-109484000D01*
X128164410Y-109384064D02*
X128164410Y-104374000D01*
X128168000Y-109384000D02*
X128164410Y-109384064D01*
X128179796Y-76734079D02*
X127472689Y-77441186D01*
X128179796Y-82956619D02*
X127472689Y-82249512D01*
X128220577Y-92513340D02*
X121920577Y-92513340D01*
X128220577Y-97038340D02*
X121920577Y-97038340D01*
X128318000Y-109384000D02*
X128429701Y-109495701D01*
X128391928Y-76946211D02*
X127684821Y-77653318D01*
X128391928Y-76946211D02*
X128179796Y-76734079D01*
X128391928Y-82744487D02*
X127684821Y-82037380D01*
X128391928Y-82744487D02*
X128179796Y-82956619D01*
X128418011Y-109384000D02*
X128418011Y-109388215D01*
X128427271Y-109484000D02*
X128682927Y-109484000D01*
X128478000Y-65794000D02*
X126538000Y-65794000D01*
X128478000Y-70874000D02*
X128778000Y-70574000D01*
X128533349Y-77087632D02*
X127826243Y-77794739D01*
X128533349Y-82603065D02*
X127826243Y-81895959D01*
X128542857Y-109718759D02*
X128820612Y-110034000D01*
X128596481Y-62290386D02*
X128596481Y-61790386D01*
X128657896Y-109384000D02*
X128168000Y-109384000D01*
X128659486Y-109384331D02*
X128657896Y-109384000D01*
X128664410Y-109389575D02*
X128664410Y-104384000D01*
X128664410Y-109389575D02*
X128664427Y-109392500D01*
X128664427Y-109392500D02*
X128659486Y-109384331D01*
X128745481Y-77299764D02*
X128038375Y-78006871D01*
X128745481Y-77299764D02*
X128533349Y-77087632D01*
X128745481Y-82390933D02*
X128038375Y-81683826D01*
X128745481Y-82390933D02*
X128533349Y-82603065D01*
X128778000Y-66094000D02*
X128478000Y-65794000D01*
X128778000Y-70574000D02*
X128778000Y-66094000D01*
X128820612Y-110034000D02*
X129005487Y-109871108D01*
X128840215Y-109683531D02*
X128655340Y-109846422D01*
X128886903Y-77441186D02*
X128179796Y-78148293D01*
X128886903Y-82249512D02*
X128179796Y-81542405D01*
X128930400Y-109634400D02*
X137160000Y-109634400D01*
X128930400Y-110599600D02*
X128930400Y-109634400D01*
X129005487Y-109871108D02*
X128726833Y-109554847D01*
X129099035Y-77653318D02*
X128391928Y-78360425D01*
X129099035Y-77653318D02*
X128886903Y-77441186D01*
X129099035Y-82037380D02*
X128391928Y-81330273D01*
X129099035Y-82037380D02*
X128886903Y-82249512D01*
X129240456Y-77794739D02*
X128533349Y-78501846D01*
X129240456Y-81895959D02*
X128533349Y-81188852D01*
X129452588Y-78006871D02*
X128745481Y-78713978D01*
X129452588Y-78006871D02*
X129240456Y-77794739D01*
X129452588Y-81683826D02*
X128745481Y-80976720D01*
X129452588Y-81683826D02*
X129240456Y-81895959D01*
X129594009Y-78148293D02*
X128886903Y-78855399D01*
X129594009Y-81542405D02*
X128886903Y-80835298D01*
X129806142Y-78360425D02*
X129099035Y-79067531D01*
X129806142Y-78360425D02*
X129594009Y-78148293D01*
X129806142Y-81330273D02*
X129099035Y-80623166D01*
X129806142Y-81330273D02*
X129594009Y-81542405D01*
X129826852Y-79795349D02*
X129826852Y-79895349D01*
X129947563Y-78501846D02*
X129240456Y-79208953D01*
X129947563Y-81188852D02*
X129240456Y-80481745D01*
X130108000Y-53034000D02*
X119828000Y-53034000D01*
X130108000Y-55694000D02*
X130108000Y-53034000D01*
X130159695Y-78713978D02*
X129452588Y-79421085D01*
X130159695Y-78713978D02*
X129947563Y-78501846D01*
X130159695Y-80976720D02*
X129452588Y-80269613D01*
X130159695Y-80976720D02*
X129947563Y-81188852D01*
X132528000Y-59384000D02*
X132528000Y-102684000D01*
X132528000Y-59384000D02*
X135188000Y-59384000D01*
X132528000Y-102684000D02*
X135188000Y-102684000D01*
X135188000Y-59384000D02*
X135188000Y-102684000D01*
X137160000Y-52459000D02*
X137160000Y-109609000D01*
X121158000Y-65894000D02*
G75*
G02*
X121258000Y-65794000I100000J0D01*
G01*
X121189860Y-79906646D02*
G75*
G02*
X121194528Y-79632976I136540J134546D01*
G01*
X121194534Y-79632983D02*
G75*
G02*
X121425393Y-79571011I175266J-191917D01*
G01*
X121258000Y-70874000D02*
G75*
G02*
X121158000Y-70774000I0J100000D01*
G01*
X121271572Y-109392500D02*
G75*
G02*
X121209158Y-109554840I-249872J2900D01*
G01*
X121280479Y-79806892D02*
G75*
G02*
X121288673Y-79729250I43221J34692D01*
G01*
X121288659Y-79729233D02*
G75*
G02*
X121419343Y-79707309I84841J-105267D01*
G01*
X121509630Y-79959127D02*
G75*
G02*
X121671426Y-79980272I55570J-204373D01*
G01*
X121509630Y-79959128D02*
G75*
G02*
X121189861Y-79906646I-108630J338528D01*
G01*
X121517988Y-109388215D02*
G75*
G02*
X121393151Y-109718767I-500088J15D01*
G01*
X121671428Y-79980268D02*
G75*
G02*
X121661138Y-80091091I-60928J-50232D01*
G01*
X121752804Y-80189766D02*
G75*
G02*
X121472769Y-80243938I-179104J174966D01*
G01*
X121761091Y-79879556D02*
G75*
G02*
X121752797Y-80189758I-148391J-151244D01*
G01*
X121771590Y-109384064D02*
G75*
G02*
X121868000Y-109484000I-3590J-99936D01*
G01*
X121846481Y-60390387D02*
G75*
G02*
X121946481Y-60290381I100019J-13D01*
G01*
X121920577Y-97038340D02*
G75*
G02*
X121920577Y-92938340I0J2050000D01*
G01*
X121920577Y-97463340D02*
G75*
G02*
X121920577Y-92513340I0J2475000D01*
G01*
X121946481Y-63790386D02*
G75*
G02*
X121846414Y-63690386I19J100086D01*
G01*
X122117999Y-109890605D02*
G75*
G02*
X121868034Y-109685813I-20599J229805D01*
G01*
X122117999Y-110033999D02*
G75*
G02*
X121868039Y-109829207I-20599J229799D01*
G01*
X122559455Y-78268063D02*
G75*
G02*
X122846657Y-78258984I148045J-136037D01*
G01*
X122639556Y-78473524D02*
G75*
G02*
X122654009Y-78363892I80744J45124D01*
G01*
X122654005Y-78363888D02*
G75*
G02*
X122757456Y-78360298I53395J-46312D01*
G01*
X122746481Y-61040386D02*
G75*
G02*
X122846414Y-61140386I19J-99914D01*
G01*
X122846481Y-62940386D02*
G75*
G02*
X122746481Y-63040381I-99981J-14D01*
G01*
X122846610Y-78259033D02*
G75*
G02*
X122886733Y-78441108I-122110J-122367D01*
G01*
X122886768Y-78441122D02*
G75*
G02*
X123120587Y-78478629I92732J-169478D01*
G01*
X122969950Y-77857568D02*
G75*
G02*
X123288136Y-77857452I159150J-155932D01*
G01*
X122986310Y-78221957D02*
G75*
G02*
X122969969Y-77857586I162890J189857D01*
G01*
X123018393Y-78733801D02*
G75*
G02*
X122850373Y-78738639I-86493J83801D01*
G01*
X123024449Y-78572854D02*
G75*
G02*
X123018376Y-78733781I-80349J-77546D01*
G01*
X123059719Y-77958173D02*
G75*
G02*
X123199602Y-77959369I69381J-66127D01*
G01*
X123108376Y-78834194D02*
G75*
G02*
X122755129Y-78833887I-176476J169694D01*
G01*
X123120593Y-78478623D02*
G75*
G02*
X123108374Y-78834193I-176863J-171917D01*
G01*
X123288127Y-77857461D02*
G75*
G02*
X123404878Y-78206871I-396927J-326839D01*
G01*
X123346481Y-61140386D02*
G75*
G02*
X123446481Y-61040381I100019J-14D01*
G01*
X123446481Y-63040386D02*
G75*
G02*
X123346414Y-62940386I19J100086D01*
G01*
X123530214Y-89756822D02*
G75*
G02*
X123505278Y-89731822I-14J24922D01*
G01*
X124021261Y-80056228D02*
G75*
G02*
X124308370Y-80047246I147939J-135672D01*
G01*
X124086384Y-80842904D02*
G75*
G02*
X124064710Y-80937453I-87084J-29796D01*
G01*
X124101363Y-80261687D02*
G75*
G02*
X124115825Y-80152065I80937J45087D01*
G01*
X124115812Y-80152052D02*
G75*
G02*
X124219237Y-80148488I53388J-46848D01*
G01*
X124308417Y-80047197D02*
G75*
G02*
X124348530Y-80229269I-122317J-122403D01*
G01*
X124348575Y-80229286D02*
G75*
G02*
X124582393Y-80266794I92725J-169514D01*
G01*
X124480200Y-80521965D02*
G75*
G02*
X124312090Y-80526903I-86600J84165D01*
G01*
X124486257Y-80361019D02*
G75*
G02*
X124480199Y-80521964I-79857J-77581D01*
G01*
X124542456Y-80090860D02*
G75*
G02*
X124541388Y-79536091I267264J277900D01*
G01*
X124570183Y-80622358D02*
G75*
G02*
X124216929Y-80622058I-176483J169658D01*
G01*
X124582400Y-80266787D02*
G75*
G02*
X124570178Y-80622354I-176900J-171913D01*
G01*
X124637431Y-79995460D02*
G75*
G02*
X124632841Y-79634981I172069J182460D01*
G01*
X124997889Y-79376848D02*
G75*
G02*
X125002988Y-79074500I143431J148798D01*
G01*
X125001819Y-80000347D02*
G75*
G02*
X124637425Y-79995464I-179919J172447D01*
G01*
X125002989Y-79074501D02*
G75*
G02*
X125305373Y-79072340I152211J-141499D01*
G01*
X125083090Y-79764822D02*
G75*
G02*
X125001825Y-80000352I-288690J-32178D01*
G01*
X125095838Y-79172024D02*
G75*
G02*
X125214687Y-79172159I59362J-54876D01*
G01*
X125097432Y-80095111D02*
G75*
G02*
X124542442Y-80090872I-275532J259111D01*
G01*
X125099876Y-79288459D02*
G75*
G02*
X125095890Y-79172076I52524J60059D01*
G01*
X125214717Y-79172131D02*
G75*
G02*
X125220078Y-79292652I-53717J-62769D01*
G01*
X125220029Y-79292602D02*
G75*
G02*
X125099856Y-79288478I-58129J59102D01*
G01*
X125304061Y-79547038D02*
G75*
G02*
X125316480Y-79386503I85439J74138D01*
G01*
X125316490Y-79386517D02*
G75*
G02*
X125476212Y-79379134I83410J-73083D01*
G01*
X125368121Y-79226100D02*
G75*
G02*
X125577826Y-79290483I46179J-223300D01*
G01*
X125464903Y-79537265D02*
G75*
G02*
X125304061Y-79547038I-85103J72165D01*
G01*
X125476163Y-79379186D02*
G75*
G02*
X125464888Y-79537247I-77363J-73914D01*
G01*
X125561047Y-79631495D02*
G75*
G02*
X125217488Y-79650823I-180047J137295D01*
G01*
X125577832Y-79290478D02*
G75*
G02*
X125561028Y-79631474I-162132J-162922D01*
G01*
X125947214Y-78579016D02*
G75*
G02*
X126275155Y-78587204I159986J-163684D01*
G01*
X126031033Y-78671973D02*
G75*
G02*
X126174538Y-78676984I69367J-70827D01*
G01*
X126038577Y-78812947D02*
G75*
G02*
X126031040Y-78671977I64723J74147D01*
G01*
X126138000Y-65794000D02*
G75*
G02*
X126238000Y-65894000I0J-100000D01*
G01*
X126174559Y-78676965D02*
G75*
G02*
X126180921Y-78821222I-67259J-75235D01*
G01*
X126180932Y-78821234D02*
G75*
G02*
X126038597Y-78812929I-67032J75034D01*
G01*
X126237999Y-70774000D02*
G75*
G02*
X126138000Y-70873999I-99999J0D01*
G01*
X126246481Y-61040386D02*
G75*
G02*
X126346414Y-61140386I19J-99914D01*
G01*
X126275164Y-78587196D02*
G75*
G02*
X126277927Y-78914616I-159054J-165064D01*
G01*
X126277926Y-78914616D02*
G75*
G02*
X125948067Y-78912806I-164026J165616D01*
G01*
X126346481Y-62940386D02*
G75*
G02*
X126246481Y-63040381I-99981J-14D01*
G01*
X126846481Y-61140386D02*
G75*
G02*
X126946481Y-61040381I100019J-14D01*
G01*
X126946481Y-63040386D02*
G75*
G02*
X126846414Y-62940386I19J100086D01*
G01*
X127596481Y-61040386D02*
G75*
G02*
X127696414Y-61140386I19J-99914D01*
G01*
X127696481Y-62940386D02*
G75*
G02*
X127596481Y-63040381I-99981J-14D01*
G01*
X127746481Y-60290387D02*
G75*
G02*
X127846413Y-60390387I19J-99913D01*
G01*
X127846481Y-63690386D02*
G75*
G02*
X127746481Y-63790381I-99981J-14D01*
G01*
X128067999Y-109685818D02*
G75*
G02*
X127817994Y-109890657I-229499J25118D01*
G01*
X128068000Y-109484000D02*
G75*
G02*
X128164410Y-109384064I100000J0D01*
G01*
X128068000Y-109829212D02*
G75*
G02*
X127818005Y-110033930I-229300J25012D01*
G01*
X128220577Y-92513340D02*
G75*
G02*
X128220577Y-97463340I3J-2475000D01*
G01*
X128220577Y-92938340D02*
G75*
G02*
X128220577Y-97038340I3J-2050000D01*
G01*
X128542857Y-109718759D02*
G75*
G02*
X128417966Y-109388215I375543J330759D01*
G01*
X128726833Y-109554847D02*
G75*
G02*
X128664471Y-109392500I187167J165047D01*
G01*
X117005500Y-55034000D02*
G75*
G02*
X113930500Y-55034000I-1537500J0D01*
G01*
X113930500Y-55034000D02*
G75*
G02*
X117005500Y-55034000I1537500J0D01*
G01*
X117005500Y-107034000D02*
G75*
G02*
X113930500Y-107034000I-1537500J0D01*
G01*
X113930500Y-107034000D02*
G75*
G02*
X117005500Y-107034000I1537500J0D01*
G01*
X125177105Y-83845349D02*
G75*
G02*
X124677105Y-83845349I-250000J0D01*
G01*
X124677105Y-83845349D02*
G75*
G02*
X125177105Y-83845349I250000J0D01*
G01*
X136005500Y-55034000D02*
G75*
G02*
X132930500Y-55034000I-1537500J0D01*
G01*
X132930500Y-55034000D02*
G75*
G02*
X136005500Y-55034000I1537500J0D01*
G01*
X136005500Y-107034000D02*
G75*
G02*
X132930500Y-107034000I-1537500J0D01*
G01*
X132930500Y-107034000D02*
G75*
G02*
X136005500Y-107034000I1537500J0D01*
G01*
%TO.C,R11*%
X105945000Y-34815936D02*
X105945000Y-35270064D01*
X107415000Y-34815936D02*
X107415000Y-35270064D01*
%TO.C,R3*%
X103659000Y-102276436D02*
X103659000Y-102730564D01*
X105129000Y-102276436D02*
X105129000Y-102730564D01*
%TO.C,R2*%
X100865000Y-102238436D02*
X100865000Y-102692564D01*
X102335000Y-102238436D02*
X102335000Y-102692564D01*
%TO.C,D7*%
X103434000Y-105163000D02*
X103434000Y-108023000D01*
X103434000Y-108023000D02*
X105354000Y-108023000D01*
X105354000Y-108023000D02*
X105354000Y-105163000D01*
%TO.C,J2*%
X80832000Y-40059000D02*
X80832000Y-30138000D01*
X82117000Y-35867000D02*
X82164000Y-35821000D01*
X82322000Y-36073000D02*
X82357000Y-36037000D01*
X84426000Y-33559000D02*
X84461000Y-33524000D01*
X84619000Y-33775000D02*
X84666000Y-33729000D01*
X90952000Y-30138000D02*
X80832000Y-30138000D01*
X90952000Y-30698000D02*
X80832000Y-30698000D01*
X90952000Y-32198000D02*
X80832000Y-32198000D01*
X90952000Y-37099000D02*
X80832000Y-37099000D01*
X90952000Y-40059000D02*
X80832000Y-40059000D01*
X90952000Y-40059000D02*
X90952000Y-30138000D01*
X91192000Y-29898000D02*
X90692000Y-29898000D01*
X91192000Y-30638000D02*
X91192000Y-29898000D01*
X86856573Y-35481042D02*
G75*
G02*
X86857000Y-34114000I1535427J683042D01*
G01*
X87708682Y-33263244D02*
G75*
G02*
X88392000Y-33118000I683318J-1534756D01*
G01*
X88363195Y-33117747D02*
G75*
G02*
X89076000Y-33263000I28806J-1680254D01*
G01*
X89075042Y-36333427D02*
G75*
G02*
X87708000Y-36333000I-683041J1535420D01*
G01*
X89927427Y-34114958D02*
G75*
G02*
X89927000Y-35482000I-1535420J-683041D01*
G01*
X85072000Y-34798000D02*
G75*
G02*
X81712000Y-34798000I-1680000J0D01*
G01*
X81712000Y-34798000D02*
G75*
G02*
X85072000Y-34798000I1680000J0D01*
G01*
%TO.C,C7*%
X102354748Y-41570500D02*
X102877252Y-41570500D01*
X102354748Y-43040500D02*
X102877252Y-43040500D01*
%TO.C,D8*%
X106228000Y-105172000D02*
X106228000Y-108032000D01*
X106228000Y-108032000D02*
X108148000Y-108032000D01*
X108148000Y-108032000D02*
X108148000Y-105172000D01*
%TO.C,C6*%
X99001252Y-41570500D02*
X98478748Y-41570500D01*
X99001252Y-43040500D02*
X98478748Y-43040500D01*
%TO.C,R5*%
X76365564Y-107734000D02*
X75911436Y-107734000D01*
X76365564Y-109204000D02*
X75911436Y-109204000D01*
%TO.C,R9*%
X93953064Y-107723000D02*
X93498936Y-107723000D01*
X93953064Y-109193000D02*
X93498936Y-109193000D01*
%TO.C,R7*%
X72778936Y-100611000D02*
X73233064Y-100611000D01*
X72778936Y-102081000D02*
X73233064Y-102081000D01*
%TO.C,J4*%
X108398000Y-72838000D02*
X109728000Y-72838000D01*
X108398000Y-74168000D02*
X108398000Y-72838000D01*
X108398000Y-75438000D02*
X108398000Y-80578000D01*
X108398000Y-75438000D02*
X111058000Y-75438000D01*
X108398000Y-80578000D02*
X111058000Y-80578000D01*
X111058000Y-75438000D02*
X111058000Y-80578000D01*
%TO.C,D5*%
X105720000Y-38116000D02*
X105720000Y-40976000D01*
X105720000Y-40976000D02*
X107640000Y-40976000D01*
X107640000Y-40976000D02*
X107640000Y-38116000D01*
%TO.C,C8*%
X118391000Y-100083252D02*
X118391000Y-99560748D01*
X119861000Y-100083252D02*
X119861000Y-99560748D01*
%TO.C,K3*%
X85672000Y-75444000D02*
X101272000Y-75444000D01*
X85672000Y-95244000D02*
X85672000Y-75444000D01*
X85672000Y-95244000D02*
X92272000Y-95244000D01*
X87522000Y-87794000D02*
X87522000Y-90294000D01*
X87522000Y-87794000D02*
X91722000Y-87794000D01*
X89272000Y-79694000D02*
X91772000Y-79694000D01*
X91722000Y-85794000D02*
X95322000Y-85794000D01*
X91722000Y-89794000D02*
X91722000Y-85794000D01*
X93522000Y-82894000D02*
X91022000Y-78294000D01*
X93522000Y-84394000D02*
X93522000Y-82894000D01*
X93522000Y-84394000D02*
X97122000Y-84394000D01*
X93522000Y-91194000D02*
X93522000Y-91994000D01*
X93522000Y-91194000D02*
X97122000Y-91194000D01*
X94672000Y-95244000D02*
X101272000Y-95244000D01*
X95322000Y-85794000D02*
X91722000Y-89794000D01*
X95322000Y-85794000D02*
X95322000Y-89794000D01*
X95322000Y-87794000D02*
X99522000Y-87794000D01*
X95322000Y-89794000D02*
X91722000Y-89794000D01*
X97122000Y-84394000D02*
X97122000Y-91194000D01*
X97672000Y-79694000D02*
X95222000Y-79694000D01*
X99522000Y-90294000D02*
X99522000Y-87794000D01*
X101272000Y-75444000D02*
X101272000Y-95244000D01*
%TO.C,D4*%
X88030000Y-96558000D02*
X88030000Y-99858000D01*
X88030000Y-96558000D02*
X95040000Y-96558000D01*
X88030000Y-99858000D02*
X95040000Y-99858000D01*
%TD*%
M02*
