M48
METRIC
T1C0.600
T2C0.700
T3C0.800
T4C1.000
T5C1.300
T6C1.540
T7C2.600
T8C3.000
%
G90
G05
T1
X80.522Y-105.275
X102.743Y-71.501
X105.41Y-84.836
X115.697Y-54.991
T2
X86.106Y-45.212
X90.17Y-45.212
T3
X70.061Y-45.974
X77.681Y-45.974
T4
X69.596Y-52.578
X69.596Y-55.118
X69.596Y-57.658
X69.596Y-60.198
X69.596Y-62.738
X69.596Y-65.278
X69.596Y-67.818
X69.596Y-70.358
X69.742Y-91.858
X81.742Y-91.858
X87.522Y-91.894
X99.522Y-91.894
X109.474Y-55.88
X109.474Y-58.42
X109.474Y-60.96
X109.728Y-74.168
X109.728Y-76.708
X109.728Y-79.248
X116.078Y-60.714
X116.078Y-63.254
X116.078Y-65.794
X116.078Y-73.414
X116.078Y-75.954
X116.078Y-78.494
X116.078Y-81.034
X116.078Y-83.574
X116.078Y-86.114
X116.078Y-88.654
X116.078Y-91.194
X116.078Y-93.734
X116.078Y-96.274
X116.078Y-98.814
X116.078Y-101.354
X121.158Y-54.364
X123.698Y-54.364
X126.238Y-54.364
X128.778Y-54.364
X133.858Y-60.714
X133.858Y-63.254
X133.858Y-65.794
X133.858Y-68.334
X133.858Y-70.874
X133.858Y-73.414
X133.858Y-75.954
X133.858Y-78.494
X133.858Y-81.034
X133.858Y-83.574
X133.858Y-86.114
X133.858Y-88.654
X133.858Y-91.194
X133.858Y-93.734
X133.858Y-96.274
X133.858Y-98.814
X133.858Y-101.354
T5
X69.692Y-79.608
X70.652Y-34.747
X75.652Y-34.747
X75.692Y-93.808
X81.742Y-79.658
X83.392Y-34.798
X87.472Y-79.644
X88.392Y-34.798
X93.472Y-93.844
X99.522Y-79.694
T6
X113.21Y-31.728
X113.21Y-35.128
X113.21Y-42.728
X113.21Y-46.228
X136.111Y-32.029
X136.111Y-46.228
T7
X84.582Y-58.928
X84.582Y-63.754
X94.869Y-59.055
X94.869Y-63.881
T8
G00X55.364Y-34.358
M15
G01X54.364Y-34.358
M16
G05
G00X55.364Y-106.358
M15
G01X54.364Y-106.358
M16
G05
M30
